<?xml version="1.0" standalone="no"?>
<!DOCTYPE svg PUBLIC "-//W3C//DTD SVG 1.1//EN" "http://www.w3.org/Graphics/SVG/1.1/DTD/svg11.dtd" >
<svg>
<metadata>
Created by FontForge 20090914 at Tue Oct 11 10:39:42 2016
 By www-data
</metadata>
<defs>
<font id="Jura-Light" horiz-adv-x="566" >
  <font-face 
    font-family="Jura"
    font-weight="300"
    font-stretch="normal"
    units-per-em="1024"
    panose-1="2 0 3 3 0 0 0 0 0 0"
    ascent="819"
    descent="-205"
    x-height="461"
    cap-height="636"
    bbox="-438 -205 875.999 819"
    underline-thickness="51"
    underline-position="-102"
    unicode-range="U+0020-U+2116"
  />
<missing-glyph horiz-adv-x="538" 
d="M156 546v-416c0 -21.333 3.83301 -36.5 11.5 -45.5s21.834 -13.5 42.501 -13.5h118c20.667 0 34.834 4.5 42.501 13.5s11.5 24.167 11.5 45.5v416c0 21.333 -3.83301 36.666 -11.5 45.999s-21.834 14 -42.501 14h-118c-20.667 0 -34.834 -4.66699 -42.501 -14
s-11.5 -24.666 -11.5 -45.999zM85 0v678h368v-678h-368z" />
    <glyph glyph-name=".notdef" horiz-adv-x="538" 
d="M156 546v-416c0 -21.333 3.83301 -36.5 11.5 -45.5s21.834 -13.5 42.501 -13.5h118c20.667 0 34.834 4.5 42.501 13.5s11.5 24.167 11.5 45.5v416c0 21.333 -3.83301 36.666 -11.5 45.999s-21.834 14 -42.501 14h-118c-20.667 0 -34.834 -4.66699 -42.501 -14
s-11.5 -24.666 -11.5 -45.999zM85 0v678h368v-678h-368z" />
    <glyph glyph-name="space" unicode=" " horiz-adv-x="260" 
 />
    <glyph glyph-name="exclam" unicode="!" horiz-adv-x="234" 
d="M164 29c0 -9.33301 -5.16699 -17.666 -15.5 -24.999s-20.833 -11 -31.5 -11c-10 0 -20.167 3.66699 -30.5 11s-15.5 15.666 -15.5 24.999s5.16699 17.666 15.5 24.999s20.5 11 30.5 11c10.667 0 21.167 -3.66699 31.5 -11s15.5 -15.666 15.5 -24.999zM96 616
c0 18.667 7 28 21 28s21 -9.33301 21 -28v-419c0 -18.667 -7.33301 -28 -22 -28c-13.333 0 -20 9.33301 -20 28v419z" />
    <glyph glyph-name="quotedbl" unicode="&#x22;" horiz-adv-x="285" 
d="M214 466c0 -18.667 -7.33301 -28 -22 -28c-13.333 0 -20 9.33301 -20 28v149c0 18.667 7 28 21 28s21 -9.33301 21 -28v-149zM112 466c0 -18.667 -7 -28 -21 -28c-13.333 0 -20 9.33301 -20 28v149c0 18.667 7 28 21 28c13.333 0 20 -9.33301 20 -28v-149z" />
    <glyph glyph-name="numbersign" unicode="#" horiz-adv-x="595" 
d="M313 625c14 0 21.001 -6.66699 21.001 -20c0 -4 -1 -9 -3 -15l-59 -159h134l64 173c5.33301 14 12.666 21 21.999 21c6 0 11 -2 15 -6s6 -9 6 -15c0 -4 -1 -8.66699 -3 -14l-58 -159h70c18.667 0 28 -7 28 -21s-9.33301 -21 -28 -21h-86l-51 -142h106
c18.667 0 28 -7.33301 28 -22c0 -13.333 -9.33301 -20 -28 -20h-121l-64 -173c-4.66699 -14 -12 -21 -22 -21c-14 0 -21 7 -21 21c0 4 1 8.66699 3 14l59 159h-135l-63 -173c-4.66699 -14 -12 -21 -22 -21c-13.333 0 -20 6.66699 -20 20c0 4 1 9 3 15l58 159h-73
c-18.667 0 -28 7 -28 21s9.33301 21 28 21h89l51 142h-110c-18 0 -27 7.33301 -27 22c0 13.333 9 20 27 20h125l64 173c5.33301 14 12.333 21 21 21zM257.001 389l-51 -142h134l51 142h-134z" />
    <glyph glyph-name="dollar" unicode="$" horiz-adv-x="567" 
d="M156 91c-20.667 0 -37.834 3 -51.501 9s-23.334 14.667 -29.001 26s-9.5 22.333 -11.5 33s-3 23.667 -3 39c0 20 7 30 21 30s21 -9.33301 21 -28c0 -24 4.33301 -41.167 13 -51.5s24.334 -15.5 47.001 -15.5h104v173h-82c-82.667 0 -124 42.667 -124 128
c0 38.667 9.5 68 28.5 88s50.833 30 95.5 30h82v63c0 18.667 7 28 21 28s21 -9.33301 21 -28v-63h101c20.667 0 37.834 -3 51.501 -9s23.334 -14.667 29.001 -26s9.5 -22.333 11.5 -33s3 -23.667 3 -39c0 -20 -7 -30 -21 -30s-21 9.33301 -21 28
c0 24 -4.33301 41.167 -13 51.5s-24.334 15.5 -47.001 15.5h-94v-162h75c82 0 123 -44.667 123 -134c0 -82 -41 -123 -123 -123h-75v-71c0 -18 -7.33301 -27 -22 -27c-13.333 0 -20 9 -20 27v71h-111zM309 306v-173h92c42.667 0 64 27 64 81c0 28 -6 50.333 -18 67
s-27.333 25 -46 25h-92zM267 348v162h-100c-42.667 0 -64 -25.333 -64 -76c0 -27.333 6 -48.5 18 -63.5s27.333 -22.5 46 -22.5h100z" />
    <glyph glyph-name="percent" unicode="%" horiz-adv-x="540" 
d="M347 183c0 -9.33301 3.5 -17.5 10.5 -24.5s15.167 -10.5 24.5 -10.5c10 0 18.333 3.5 25 10.5s10 15.167 10 24.5c0 10 -3.33301 18.333 -10 25s-15 10 -25 10c-9.33301 0 -17.5 -3.33301 -24.5 -10s-10.5 -15 -10.5 -25zM305 183c0 20.667 7.5 38.667 22.5 54
s33.167 23 54.5 23s39.5 -7.66699 54.5 -23s22.5 -33.333 22.5 -54s-7.5 -38.667 -22.5 -54s-33.167 -23 -54.5 -23s-39.5 7.66699 -54.5 23s-22.5 33.333 -22.5 54zM124 471c0 -9.33301 3.5 -17.5 10.5 -24.5s15.167 -10.5 24.5 -10.5s17.5 3.5 24.5 10.5
s10.5 15.167 10.5 24.5s-3.5 17.5 -10.5 24.5s-15.167 10.5 -24.5 10.5s-17.5 -3.5 -24.5 -10.5s-10.5 -15.167 -10.5 -24.5zM81 471c0 21.333 7.66699 39.5 23 54.5s33.666 22.5 54.999 22.5c20.667 0 38.5 -7.5 53.5 -22.5s22.5 -33.167 22.5 -54.5
s-7.5 -39.5 -22.5 -54.5s-32.833 -22.5 -53.5 -22.5c-21.333 0 -39.666 7.5 -54.999 22.5s-23 33.167 -23 54.5zM451 528c4.66699 0 9.16699 -2 13.5 -6s6.5 -8.66699 6.5 -14s-3.66699 -12.333 -11 -21l-350 -350c-7.33301 -7.33301 -14.333 -11 -21 -11
c-4.66699 0 -9.16699 2 -13.5 6s-6.5 8.66699 -6.5 14c0 6.66699 3.66699 13.667 11 21l350 350c8.66699 7.33301 15.667 11 21 11z" />
    <glyph glyph-name="ampersand" unicode="&#x26;" horiz-adv-x="494" 
d="M374 528c0 -5.33301 -1.99902 -9.99805 -5.99902 -13.998s-9 -6 -15 -6c-6.66699 0 -13.667 5 -21 15s-14.166 21.167 -20.499 33.5s-16.333 23.5 -30 33.5s-29.167 15 -46.5 15c-32.667 0 -62.334 -11.833 -89.001 -35.5s-40 -54.834 -40 -93.501
c0 -24.667 13 -52 39 -82l240 -277c22.667 31.333 34 68 34 110c0 20.667 7.33301 31 22 31c12.667 0 19 -10.333 19 -31c0 -53.333 -15.333 -101 -46 -143l48 -55c4 -4.66699 6 -10.667 6 -18c0 -12 -5.66699 -18 -17 -18c-8.66699 0 -17.334 4.66699 -26.001 14l-39 45
c-44 -40.667 -92.333 -61 -145 -61c-22 0 -44.333 3.33301 -67 10s-44.5 17 -65.5 31s-38.167 34 -51.5 60s-20 56 -20 90c0 32.667 7.16699 65 21.5 97s35.833 57.667 64.5 77l-14 17c-31.333 36 -47 70.333 -47 103c0 49.333 18.5 90.166 55.5 122.499
s76.833 48.5 119.5 48.5c26 0 50.333 -9.5 73 -28.5s39 -37.333 49 -55s15 -29.5 15 -35.5zM359.001 84.002l-207.998 241c-24.667 -14 -42.834 -34.333 -54.501 -61s-17.5 -54 -17.5 -82c0 -51.333 16.667 -89 50 -113s70.666 -36 111.999 -36c42.667 0 82 17 118 51z" />
    <glyph glyph-name="quotesingle" unicode="'" horiz-adv-x="183" 
d="M112 466c0 -18.667 -7 -28 -21 -28c-13.333 0 -20 9.33301 -20 28v149c0 18.667 7 28 21 28c13.333 0 20 -9.33301 20 -28v-149z" />
    <glyph glyph-name="parenleft" unicode="(" horiz-adv-x="237" 
d="M193 636c-36 0 -58 -6.83301 -66 -20.5s-12 -51.167 -12 -112.5v-370c0 -61.333 4 -98.833 12 -112.5s30 -20.5 66 -20.5v-42c-30 0 -53 4 -69 12s-28.5 24.833 -37.5 50.5s-13.5 63.167 -13.5 112.5v370c0 49.333 4.5 86.833 13.5 112.5s21.5 42.5 37.5 50.5
s39 12 69 12v-42z" />
    <glyph glyph-name="parenright" unicode=")" horiz-adv-x="236" 
d="M44 0c35.333 0 57 6.83301 65 20.5s12 51.167 12 112.5v370c0 61.333 -4 98.833 -12 112.5s-29.667 20.5 -65 20.5v42c44.667 0 75.667 -11.167 93 -33.5s26 -69.5 26 -141.5v-370c0 -72 -8.66699 -119.167 -26 -141.5s-48.333 -33.5 -93 -33.5v42z" />
    <glyph glyph-name="asterisk" unicode="*" horiz-adv-x="387" 
d="M322 429c0 -3.33301 -1.66699 -7.50195 -5 -12.502s-8.33301 -7.5 -15 -7.5c-4 0 -10 1.66699 -18 5l-70 41v-81c0 -18.667 -7 -28 -21 -28s-21 9.33301 -21 28v81l-70 -41c-8 -3.33301 -14 -5 -18 -5c-5.33301 0 -9.83301 2.16699 -13.5 6.5s-5.5 8.83301 -5.5 13.5
c0 8 5.33301 15.333 16 22l70 41l-70 39c-10.667 6.66699 -16 14 -16 22c0 3.33301 1.5 7.5 4.5 12.5s7.83301 7.5 14.5 7.5c4 0 10 -1.66699 18 -5l70 -41v81c0 18.667 7.33301 28 22 28c13.333 0 20 -9.33301 20 -28v-81l70 41c8 3.33301 14 5 18 5
c5.33301 0 10 -2.16699 14 -6.5s6 -8.83301 6 -13.5c0 -7.33301 -5.66699 -14.666 -17 -21.999l-69 -39l69 -41c11.333 -7.33301 17 -14.666 17 -21.999z" />
    <glyph glyph-name="plus" unicode="+" horiz-adv-x="510" 
d="M276 20c0 -18 -7 -27 -21 -27s-21 9 -21 27v189h-169c-17.333 0 -26 7.33301 -26 22c0 14 8.66699 21 26 21h169v188c0 18.667 7.33301 28 22 28c13.333 0 20 -9.33301 20 -28v-188h167c19.333 0 29 -7.66699 29 -23c0 -13.333 -9.66699 -20 -29 -20h-167v-189z" />
    <glyph glyph-name="comma" unicode="," horiz-adv-x="203" 
d="M97 61c6.66699 0 14.333 -1.66699 23 -5s13 -8.33301 13 -15c0 -6 -1.33301 -11.667 -4 -17l-42 -83c-6 -14 -12.667 -21 -20 -21c-11.333 0 -17 6.66699 -17 20c0 4 1 9 3 15l24 86c4 13.333 10.667 20 20 20z" />
    <glyph glyph-name="hyphen" unicode="-" horiz-adv-x="446" 
d="M99 209c-17.333 0 -26 7.33301 -26 22c0 14 8.66699 21 26 21h245c19.333 0 29 -7.66699 29 -23c0 -13.333 -9.66699 -20 -29 -20h-245z" />
    <glyph glyph-name="period" unicode="." horiz-adv-x="224" 
d="M66 29c0 9.33301 5 17.666 15 24.999s20.333 11 31 11c10 0 20.167 -3.66699 30.5 -11s15.5 -15.666 15.5 -24.999s-5.16699 -17.666 -15.5 -24.999s-20.5 -11 -30.5 -11c-10.667 0 -21 3.66699 -31 11s-15 15.666 -15 24.999z" />
    <glyph glyph-name="slash" unicode="/" horiz-adv-x="349" 
d="M284 645c14.667 0 22 -6.33203 22 -18.999c0 -4.66699 -1 -10 -3 -16l-218 -598c-4 -13.333 -11 -20 -21 -20c-14 0 -21 6.33301 -21 19c0 3.33301 1 8.66602 3 15.999l218 598c4 13.333 10.667 20 20 20z" />
    <glyph glyph-name="zero" unicode="0" horiz-adv-x="592" 
d="M116 497v-359c0 -24.667 11.667 -46.834 35 -66.501s51.666 -29.5 84.999 -29.5h120c33.333 0 61.666 9.83301 84.999 29.5s35 41.834 35 66.501v359c0 24.667 -11.667 46.834 -35 66.501s-51.666 29.5 -84.999 29.5h-120c-33.333 0 -61.666 -9.83301 -84.999 -29.5
s-35 -41.834 -35 -66.501zM518 154c0 -45.333 -16.333 -82.333 -49 -111s-73 -43 -121 -43h-104c-48 -0 -88.333 14.333 -121 43s-49 65.667 -49 111v328c0 45.333 16.333 82.333 49 111s73 43 121 43h104c48 0 88.333 -14.333 121 -43s49 -65.667 49 -111v-328z" />
    <glyph glyph-name="one" unicode="1" horiz-adv-x="592" 
d="M284 616l-34 -32.999c-8 -8.66699 -16.333 -13 -25 -13c-12.667 0 -19 6 -19 18c0 7.33301 4 14.666 12 21.999l62 63c8 8 16 12 24 12c2.66699 0 5.5 -0.5 8.5 -1.5s6 -3.33301 9 -7s4.5 -8.5 4.5 -14.5v-642c0 -18 -7 -27 -21 -27s-21 9 -21 27v596z" />
    <glyph glyph-name="two" unicode="2" horiz-adv-x="592" 
d="M518 460c0 -32.667 -13.835 -62.3311 -41.502 -88.998s-61 -50.334 -100 -71.001l-117.5 -63.5c-39.333 -21.667 -72.833 -49.167 -100.5 -82.5s-41.5 -70.666 -41.5 -111.999h371c20 0 30 -7.33301 30 -22c0 -13.333 -10 -20 -30 -20h-413v44c0 34 7.33301 65.333 22 94
s33.834 52.5 57.501 71.5s49.834 36.833 78.501 53.5s57.167 32 85.5 46s54.333 28.167 78 42.5s42.834 30.666 57.501 48.999s22 38.166 22 59.499c0 57.333 -12 94 -36 110s-67 24 -129 24h-135c-22.667 0 -38.334 -5 -47.001 -15s-13 -26.667 -13 -50
c0 -20 -7.33301 -30 -22 -30c-13.333 0 -20 10 -20 30c0 38.667 7.33301 66.167 22 82.5s39 24.5 73 24.5h142c34 0 62.5 -2.16699 85.5 -6.5s44.333 -12.5 64 -24.5s34.167 -30 43.5 -54s14 -54.333 14 -91z" />
    <glyph glyph-name="three" unicode="3" horiz-adv-x="592" 
d="M336 594l-79.999 0.00292969c-30 0 -60.833 -5.83301 -92.5 -17.5s-47.5 -28.167 -47.5 -49.5c0 -18.667 -7 -28 -21 -28s-21 10 -21 30c0 28 15.667 52.833 47 74.5s74 32.5 128 32.5h77c69.333 0 118.666 -13.667 147.999 -41s44 -75.333 44 -144
c0 -23.333 -16.167 -48.833 -48.5 -76.5s-59.5 -43.834 -81.5 -48.501c21.333 -4 48.333 -22.333 81 -55s49 -61.334 49 -86.001c0 -68.667 -14.667 -116.667 -44 -144s-78.666 -41 -147.999 -41h-77c-54 0 -96.667 10.833 -128 32.5s-47 46.167 -47 73.5
c0 20.667 7 31 21 31s21 -9.33301 21 -28c0 -21.333 15.833 -37.833 47.5 -49.5s62.5 -17.5 92.5 -17.5h80c53.333 0 90.166 10.833 110.499 32.5s30.5 52.167 30.5 91.5c0 33.333 -21.833 64.666 -65.5 93.999s-83.834 44 -120.501 44c-21.333 0 -32 7.33301 -32 22
c0 14 10.667 21 32 21c38 0 78.5 12.5 121.5 37.5s64.5 53.5 64.5 85.5c0 39.333 -10.167 69.833 -30.5 91.5s-57.166 32.5 -110.499 32.5z" />
    <glyph glyph-name="four" unicode="4" horiz-adv-x="592" 
d="M493 175h-61v-155c0 -18 -7 -27 -21 -27s-21 9 -21 27v155h-318v56l303 405h57v-419h61c18 0 27 -7 27 -21s-9 -21 -27 -21zM390 217v377l-281 -377h281z" />
    <glyph glyph-name="five" unicode="5" horiz-adv-x="592" 
d="M291 -9c-41.333 0 -87.001 11.502 -137.001 34.502s-75 44.5 -75 64.5c0 5.33301 2 10.166 6 14.499s8.33301 6.5 13 6.5c2 0 12.167 -6.5 30.5 -19.5s42.333 -26 72 -39s59.834 -19.5 90.501 -19.5c56.667 0 100.834 17.167 132.501 51.5s47.5 81.833 47.5 142.5
c0 29.333 -5.33301 55.333 -16 78s-24.167 40 -40.5 52s-32.833 20.833 -49.5 26.5s-33 8.5 -49 8.5h-231l9 120c3.33301 46.667 13 79 29 97s42.667 27 80 27h241c18 0 27 -7.33301 27 -22c0 -13.333 -9 -20 -27 -20h-247c-18.667 0 -32.667 -5 -42 -15
s-15 -26.667 -17 -50l-6 -95h175c53.333 0 101 -18.833 143 -56.5s63 -87.834 63 -150.501c0 -73.333 -20.833 -131 -62.5 -173s-94.834 -63 -159.501 -63z" />
    <glyph glyph-name="six" unicode="6" horiz-adv-x="592" 
d="M74 207c0 59.333 7.16504 114.668 21.498 166.001s31.5 92.833 51.5 124.5s41.333 59.167 64 82.5s42.167 39.833 58.5 49.5s27.833 14.5 34.5 14.5c14.667 0 22 -6 22 -18c0 -8.66699 -6 -16.334 -18 -23.001c-35.333 -19.333 -69.166 -49.666 -101.499 -90.999
s-56.5 -92.333 -72.5 -153c42.667 42.667 96.667 64 162 64c63.333 0 116.166 -20.333 158.499 -61s63.5 -92.334 63.5 -155.001s-21.167 -114.334 -63.5 -155.001s-95.166 -61 -158.499 -61s-116.166 20.333 -158.499 61s-63.5 92.334 -63.5 155.001zM115.998 207.002
c0 -52 16.167 -94 48.5 -126s76.166 -48 131.499 -48s99.166 16 131.499 48s48.5 74 48.5 126s-16.167 94 -48.5 126s-76.166 48 -131.499 48s-99.166 -16 -131.499 -48s-48.5 -74 -48.5 -126z" />
    <glyph glyph-name="seven" unicode="7" horiz-adv-x="592" 
d="M271 -10c-14.667 0 -22 6.33301 -22 19c0 5.33301 1.33301 11.666 4 18.999l206 566h-273c-22.667 0 -38.5 -5 -47.5 -15s-13.5 -26.667 -13.5 -50c0 -20 -7 -30 -21 -30s-21 10 -21 30c0 38.667 7.33301 66.167 22 82.5s39 24.5 73 24.5h310c14 0 21 -6 21 -18
c0 -5.33301 -1.33301 -11.666 -4 -18.999l-213 -586c-5.33301 -15.333 -12.333 -23 -21 -23z" />
    <glyph glyph-name="eight" unicode="8" horiz-adv-x="592" 
d="M116 174c0 -24 2.33008 -44.168 6.99707 -60.501s10.834 -29.166 18.501 -38.499s19 -16.5 34 -21.5s30.167 -8.16699 45.5 -9.5s35.666 -2 60.999 -2h29c31.333 0 55.833 1.16699 73.5 3.5s34.334 7.83301 50.001 16.5s26.5 22 32.5 40s9 42 9 72s-3.16699 54 -9.5 72
s-17.166 31.5 -32.499 40.5s-31.833 14.667 -49.5 17s-42.167 3.5 -73.5 3.5h-29c-32 0 -56.833 -1.16699 -74.5 -3.5s-34.167 -8 -49.5 -17s-26.166 -22.5 -32.499 -40.5s-9.5 -42 -9.5 -72zM517.997 173.999c0 -36.667 -4.66602 -66.833 -13.999 -90.5
s-23.833 -41.5 -43.5 -53.5s-41 -20 -64 -24s-51.5 -6 -85.5 -6h-29c-70.667 0 -123 11.5 -157 34.5s-51 69.5 -51 139.5c0 76.667 23.333 127.334 70 152.001c-46.667 21.333 -70 70 -70 146c0 30 3.5 55.167 10.5 75.5s15.667 36.333 26 48s25.333 20.5 45 26.5
s38.5 9.83301 56.5 11.5s41.333 2.5 70 2.5h29c28.667 0 52 -0.833008 70 -2.5s36.667 -5.5 56 -11.5s34.166 -14.833 44.499 -26.5s19 -27.667 26 -48s10.5 -45.5 10.5 -75.5c0 -76.667 -23 -125.334 -69 -146.001c46 -24 69 -74.667 69 -152zM475.998 472
c0 24 -2.49707 43.833 -7.49707 59.5s-10.833 27.667 -17.5 36s-18.334 14.5 -35.001 18.5s-31.334 6.33301 -44.001 7s-33 1 -61 1h-29c-28 0 -48.333 -0.333008 -61 -1s-27.5 -3 -44.5 -7s-28.833 -10.167 -35.5 -18.5s-12.5 -20.333 -17.5 -36s-7.5 -35.5 -7.5 -59.5
c0 -20 1.33301 -37.167 4 -51.5s7.66699 -26 15 -35s14.5 -16 21.5 -21s18.167 -8.66699 33.5 -11s28.666 -3.66602 39.999 -3.99902s28.666 -0.5 51.999 -0.5h29c23.333 0 40.5 0.166992 51.5 0.5s24.333 1.66602 40 3.99902s26.834 6 33.501 11s13.667 12 21 21
s12.333 20.667 15 35s4 31.5 4 51.5z" />
    <glyph glyph-name="nine" unicode="9" horiz-adv-x="592" 
d="M74 471c0 35.333 8.49902 65.001 25.499 89.001s39.5 41 67.5 51s53 16.667 75 20s45 5 69 5c138 0 207 -55.333 207 -166c0 -71.333 -10.167 -138 -30.5 -200s-46.833 -113.5 -79.5 -154.5s-69.334 -73.167 -110.001 -96.5s-81.667 -35 -123 -35
c-17.333 0 -26 7.33301 -26 22c0 14 8.66699 21 26 21c23.333 0 48.833 6.16699 76.5 18.5s55.834 30.666 84.501 54.999s54.667 57.833 78 100.5s40.333 90.667 51 144c-33.333 -25.333 -84.666 -38 -153.999 -38c-158 0 -237 54.667 -237 164zM310.999 594.001
c-130 0 -195 -41 -195 -123c0 -21.333 4.33301 -39.833 13 -55.5s19.167 -27.667 31.5 -36s28 -15 47 -20s36 -8 51 -9s32.5 -1.5 52.5 -1.5c110 0 165 40.333 165 121c0 82.667 -55 124 -165 124z" />
    <glyph glyph-name="colon" unicode=":" horiz-adv-x="238" 
d="M73 433c0 9.33301 5 17.666 15 24.999s20.333 11 31 11c10 0 20.167 -3.66699 30.5 -11s15.5 -15.666 15.5 -24.999s-5.16699 -17.666 -15.5 -24.999s-20.5 -11 -30.5 -11c-10.667 0 -21 3.66699 -31 11s-15 15.666 -15 24.999zM73 80c0 9.33301 5 17.666 15 24.999
s20.333 11 31 11c10 0 20.167 -3.66699 30.5 -11s15.5 -15.666 15.5 -24.999s-5.16699 -17.666 -15.5 -24.999s-20.5 -11 -30.5 -11c-10.667 0 -21 3.66699 -31 11s-15 15.666 -15 24.999z" />
    <glyph glyph-name="semicolon" unicode=";" horiz-adv-x="241" 
d="M73 433c0 9.33301 5 17.666 15 24.999s20.333 11 31 11c10 0 20.167 -3.66699 30.5 -11s15.5 -15.666 15.5 -24.999s-5.16699 -17.666 -15.5 -24.999s-20.5 -11 -30.5 -11c-10.667 0 -21 3.66699 -31 11s-15 15.666 -15 24.999zM127 112c6.66699 0 14.333 -1.66699 23 -5
s13 -8.33301 13 -15c0 -6 -1.33301 -11.667 -4 -17l-42 -83c-6 -14 -12.667 -21 -20 -21c-11.333 0 -17 6.66699 -17 20c0 4 1 9 3 15l24 86c4 13.333 10.667 20 20 20z" />
    <glyph glyph-name="less" unicode="&#x3c;" horiz-adv-x="522" 
d="M450 116c0 -4 -1.5 -8.66699 -4.5 -14s-7.83301 -8 -14.5 -8c-4.66699 0 -11 2 -19 6l-363 210c-10.667 7.33301 -16 15 -16 23s5.33301 15 16 21l363 210c6 3.33301 12 5 18 5c13.333 0 20 -6 20 -18c0 -8 -5.33301 -16 -16 -24l-339 -194l338 -196
c11.333 -6 17 -13 17 -21z" />
    <glyph glyph-name="equal" unicode="=" horiz-adv-x="458" 
d="M105 259c-17.333 0 -26 7.33301 -26 22c0 14 8.66699 21 26 21h245c19.333 0 29 -7.66699 29 -23c0 -13.333 -9.66699 -20 -29 -20h-245zM105 362c-17.333 0 -26 7.33301 -26 22c0 14 8.66699 21 26 21h245c19.333 0 29 -7.66699 29 -23c0 -13.333 -9.66699 -20 -29 -20
h-245z" />
    <glyph glyph-name="greater" unicode="&#x3e;" horiz-adv-x="522" 
d="M72 548c0 4 1.50098 8.49805 4.50098 13.498s7.83301 7.5 14.5 7.5c4.66699 0 10.667 -2 18 -6l364 -210c10.667 -7.33301 16 -14.666 16 -21.999c0 -8.66699 -5.33301 -16 -16 -22l-364 -210c-4.66699 -3.33301 -10.334 -5 -17.001 -5c-13.333 0 -20 6.33301 -20 19
c0 8.66699 5.33301 16.334 16 23.001l339 195l-338 195c-11.333 6 -17 13.333 -17 22z" />
    <glyph glyph-name="question" unicode="?" horiz-adv-x="528" 
d="M201 29c0 9.33301 5 17.666 15 24.999s20.333 11 31 11c10 0 20.167 -3.66699 30.5 -11s15.5 -15.666 15.5 -24.999s-5.16699 -17.666 -15.5 -24.999s-20.5 -11 -30.5 -11c-10.667 0 -21 3.66699 -31 11s-15 15.666 -15 24.999zM268 303l-0.000976562 -109.002
c0 -18.667 -7 -28 -21 -28s-21 9.33301 -21 28v140l153 42c18.667 5.33301 34 17.666 46 36.999s18 43 18 71c0 29.333 -8.16699 56.333 -24.5 81s-42.166 37 -77.499 37h-93c-32 0 -56.833 -1.16699 -74.5 -3.5s-34.334 -7.66602 -50.001 -15.999s-26.5 -21.5 -32.5 -39.5
s-9 -42 -9 -72c0 -18.667 -7 -28 -21 -28c-14.667 0 -22 9.33301 -22 28c0 36.667 4.66699 66.834 14 90.501s24.166 41.334 44.499 53.001s41.833 19.5 64.5 23.5s51.334 6 86.001 6h76c57.333 0 98.5 -15.667 123.5 -47s37.5 -69 37.5 -113s-9.16699 -77.667 -27.5 -101
s-50.166 -41.333 -95.499 -54z" />
    <glyph glyph-name="at" unicode="@" horiz-adv-x="584" 
d="M420 0l-141 -0.000976562c-63.333 0 -113.833 21.333 -151.5 64s-56.5 101.667 -56.5 177v154c0 75.333 18.833 134.333 56.5 177s88.167 64 151.5 64h29c63.333 0 113.833 -21.333 151.5 -64s56.5 -101.667 56.5 -177c0 -20.667 -0.333008 -37.667 -1 -51
s-2.66699 -28 -6 -44s-7.83301 -28.833 -13.5 -38.5s-13.834 -19.667 -24.501 -30s-23.667 -18.166 -39 -23.499s-34.333 -9.66602 -57 -12.999s-48.667 -5 -78 -5c-46.667 0 -78.5 10.833 -95.5 32.5s-25.5 58.167 -25.5 109.5c0 50.667 8.5 86.834 25.5 108.501
s48.833 32.5 95.5 32.5c47.333 0 79.5 -10.833 96.5 -32.5s25.5 -57.834 25.5 -108.501c0 -38 -4.33301 -67.667 -13 -89c18.667 4 32.334 10 41.001 18s15.334 22.333 20.001 43s7 51 7 91c0 62.667 -14 111.5 -42 146.5s-69.333 52.5 -124 52.5h-29
c-54.667 0 -96 -17.5 -124 -52.5s-42 -83.833 -42 -146.5v-154c0 -62.667 14 -111.5 42 -146.5s69.333 -52.5 124 -52.5h134c22.667 0 38.5 5 47.5 15s13.5 27.333 13.5 52c0 18.667 6.66699 28 20 28c14.667 0 22 -10.333 22 -31c0 -14.667 -1 -27.334 -3 -38.001
s-6 -21.667 -12 -33s-15.833 -20 -29.5 -26s-30.834 -9 -51.501 -9zM297 231.999c34.667 0 56.667 6.83301 66 20.5s14 40.167 14 79.5c0 38.667 -4.66699 64.834 -14 78.501s-31.333 20.5 -66 20.5c-34 0 -55.667 -6.83301 -65 -20.5s-14 -39.834 -14 -78.501
c0 -39.333 4.66699 -65.833 14 -79.5s31 -20.5 65 -20.5z" />
    <glyph glyph-name="A" unicode="A" horiz-adv-x="548" 
d="M44 -16c-14 0 -21.001 6.66699 -21.001 20c0 4 1 8.66699 3 14l225 618h46l225 -618c2 -5.33301 3 -10 3 -14c0 -13.333 -7 -20 -21 -20c-9.33301 0 -16.666 6.66699 -21.999 20l-72 200h-272l-72 -200c-6 -13.333 -13.333 -20 -22 -20zM153.999 246h240l-121 329z" />
    <glyph glyph-name="B" unicode="B" horiz-adv-x="584" 
d="M126 42h195c31.333 0 55.833 1.16699 73.5 3.5s34.167 8 49.5 17s26.166 22.5 32.499 40.5s9.5 42 9.5 72v29c0 30 -3.16699 54 -9.5 72s-17.166 31.5 -32.499 40.5s-31.833 14.667 -49.5 17s-42.167 3.5 -73.5 3.5h-195v-295zM84 31l-0.000976562 573.999
c0 20.667 6.33301 31 19 31h176c68.667 0 120.334 -10.667 155.001 -32s52 -60.666 52 -117.999c0 -56 -18.333 -95.667 -55 -119c32.667 -10 57 -27.667 73 -53s24 -62 24 -110v-29c0 -70 -17 -116.667 -51 -140s-86 -35 -156 -35h-218c-12.667 -0 -19 10.333 -19 31z
M278.999 378.999c60 0 102.5 7 127.5 21s37.5 42.667 37.5 86c0 44 -12.5 73 -37.5 87s-67.5 21 -127.5 21h-153v-215h153z" />
    <glyph glyph-name="C" unicode="C" horiz-adv-x="572" 
d="M421 0l-141 0.000976562c-70.667 0 -123 11.667 -157 35s-51 70 -51 140v286c0 70 17 116.667 51 140s86.333 35 157 35h141c20.667 0 37.834 -3 51.501 -9s23.334 -14.667 29.001 -26s9.5 -22.333 11.5 -33s3 -23.667 3 -39c0 -20 -7 -30 -21 -30s-21 9.33301 -21 28
c0 24 -4.33301 41.167 -13 51.5s-24.334 15.5 -47.001 15.5h-134c-32 0 -56.833 -1.16699 -74.5 -3.5s-34.167 -8 -49.5 -17s-26.166 -22.5 -32.499 -40.5s-9.5 -42 -9.5 -72v-286c0 -30 3.16699 -54 9.5 -72s17.166 -31.5 32.499 -40.5s31.833 -14.667 49.5 -17
s42.5 -3.5 74.5 -3.5h134c22.667 0 38.334 5 47.001 15s13 27.333 13 52c0 18.667 7 28 21 28s21 -10.333 21 -31c0 -14.667 -1 -27.334 -3 -38.001s-5.83301 -21.667 -11.5 -33s-15.334 -20 -29.001 -26s-30.834 -9 -51.501 -9z" />
    <glyph glyph-name="D" unicode="D" horiz-adv-x="600" 
d="M528 461v-286c0 -70 -17 -116.667 -51 -140s-86 -35 -156 -35h-218c-12.667 -0 -19 10.333 -19 31v574c0 20.667 6.33301 31 19 31h218c70 0 122 -11.667 156 -35s51 -70 51 -140zM486 175v286c0 30 -3.16699 54 -9.5 72s-17.166 31.5 -32.499 40.5
s-31.833 14.667 -49.5 17s-42.167 3.5 -73.5 3.5h-195v-552h195c31.333 0 55.833 1.16699 73.5 3.5s34.167 8 49.5 17s26.166 22.5 32.499 40.5s9.5 42 9.5 72z" />
    <glyph glyph-name="E" unicode="E" horiz-adv-x="577" 
d="M126 337v-295h373c19.333 0 29 -7.66699 29 -23c0 -12.667 -9.66699 -19 -29 -19h-396c-12.667 -0 -19 10.333 -19 31v574c0 20.667 6.33301 31 19 31h396c19.333 0 29 -7.66699 29 -23c0 -12.667 -9.66699 -19 -29 -19h-373v-215h255c20 0 30 -7.66699 30 -23
c0 -12.667 -10 -19 -30 -19h-255z" />
    <glyph glyph-name="F" unicode="F" horiz-adv-x="558" 
d="M126 23c0 -20 -7 -30 -21 -30s-21 10 -21 30v582c0 20.667 6.33301 31 19 31h396c19.333 0 29 -7.66699 29 -23c0 -12.667 -9.66699 -19 -29 -19h-373v-215h255c20 0 30 -7.66699 30 -23c0 -12.667 -10 -19 -30 -19h-255v-314z" />
    <glyph glyph-name="G" unicode="G" horiz-adv-x="585" 
d="M474 251l-133 0.00195312c-20 0 -30 6.66699 -30 20c0 14.667 10 22 30 22h175v-187c0 -14.667 -1 -27.334 -3 -38.001s-5.83301 -21.667 -11.5 -33s-15.334 -20 -29.001 -26s-30.834 -9 -51.501 -9h-141c-34.667 0 -63.334 2 -86.001 6s-44 12 -64 24s-34.667 30 -44 54
s-14 54.333 -14 91v286c0 36.667 4.66699 67 14 91s24 42 44 54s41.333 20 64 24s51.334 6 86.001 6h141c20.667 0 37.834 -3 51.501 -9s23.334 -14.667 29.001 -26s9.5 -22.333 11.5 -33s3 -23.334 3 -38.001c0 -20.667 -7 -31 -21 -31s-21 9.66699 -21 29
c0 24 -4.33301 41 -13 51s-24.334 15 -47.001 15h-134c-32 0 -56.833 -1.16699 -74.5 -3.5s-34.167 -8 -49.5 -17s-26.166 -22.5 -32.499 -40.5s-9.5 -42 -9.5 -72v-286c0 -30 3.16699 -54 9.5 -72s17.166 -31.5 32.499 -40.5s31.833 -14.667 49.5 -17s42.5 -3.5 74.5 -3.5
h134c22.667 0 38.334 5 47.001 15s13 27 13 51v143z" />
    <glyph glyph-name="H" unicode="H" horiz-adv-x="612" 
d="M126 23c0 -20 -7 -30 -21 -30s-21 10 -21 30v589c0 20.667 6.33301 31 19 31c15.333 0 23 -10.333 23 -31v-248h360v248c0 20.667 6.66699 31 20 31c14.667 0 22 -10.333 22 -31v-589c0 -20 -6.66699 -30 -20 -30c-14.667 0 -22 10 -22 30v299h-360v-299z" />
    <glyph glyph-name="I" unicode="I" horiz-adv-x="210" 
d="M126 20c0 -18 -7.33301 -27 -22 -27c-13.333 0 -20 9 -20 27v595c0 18.667 7 28 21 28s21 -9.33301 21 -28v-595z" />
    <glyph glyph-name="J" unicode="J" horiz-adv-x="530" 
d="M241 34c32 0 56.835 1.16699 74.502 3.5s34.167 8 49.5 17s26.166 22.5 32.499 40.5s9.5 42 9.5 72v448c0 18.667 7 28 21 28s21 -9.33301 21 -28v-448c0 -36.667 -4.66699 -67 -14 -91s-24 -42 -44 -54s-41.333 -20 -64 -24s-51.334 -6 -86.001 -6s-63.5 2 -86.5 6
s-44.5 12 -64.5 24s-34.667 30 -44 54s-14 54.333 -14 91c0 18.667 7.66699 28 23 28c13.333 0 20 -9.33301 20 -28c0 -57.333 12 -93.833 36 -109.5s67.333 -23.5 130 -23.5z" />
    <glyph glyph-name="K" unicode="K" horiz-adv-x="497" 
d="M494 13c0 -5.33301 -2.33203 -9.99902 -6.99902 -13.999s-9.33398 -6 -14.001 -6c-7.33301 0 -14.333 4.33301 -21 13l-268 319l-58 -70v-235c0 -18 -7.33301 -27 -22 -27c-13.333 0 -20 9 -20 27v595c0 18.667 7 28 21 28s21 -9.33301 21 -28v-294l260 309
c6.66699 8.66699 13.667 13 21 13c4.66699 0 9.16699 -1.83301 13.5 -5.5s6.5 -8.16699 6.5 -13.5c0 -6.66699 -3 -13.667 -9 -21l-206 -246l272 -324c6.66699 -6.66699 10 -13.334 10 -20.001z" />
    <glyph glyph-name="L" unicode="L" horiz-adv-x="495" 
d="M103 0c-12.667 0 -19 10.333 -19 31v584c0 18.667 7 28 21 28s21 -9.33301 21 -28v-573h318c18.667 0 28 -7.33301 28 -22c0 -13.333 -9.33301 -20 -28 -20h-341z" />
    <glyph glyph-name="M" unicode="M" horiz-adv-x="633" 
d="M316 279c-4.66699 0 -8.66699 2 -12 6l-178 272v-534c0 -20 -7 -30 -21 -30s-21 10 -21 30v589c0 20.667 6.33301 31 19 31c10 0 18.667 -5.66699 26 -17l187 -284l188 284c7.33301 11.333 15.666 17 24.999 17c13.333 0 20 -10.333 20 -31v-589
c0 -20 -7.33301 -30 -22 -30c-13.333 0 -20 10 -20 30v534l-178 -272c-3.33301 -4 -7.66602 -6 -12.999 -6z" />
    <glyph glyph-name="N" unicode="N" horiz-adv-x="612" 
d="M508 -7c-8 0 -13.333 2.33301 -16 7l-366 557v-534c0 -20 -7 -30 -21 -30s-21 10 -21 30v589c0 20.667 6.33301 31 19 31c10 0 18.667 -5.66699 26 -17l357 -542v528c0 20.667 6.66699 31 20 31c14.667 0 22 -10.333 22 -31v-589c0 -20 -6.66699 -30 -20 -30z" />
    <glyph glyph-name="O" unicode="O" horiz-adv-x="574" 
d="M287 -9c-64.667 0 -117.834 21 -159.501 63s-62.5 99.667 -62.5 173v182c0 73.333 20.833 131 62.5 173s94.834 63 159.501 63s117.834 -21 159.501 -63s62.5 -99.667 62.5 -173v-182c0 -73.333 -20.833 -131 -62.5 -173s-94.834 -63 -159.501 -63zM287 603
c-56 0 -100 -17.167 -132 -51.5s-48 -81.833 -48 -142.5v-182c0 -60.667 16 -108.167 48 -142.5s76 -51.5 132 -51.5s100 17.167 132 51.5s48 81.833 48 142.5v182c0 60.667 -16 108.167 -48 142.5s-76 51.5 -132 51.5z" />
    <glyph glyph-name="P" unicode="P" horiz-adv-x="520" 
d="M126 20c0 -18 -7.33398 -27.001 -22.001 -27.001c-13.333 0 -20 9 -20 27v585c0 20.667 6.33301 31 19 31h176c68.667 0 120.334 -10.667 155.001 -32s52 -60.666 52 -117.999c0 -48.667 -14.5 -85.667 -43.5 -111s-69.5 -38 -121.5 -38h-195v-317zM278.999 378.999
c60 0 102.5 7 127.5 21s37.5 42.667 37.5 86c0 44 -12.5 73 -37.5 87s-67.5 21 -127.5 21h-153v-215h153z" />
    <glyph glyph-name="Q" unicode="Q" horiz-adv-x="574" 
d="M287 603c-56 0 -100 -17.168 -132 -51.501s-48 -81.833 -48 -142.5v-182c0 -60.667 16 -108.167 48 -142.5s76 -51.5 132 -51.5c46 0 83.333 11.333 112 34l-58 57c-7.33301 7.33301 -11 14 -11 20c0 4.66699 2 9.33398 6 14.001s8.66699 7 14 7
c6.66699 0 13.667 -3.66699 21 -11l58 -59c25.333 33.333 38 77.333 38 132v182c0 60.667 -16 108.167 -48 142.5s-76 51.5 -132 51.5zM287 -9.00098c-64.667 0 -117.835 21 -159.502 63s-62.5 99.667 -62.5 173v182c0 73.333 20.833 131 62.5 173s94.834 63 159.501 63
s117.834 -21 159.501 -63s62.5 -99.667 62.5 -173v-182c0 -66 -17 -119.333 -51 -160l38 -38c6.66699 -6.66699 10 -13.667 10 -21c0 -4.66699 -1.83301 -9.16699 -5.5 -13.5s-8.16699 -6.5 -13.5 -6.5s-12.333 3.66699 -21 11l-37 38c-40 -30.667 -87.333 -46 -142 -46z
" />
    <glyph glyph-name="R" unicode="R" horiz-adv-x="549" 
d="M279 379c60 0 102.5 7 127.5 21s37.5 42.667 37.5 86c0 44 -12.5 73 -37.5 87s-67.5 21 -127.5 21h-153v-215h153zM126 20c0 -18 -7.33496 -27.001 -22.002 -27.001c-13.333 0 -20 9 -20 27v585c0 20.667 6.33301 31 19 31h176c68.667 0 120.334 -10.667 155.001 -32
s52 -60.666 52 -117.999c0 -42 -10.667 -75.333 -32 -100s-51.666 -40 -90.999 -46c22 -17.333 43.833 -52.166 65.5 -104.499s38 -99.333 49 -141s16.5 -66.5 16.5 -74.5c0 -18 -7.33301 -27 -22 -27c-6 0 -10.833 2.66699 -14.5 8s-5.5 11.666 -5.5 18.999
c0 9.33301 -4.66699 33 -14 71s-25.333 83 -48 135s-48 89 -76 111h-188v-317z" />
    <glyph glyph-name="S" unicode="S" horiz-adv-x="570" 
d="M104 484c0 -28 6.16699 -51.8271 18.5 -71.4941s27.5 -31.834 45.5 -36.501l217 -52c82 -20.667 123 -77.334 123 -170.001c0 -44 -12.5 -82 -37.5 -114s-66.167 -48 -123.5 -48h-76c-34.667 0 -63.5 2 -86.5 6s-44.5 12 -64.5 24s-34.667 30 -44 54s-14 54.333 -14 91
c0 18.667 7.66699 28 23 28c13.333 0 20 -9.33301 20 -28c0 -57.333 12 -93.833 36 -109.5s67.333 -23.5 130 -23.5h93c35.333 0 61.166 12.667 77.499 38s24.5 52.666 24.5 81.999c0 34 -6.83301 62 -20.5 84s-28.167 34.667 -43.5 38l-216 53
c-45.333 10.667 -77.333 28 -96 52s-28 58.333 -28 103c0 44 12.667 81.667 38 113s66.666 47 123.999 47h76c34.667 0 63.334 -2 86.001 -6s44 -11.833 64 -23.5s34.667 -29.334 44 -53.001s14 -53.834 14 -90.501c0 -18.667 -7.33301 -28 -22 -28
c-14 0 -21 9.33301 -21 28c0 30 -3 54 -9 72s-16.833 31.167 -32.5 39.5s-32.167 13.666 -49.5 15.999s-42 3.5 -74 3.5h-94c-35.333 0 -61.166 -12.5 -77.499 -37.5s-24.5 -51.833 -24.5 -80.5z" />
    <glyph glyph-name="T" unicode="T" horiz-adv-x="460" 
d="M405 636c18.667 0 28 -7.33301 28 -22c0 -13.333 -9.33301 -20 -28 -20h-154v-574c0 -18 -7.33301 -27 -22 -27c-13.333 0 -20 9 -20 27v574h-155c-18.667 0 -28 7 -28 21s9.33301 21 28 21h351z" />
    <glyph glyph-name="U" unicode="U" horiz-adv-x="598" 
d="M479 615c0 18.667 7.33496 28 22.002 28c13.333 0 20 -9.33301 20 -28v-388c0 -73.333 -20.833 -131 -62.5 -173s-94.834 -63 -159.501 -63s-117.834 21 -159.501 63s-62.5 99.667 -62.5 173v388c0 18.667 7 28 21 28s21 -9.33301 21 -28v-388
c0 -60.667 16 -108.167 48 -142.5s76 -51.5 132 -51.5s100 17.167 132 51.5s48 81.833 48 142.5v388z" />
    <glyph glyph-name="V" unicode="V" horiz-adv-x="548" 
d="M23 632c0 4.66699 1.50098 8.66699 4.50098 12s6 5.5 9 6.5s5.5 1.5 7.5 1.5c8.66699 0 16 -6.66699 22 -20l208 -572l208 572c5.33301 13.333 12.666 20 21.999 20c2 0 4.5 -0.5 7.5 -1.5s6 -3.16699 9 -6.5s4.5 -7.33301 4.5 -12c0 -4 -1 -9 -3 -15l-225 -617h-46
l-225 617c-2 6 -3 11 -3 15z" />
    <glyph glyph-name="W" unicode="W" horiz-adv-x="892" 
d="M444 652c12 0 20.333 -7.33203 25 -21.999l177 -570l176 572c5.33301 13.333 12 20 20 20c2 0 4.66699 -0.5 8 -1.5s6.66602 -3.16699 9.99902 -6.5s5 -7.33301 5 -12c0 -4 -1 -9 -3 -15l-192 -617h-50l-176 565l-175 -565h-49l-188 617
c-0.666992 2 -2.16699 4.66699 -4.5 8s-3.5 5.66602 -3.5 6.99902c0 4.66699 1.83301 8.66699 5.5 12s7.16699 5.5 10.5 6.5s6 1.5 8 1.5c8.66699 0 15 -6.66699 19 -20l178 -572l176 570c4.66699 14.667 12.334 22 23.001 22z" />
    <glyph glyph-name="X" unicode="X" horiz-adv-x="537" 
d="M481 643c4.66699 0 9.33203 -2 13.999 -6s7 -8.66699 7 -14c0 -7.33301 -2.33301 -13.666 -7 -18.999l-201 -287l201 -285c4.66699 -7.33301 7 -14 7 -20c0 -5.33301 -2.16699 -9.83301 -6.5 -13.5s-9.16602 -5.5 -14.499 -5.5c-6.66699 0 -13.667 4.66699 -21 14
l-192 274l-191 -274c-7.33301 -9.33301 -14.666 -14 -21.999 -14c-4.66699 0 -9.16699 1.83301 -13.5 5.5s-6.5 8.16699 -6.5 13.5c0 6 2.33301 12.667 7 20l201 285l-201 287c-4.66699 5.33301 -7 11.666 -7 18.999c0 5.33301 2.16699 10 6.5 14s8.83301 6 13.5 6
c7.33301 0 14.666 -5.33301 21.999 -16l191 -273l192 273c7.33301 10.667 14.333 16 21 16z" />
    <glyph glyph-name="Y" unicode="Y" horiz-adv-x="499" 
d="M229 310l-206 294c-4.66699 6.66699 -7 13 -7 19c0 5.33301 2.16699 10 6.5 14s8.83301 6 13.5 6c6.66699 0 13.667 -5.33301 21 -16l192 -273l191 273c8.66699 10.667 16 16 22 16c4.66699 0 9.16699 -2 13.5 -6s6.5 -8.66699 6.5 -14c0 -6 -2.33301 -12.333 -7 -19
l-205 -294v-290c0 -18 -7 -27 -21 -27c-13.333 0 -20 9 -20 27v290z" />
    <glyph glyph-name="Z" unicode="Z" horiz-adv-x="535" 
d="M46 0v44l396 550h-366c-20.667 0 -31 7 -31 21s10.333 21 31 21h413v-46l-394 -548h364c20 0 30 -7.33301 30 -22c0 -13.333 -10 -20 -30 -20h-413z" />
    <glyph glyph-name="bracketleft" unicode="[" horiz-adv-x="244" 
d="M200 636h-78v-636h78v-42h-120v720h120v-42z" />
    <glyph glyph-name="backslash" unicode="\" horiz-adv-x="349" 
d="M64 645c10 0 17 -6.66797 21 -20.001l218 -598c2 -7.33301 3 -12.666 3 -15.999c0 -12.667 -7.33301 -19 -22 -19c-9.33301 0 -16 6.66699 -20 20l-218 598c-2 6 -3 11.333 -3 16c0 12.667 7 19 21 19z" />
    <glyph glyph-name="bracketright" unicode="]" horiz-adv-x="244" 
d="M44 0h78v636h-78v42h120v-720h-120v42z" />
    <glyph glyph-name="asciicircum" unicode="^" horiz-adv-x="443" 
d="M223 590l-3 0.000976562l-93 -207c-6 -12 -14 -18 -24 -18c-12 0 -18 6 -18 18c0 1.33301 0.666992 4.66602 2 9.99902l108 243h54l107 -243c1.33301 -2.66699 2 -6 2 -10c0 -12 -6 -18 -18 -18c-10 0 -18 6 -24 18z" />
    <glyph glyph-name="underscore" unicode="_" horiz-adv-x="475" 
d="M28 -42c-18.667 0 -28 7.33301 -28 22c-0 13.333 9.33301 20 28 20h419c18.667 0 28 -7.33301 28 -22c0 -13.333 -9.33301 -20 -28 -20h-419z" />
    <glyph glyph-name="grave" unicode="`" horiz-adv-x="212" 
d="M34 657c0 6 2.16699 11 6.5 15s8.83301 6 13.5 6c6 0 13 -4.33301 21 -13l96 -115c5.33301 -6 8 -12.667 8 -20c0 -5.33301 -2.16699 -10 -6.5 -14s-8.83301 -6 -13.5 -6c-6 0 -13 4.33301 -21 13l-96 115c-5.33301 6 -8 12.333 -8 19z" />
    <glyph glyph-name="a" unicode="a" horiz-adv-x="534" 
d="M268 248c-32 0 -56.834 -1.16699 -74.501 -3.5s-34.167 -8 -49.5 -17s-26.166 -22.5 -32.499 -40.5s-9.5 -42 -9.5 -72c0 -18.667 6.16699 -35.5 18.5 -50.5s26.166 -22.5 41.499 -22.5h93c52.667 0 93.334 16 122.001 48s43 78 43 138v20h-152zM267.999 290
l152.001 -0.000976562v64c0 23.333 -4.33301 40 -13 50s-24.334 15 -47.001 15h-141c-78 0 -117 -21.667 -117 -65c0 -20 -7.33301 -30 -22 -30c-13.333 0 -20 10 -20 30c0 36 14.167 62.833 42.5 80.5s64.833 26.5 109.5 26.5h155c36.667 0 61.667 -9 75 -27
s20 -50.333 20 -97v-314c0 -20 -7 -30 -21 -30s-21 10 -21 30v49c-36 -48 -91 -72 -165 -72h-93c-30 0 -54.5 10.833 -73.5 32.5s-28.5 50.834 -28.5 87.501c0 28 3.33301 52.333 10 73s15.667 37.167 27 49.5s26 22 44 29s37 11.833 57 14.5s43.333 4 70 4z" />
    <glyph glyph-name="b" unicode="b" horiz-adv-x="580" 
d="M116 389c37.333 48 92.666 72 165.999 72h29c70 0 122 -11.667 156 -35s51 -70 51 -140v-111c0 -70 -17 -116.667 -51 -140s-86 -35 -156 -35h-29c-73.333 0 -128.666 24 -165.999 72v-49c0 -20 -7 -30 -21 -30s-21 10 -21 30v589c0 20.667 6.33301 31 19 31
c15.333 0 23 -10.333 23 -31v-223zM282 419c-53.333 0 -94.333 -16.167 -123 -48.5s-43 -78.5 -43 -138.5v-4c0 -60 14.333 -106 43 -138s69.667 -48 123 -48h29c31.333 0 55.833 1.16699 73.5 3.5s34.167 8 49.5 17s26.166 22.5 32.499 40.5s9.5 42 9.5 72v111
c0 30 -3.16699 54 -9.5 72s-17.166 31.5 -32.499 40.5s-31.833 14.667 -49.5 17s-42.167 3.5 -73.5 3.5h-29z" />
    <glyph glyph-name="c" unicode="c" horiz-adv-x="564" 
d="M411 0h-141c-70.667 0 -123 11.667 -157 35s-51 70 -51 140v111c0 70 17 116.667 51 140s86.333 35 157 35h141c20.667 0 37.834 -3 51.501 -9s23.334 -14.833 29.001 -26.5s9.5 -22.667 11.5 -33s3 -23.166 3 -38.499c0 -20 -7 -30 -21 -30s-21 9.33301 -21 28
c0 24 -4.33301 41.167 -13 51.5s-24.334 15.5 -47.001 15.5h-134c-32 0 -56.833 -1.16699 -74.5 -3.5s-34.167 -8 -49.5 -17s-26.166 -22.5 -32.499 -40.5s-9.5 -42 -9.5 -72v-111c0 -30 3.16699 -54 9.5 -72s17.166 -31.5 32.499 -40.5s31.833 -14.667 49.5 -17
s42.5 -3.5 74.5 -3.5h134c22.667 0 38.334 5 47.001 15s13 27.333 13 52c0 18.667 7 28 21 28s21 -10.333 21 -31c0 -14.667 -1 -27.334 -3 -38.001s-5.83301 -21.667 -11.5 -33s-15.334 -20 -29.001 -26s-30.834 -9 -51.501 -9z" />
    <glyph glyph-name="d" unicode="d" horiz-adv-x="580" 
d="M104 175c0 -30 3.16602 -54 9.49902 -72s17.166 -31.5 32.499 -40.5s31.833 -14.667 49.5 -17s42.5 -3.5 74.5 -3.5h29c52.667 0 93.334 16 122.001 48s43 78 43 138v191h-194c-32 0 -56.833 -1.16699 -74.5 -3.5s-34.167 -8 -49.5 -17s-26.166 -22.5 -32.499 -40.5
s-9.5 -42 -9.5 -72v-111zM61.999 286c0 70 17 116.667 51 140s86.333 35 157 35h194v151c0 20.667 7.66699 31 23 31c12.667 0 19 -10.333 19 -31v-589c0 -20 -7 -30 -21 -30s-21 10 -21 30v49c-36 -48 -91 -72 -165 -72h-29c-70.667 0 -123 11.667 -157 35s-51 70 -51 140
v111z" />
    <glyph glyph-name="e" unicode="e" 
d="M506 286l0.00195312 -35.999h-402v-75c0 -30 3.16699 -54 9.5 -72s17.166 -31.5 32.499 -40.5s31.833 -14.667 49.5 -17s42.5 -3.5 74.5 -3.5h134c22.667 0 38.334 5 47.001 15s13 27.333 13 52c0 18.667 7 28 21 28s21 -10.333 21 -31c0 -14.667 -1 -27.334 -3 -38.001
s-5.83301 -21.667 -11.5 -33s-15.334 -20 -29.001 -26s-30.834 -9 -51.501 -9h-141c-70.667 0 -123 11.667 -157 35s-51 70 -51 140v111c0 70 17 116.667 51 140s86.333 35 157 35h29c70 0 122 -11.667 156 -35s51 -70 51 -140zM299.002 419.001h-28.999
c-61.333 0 -104.333 -7.66699 -129 -23s-37 -50 -37 -104h360c0 54 -12.333 88.667 -37 104s-67.334 23 -128.001 23z" />
    <glyph glyph-name="f" unicode="f" horiz-adv-x="313" 
d="M287 594c-32 0 -56.835 -1.16699 -74.502 -3.5s-34.167 -8 -49.5 -17s-26.166 -22.5 -32.499 -40.5s-9.5 -42 -9.5 -72h143c20.667 0 31 -7.66699 31 -23c0 -12.667 -10.333 -19 -31 -19h-143v-395c0 -20.667 -7.66699 -31 -23 -31c-12.667 0 -19 10.333 -19 31v395
c-20.667 0 -31 7.33301 -31 22c0 13.333 10.333 20 31 20c0 37.333 4.66699 67.833 14 91.5s24 41.5 44 53.5s41.333 20 64 24s51.334 6 86.001 6c20.667 0 31 -7.66699 31 -23c0 -12.667 -10.333 -19 -31 -19z" />
    <glyph glyph-name="g" unicode="g" horiz-adv-x="581" 
d="M62 286c0 70 17 116.668 51 140.001s86.333 35 157 35h29c74 0 129 -24 165 -72v49c0 20 7 30 21 30s21 -10 21 -30v-530c0 -42.667 -6 -72.167 -18 -88.5s-34.667 -24.5 -68 -24.5h-263c-20.667 0 -37.834 3 -51.501 9s-23.334 14.833 -29.001 26.5
s-9.5 22.667 -11.5 33s-3 23.166 -3 38.499c0 20 7 30 21 30s21 -9.33301 21 -28c0 -24 4.33301 -41.167 13 -51.5s24.334 -15.5 47.001 -15.5h249c20.667 0 34.334 3.83301 41.001 11.5s10 22.167 10 43.5v117c-13.333 -6 -31 -9 -53 -9h-141
c-70.667 0 -123 11.667 -157 35s-51 70 -51 140v111zM104 175.001c0 -30 3.16699 -54 9.5 -72s17.166 -31.5 32.499 -40.5s31.833 -14.667 49.5 -17s42.5 -3.5 74.5 -3.5h134c22.667 0 38.334 4.83301 47.001 14.5s13 26.167 13 49.5v126c0 60 -14.333 106.167 -43 138.5
s-69.334 48.5 -122.001 48.5h-29c-32 0 -56.833 -1.16699 -74.5 -3.5s-34.167 -8 -49.5 -17s-26.166 -22.5 -32.499 -40.5s-9.5 -42 -9.5 -72v-111z" />
    <glyph glyph-name="h" unicode="h" horiz-adv-x="588" 
d="M282 419c-53.333 0 -94.333 -16.167 -123 -48.5s-43 -78.5 -43 -138.5v-209c0 -20 -7 -30 -21 -30s-21 10 -21 30v589c0 20.667 6.33301 31 19 31c15.333 0 23 -10.333 23 -31v-223c37.333 48 92.666 72 165.999 72h29c70 0 122 -11.667 156 -35s51 -70 51 -140v-263
c0 -20 -6.66699 -30 -20 -30c-14.667 0 -22 10 -22 30v263c0 30 -3.16699 54 -9.5 72s-17.166 31.5 -32.499 40.5s-31.833 14.667 -49.5 17s-42.167 3.5 -73.5 3.5h-29z" />
    <glyph glyph-name="i" unicode="i" horiz-adv-x="190" 
d="M49 601c0 9.33301 5 17.666 15 24.999s20.333 11 31 11c10 0 20.167 -3.66699 30.5 -11s15.5 -15.666 15.5 -24.999s-5.16699 -17.666 -15.5 -24.999s-20.5 -11 -30.5 -11c-10.667 0 -21 3.66699 -31 11s-15 15.666 -15 24.999zM116 20c0 -18 -7.33301 -27 -22 -27
c-13.333 0 -20 9 -20 27v420c0 18.667 7 28 21 28s21 -9.33301 21 -28v-420z" />
    <glyph glyph-name="j" unicode="j" horiz-adv-x="192" 
d="M50 601c0 9.33301 5.16699 17.666 15.5 24.999s20.5 11 30.5 11c10.667 0 21 -3.66699 31 -11s15 -15.666 15 -24.999s-5 -17.666 -15 -24.999s-20.333 -11 -31 -11c-10 0 -20.167 3.66699 -30.5 11s-15.5 15.666 -15.5 24.999zM117 0
c0 -37.333 -4.66504 -68 -13.998 -92s-24 -41.833 -44 -53.5s-41.333 -19.5 -64 -23.5s-51.334 -6 -86.001 -6c-20.667 0 -31 7.33301 -31 22c0 13.333 10.333 20 31 20c32 0 56.833 1.16699 74.5 3.5s34.167 8 49.5 17s26.166 22.5 32.499 40.5s9.5 42 9.5 72v437
c0 20.667 7.33301 31 22 31c13.333 0 20 -10.333 20 -31v-437z" />
    <glyph glyph-name="k" unicode="k" horiz-adv-x="433" 
d="M421 14c0 -4.66699 -1.83301 -9.16699 -5.5 -13.5s-8.16699 -6.5 -13.5 -6.5c-6.66699 0 -13.667 3.66699 -21 11l-231 232l-34 -34v-183c0 -18 -7.33301 -27 -22 -27c-13.333 0 -20 9 -20 27v595c0 18.667 7 28 21 28s21 -9.33301 21 -28v-353l192 193
c8.66699 7.33301 15.667 11 21 11c4.66699 0 9.16699 -2 13.5 -6s6.5 -9 6.5 -15s-3.66699 -12.667 -11 -20l-159 -159l232 -231c6.66699 -6.66699 10 -13.667 10 -21z" />
    <glyph glyph-name="l" unicode="l" horiz-adv-x="260" 
d="M192 0h-7.00098c-36.667 0 -61.667 9 -75 27s-20 50.333 -20 97v489c0 20 7 30 21 30s21 -10 21 -30v-507c0 -23.333 4.33301 -39.833 13 -49.5s24.334 -14.5 47.001 -14.5c20 0 30 -7.33301 30 -22c0 -13.333 -10 -20 -30 -20z" />
    <glyph glyph-name="m" unicode="m" horiz-adv-x="812" 
d="M251 419c-42.667 0 -75.8262 -16.167 -99.4932 -48.5s-35.5 -78.5 -35.5 -138.5v-209c0 -20 -7 -30 -21 -30s-21 10 -21 30v414c0 20.667 6.33301 31 19 31c15.333 0 23 -10.333 23 -31v-48c20 26 39.667 44.5 59 55.5s44.666 16.5 75.999 16.5
c44.667 0 80.667 -6 108 -18s46.666 -35 57.999 -69c31.333 58 80 87 146 87c59.333 0 103.833 -11.667 133.5 -35s44.5 -70 44.5 -140v-263c0 -20 -7 -30 -21 -30s-21 10 -21 30v263c0 30 -2.33301 54 -7 72s-13.334 31.5 -26.001 40.5s-26.334 14.667 -41.001 17
s-35.334 3.5 -62.001 3.5c-42.667 0 -75.834 -16.167 -99.501 -48.5s-35.5 -78.5 -35.5 -138.5v-209c0 -20 -6.66699 -30 -20 -30c-14.667 0 -22 10 -22 30v263c0 30 -2.33301 54 -7 72s-13.334 31.5 -26.001 40.5s-26.167 14.667 -40.5 17s-34.833 3.5 -61.5 3.5z" />
    <glyph glyph-name="n" unicode="n" horiz-adv-x="587" 
d="M282 419c-53.333 0 -94.333 -16.167 -123 -48.5s-43 -78.5 -43 -138.5v-209c0 -20 -7 -30 -21 -30s-21 10 -21 30v414c0 20.667 6.33301 31 19 31c15.333 0 23 -10.333 23 -31v-48c37.333 48 92.666 72 165.999 72h29c70 0 122 -11.667 156 -35s51 -70 51 -140v-263
c0 -20 -6.66699 -30 -20 -30c-14.667 0 -22 10 -22 30v263c0 30 -3.16699 54 -9.5 72s-17.166 31.5 -32.499 40.5s-31.833 14.667 -49.5 17s-42.167 3.5 -73.5 3.5h-29z" />
    <glyph glyph-name="o" unicode="o" horiz-adv-x="568" 
d="M299 0h-29c-70.667 0 -123 11.667 -157 35s-51 70 -51 140v111c0 70 17 116.667 51 140s86.333 35 157 35h29c70 0 122 -11.667 156 -35s51 -70 51 -140v-111c0 -70 -17 -116.667 -51 -140s-86 -35 -156 -35zM270 42h29c31.333 0 55.833 1.16699 73.5 3.5
s34.167 8 49.5 17s26.166 22.5 32.499 40.5s9.5 42 9.5 72v111c0 30 -3.16699 54 -9.5 72s-17.166 31.5 -32.499 40.5s-31.833 14.667 -49.5 17s-42.167 3.5 -73.5 3.5h-29c-32 0 -56.833 -1.16699 -74.5 -3.5s-34.167 -8 -49.5 -17s-26.166 -22.5 -32.499 -40.5
s-9.5 -42 -9.5 -72v-111c0 -30 3.16699 -54 9.5 -72s17.166 -31.5 32.499 -40.5s31.833 -14.667 49.5 -17s42.5 -3.5 74.5 -3.5z" />
    <glyph glyph-name="p" unicode="p" horiz-adv-x="581" 
d="M477 286c0 30 -3.16699 54 -9.5 72s-17.166 31.5 -32.499 40.5s-31.833 14.667 -49.5 17s-42.167 3.5 -73.5 3.5h-29c-53.333 0 -94.333 -16.167 -123 -48.5s-43 -78.5 -43 -138.5v-190h195c31.333 0 55.833 1.16699 73.5 3.5s34.167 8 49.5 17s26.166 22.5 32.499 40.5
s9.5 42 9.5 72v111zM519 175c0 -70 -16.999 -116.667 -50.999 -140s-86 -35 -156 -35h-195v-152c0 -20 -7.66699 -30 -23 -30c-12.667 0 -19 10 -19 30v590c0 20 7 30 21 30s21 -10 21 -30v-49c37.333 48 92.666 72 165.999 72h29c70 0 122 -11.667 156 -35s51 -70 51 -140
v-111z" />
    <glyph glyph-name="q" unicode="q" horiz-adv-x="581" 
d="M104 286l0.000976562 -111c0 -30 3.16699 -54 9.5 -72s17.166 -31.5 32.499 -40.5s31.833 -14.667 49.5 -17s42.5 -3.5 74.5 -3.5h194v190c0 60 -14.333 106.167 -43 138.5s-69.334 48.5 -122.001 48.5h-29c-32 0 -56.833 -1.16699 -74.5 -3.5s-34.167 -8 -49.5 -17
s-26.166 -22.5 -32.499 -40.5s-9.5 -42 -9.5 -72zM62.001 175v111c0 70 17 116.667 51 140s86.333 35 157 35h29c74 0 129 -24 165 -72v49c0 20 7 30 21 30s21 -10 21 -30v-590c0 -20 -6.33301 -30 -19 -30c-15.333 0 -23 10 -23 30v152h-194c-70.667 0 -123 11.667 -157 35
s-51 70 -51 140z" />
    <glyph glyph-name="r" unicode="r" horiz-adv-x="372" 
d="M282 419c-53.333 0 -94.332 -16.167 -122.999 -48.5s-43 -78.5 -43 -138.5v-209c0 -20 -7 -30 -21 -30s-21 10 -21 30v414c0 20.667 6.33301 31 19 31c15.333 0 23 -10.333 23 -31v-48c37.333 48 92.666 72 165.999 72h46c20 0 30 -7 30 -21s-10 -21 -30 -21h-46z" />
    <glyph glyph-name="s" unicode="s" 
d="M155 0c-20.667 0 -37.834 2.99805 -51.501 8.99805s-23.334 14.667 -29.001 26s-9.5 22.333 -11.5 33s-3 23.334 -3 38.001c0 20.667 7 31 21 31s21 -9.33301 21 -28c0 -24.667 4.33301 -42 13 -52s24.334 -15 47.001 -15h238c42.667 0 64 27 64 81
c0 28 -6 50.333 -18 67s-27.333 25 -46 25h-216c-82.667 0 -124 42.667 -124 128c0 38.667 9.5 68 28.5 88s50.833 30 95.5 30h225c20.667 0 37.834 -3 51.501 -9s23.334 -14.833 29.001 -26.5s9.5 -22.667 11.5 -33s3 -23.166 3 -38.499c0 -20 -7 -30 -21 -30
s-21 9.33301 -21 28c0 24 -4.33301 41.167 -13 51.5s-24.334 15.5 -47.001 15.5h-236c-42.667 0 -64 -25.333 -64 -76c0 -27.333 6 -48.5 18 -63.5s27.333 -22.5 46 -22.5h217c82 0 123 -44.667 123 -134c0 -82 -41 -123 -123 -123h-228z" />
    <glyph glyph-name="t" unicode="t" horiz-adv-x="330" 
d="M119 175c0 -30 3.16797 -54.001 9.50098 -72.001s17.166 -31.5 32.499 -40.5s31.833 -14.667 49.5 -17s42.5 -3.5 74.5 -3.5c20 0 30 -6.33301 30 -19c0 -15.333 -10 -23 -30 -23c-34 0 -62.667 2.16699 -86 6.5s-44.833 12.5 -64.5 24.5s-34.167 29.833 -43.5 53.5
s-14 53.834 -14 90.501v244c-20.667 0 -31 7.33301 -31 22c0 13.333 10.333 20 31 20v109c0 20.667 6.33301 31 19 31c15.333 0 23 -10.333 23 -31v-109h143c20.667 0 31 -7.66699 31 -23c0 -12.667 -10.333 -19 -31 -19h-143v-244z" />
    <glyph glyph-name="u" unicode="u" horiz-adv-x="588" 
d="M307 42c52.667 0 93.334 16 122.001 48s43 78 43 138v210c0 20 7 30 21 30s21 -10 21 -30v-414c0 -20.667 -6.33301 -31 -19 -31c-15.333 0 -23 10.333 -23 31v48c-36 -48 -91 -72 -165 -72h-29c-70.667 0 -123 11.667 -157 35s-51 70 -51 140v263c0 20 6.66699 30 20 30
c14.667 0 22 -10 22 -30v-263c0 -30 3.16699 -54 9.5 -72s17.166 -31.5 32.499 -40.5s31.833 -14.667 49.5 -17s42.5 -3.5 74.5 -3.5h29z" />
    <glyph glyph-name="v" unicode="v" horiz-adv-x="499" 
d="M212 0l-181 439.001c-2 1.33301 -3 4.66602 -3 9.99902s1.83301 9.83301 5.5 13.5s8.16699 5.5 13.5 5.5c10 0 17.667 -6.33301 23 -19l173 -403h7l180 404c6 12 13.667 18 23 18c12.667 0 19 -6 19 -18c0 -5.33301 -1 -9 -3 -11l-193 -439h-64z" />
    <glyph glyph-name="w" unicode="w" horiz-adv-x="771" 
d="M408 450l137.999 -403.998h6l145 404c4 12 9.66699 18 17 18c5.33301 0 11.166 -1.83301 17.499 -5.5s9.5 -7.83398 9.5 -12.501c0 -5.33301 -1 -9 -3 -11l-155 -439h-71l-126 384l-136 -384h-71l-145 439c-2 1.33301 -3 4.66602 -3 9.99902c0 4.66699 3.33301 9 10 13
s12.334 6 17.001 6c6.66699 0 12.334 -6.33301 17.001 -19l139 -403h6l144 404c2 11.333 9.66699 17 23 17c10.667 0 17.667 -5.66699 21 -17z" />
    <glyph glyph-name="x" unicode="x" horiz-adv-x="488" 
d="M450 8c0 -5.33301 -2.16699 -9.83301 -6.5 -13.5s-8.83301 -5.5 -13.5 -5.5c-6.66699 0 -13.334 4 -20.001 12l-165 197l-166 -197c-7.33301 -8 -14.333 -12 -21 -12c-4.66699 0 -9.16699 1.83301 -13.5 5.5s-6.5 8.16699 -6.5 13.5s3 12.333 9 21l170 201l-170 203
c-6 7.33301 -9 14 -9 20c0 5.33301 2.16699 9.83301 6.5 13.5s8.83301 5.5 13.5 5.5c6.66699 0 13.667 -4 21 -12l166 -197l165 197c6.66699 8 13.334 12 20.001 12c4.66699 0 9.16699 -1.83301 13.5 -5.5s6.5 -8.16699 6.5 -13.5c0 -6 -3 -12.667 -9 -20l-170 -203
l170 -201c6 -8.66699 9 -15.667 9 -21z" />
    <glyph glyph-name="y" unicode="y" horiz-adv-x="589" 
d="M514 -92c0 -42.667 -6 -72.166 -18 -88.499s-34.667 -24.5 -68 -24.5h-263c-20.667 0 -37.834 3 -51.501 9s-23.334 14.833 -29.001 26.5s-9.5 22.667 -11.5 33s-3 23.166 -3 38.499c0 20 7 30 21 30s21 -9.33301 21 -28c0 -24 4.33301 -41.167 13 -51.5
s24.334 -15.5 47.001 -15.5h249c20.667 0 34.334 3.83301 41.001 11.5s10 22.167 10 43.5v180c-36 -48 -91 -72 -165 -72h-29c-70.667 0 -123 11.667 -157 35s-51 70 -51 140v261c0 21.333 7 32 21 32s21 -10.667 21 -32v-261c0 -30 3.16699 -54 9.5 -72
s17.166 -31.5 32.499 -40.5s31.833 -14.667 49.5 -17s42.5 -3.5 74.5 -3.5h29c52.667 0 93.334 16 122.001 48s43 78 43 138v208c0 21.333 7.33301 32 22 32c13.333 0 20 -10.667 20 -32v-528z" />
    <glyph glyph-name="z" unicode="z" horiz-adv-x="530" 
d="M108 42l269 -0.000976562c18.667 0 32.667 4.16699 42 12.5s14.833 17.333 16.5 27s2.5 23.834 2.5 42.501c0 20.667 7 31 21 31s21 -10.333 21 -31c0 -46.667 -6.83301 -79 -20.5 -97s-38.5 -27 -74.5 -27h-327v59l354 360h-252c-26 0 -42.5 -6.83301 -49.5 -20.5
s-10.5 -34.167 -10.5 -61.5c0 -20.667 -7.33301 -31 -22 -31c-13.333 0 -20 10.333 -20 31c0 46.667 6.66699 79 20 97s38.333 27 75 27h306v-62z" />
    <glyph glyph-name="braceleft" unicode="{" horiz-adv-x="250" 
d="M76 317c6 -2.66699 13.1689 -6.50195 21.502 -11.502s19.5 -14.667 33.5 -29s21 -27.833 21 -40.5c0 -17.333 -4.66699 -41 -14 -71s-14 -49 -14 -57c0 -46 4.33301 -75.5 13 -88.5s30.334 -19.5 65.001 -19.5v-42c-44 0 -75 10.167 -93 30.5s-27 60.166 -27 119.499
c0 12 4.66699 33.167 14 63.5s14 51.833 14 64.5s-6.33301 25.834 -19 39.501s-25.334 23.834 -38.001 30.501l-19 11c6 2.66699 13.167 6.66699 21.5 12s19.5 15.333 33.5 30s21 28.334 21 41.001s-4.66699 34.167 -14 64.5s-14 51.5 -14 63.5
c0 59.333 9 99.166 27 119.499s49 30.5 93 30.5v-42c-34.667 0 -56.334 -6.66699 -65.001 -20s-13 -42.666 -13 -87.999c0 -8 4.66699 -27.167 14 -57.5s14 -53.833 14 -70.5c0 -12.667 -6.33301 -26 -19 -40s-25.334 -24.667 -38.001 -32z" />
    <glyph glyph-name="bar" unicode="|" horiz-adv-x="204" 
d="M123 20c0 -18 -7.33301 -27 -22 -27c-13.333 0 -20 9 -20 27v595c0 18.667 7 28 21 28s21 -9.33301 21 -28v-595z" />
    <glyph glyph-name="braceright" unicode="}" horiz-adv-x="251" 
d="M174 318c-6 2.66699 -13.1689 6.66602 -21.502 11.999s-19.5 15.166 -33.5 29.499s-21 27.833 -21 40.5c0 16.667 4.66699 40.167 14 70.5s14 49.5 14 57.5c0 45.333 -4.33301 74.666 -13 87.999s-30.334 20 -65.001 20v42c44 0 75 -10.167 93 -30.5
s27 -60.166 27 -119.499c0 -12 -4.66699 -33.167 -14 -63.5s-14 -51.833 -14 -64.5s6.33301 -25.834 19 -39.501s25.334 -24.167 38.001 -31.5l19 -11c-6 -2.66699 -13.167 -6.66699 -21.5 -12s-19.5 -15.166 -33.5 -29.499s-21 -27.833 -21 -40.5s4.66699 -34.167 14 -64.5
s14 -51.5 14 -63.5c0 -59.333 -9 -99.166 -27 -119.499s-49 -30.5 -93 -30.5v42c34.667 0 56.334 6.5 65.001 19.5s13 42.5 13 88.5c0 8 -4.66699 27 -14 57s-14 53.667 -14 71c0 12.667 6.33301 25.834 19 39.501s25.334 24.167 38.001 31.5z" />
    <glyph glyph-name="asciitilde" unicode="~" horiz-adv-x="418" 
d="M256 231c2.66699 -1.33301 5.00195 -2.00098 7.00195 -2.00098c2.66699 0 6.33398 1.66699 11.001 5l31 28c7.33301 5.33301 13.666 8 18.999 8s10.166 -1.66699 14.499 -5s6.5 -7.66602 6.5 -12.999c0 -8 -4 -15.667 -12 -23l-47 -39c-4.66699 -4.66699 -10 -7 -16 -7
c-2.66699 0 -6 0.666992 -10 2l-98 36c-2.66699 1.33301 -5.33398 2 -8.00098 2s-6.33398 -1.66699 -11.001 -5l-31 -28c-7.33301 -5.33301 -13.666 -8 -18.999 -8c-4.66699 0 -9.16699 1.83301 -13.5 5.5s-6.5 8.16699 -6.5 13.5c0 8.66699 4 16 12 22l47 39
c3.33301 4.66699 8.33301 7 15 7c2 0 5.66699 -0.666992 11 -2z" />
    <glyph glyph-name="exclamdown" unicode="&#xa1;" horiz-adv-x="218" 
d="M130 -138c0 -18 -7.33301 -27 -22 -27c-13.333 0 -20 9 -20 27v420c0 18.667 7 28 21 28s21 -9.33301 21 -28v-420zM62 450c0 9.33301 5.16699 17.666 15.5 24.999s20.5 11 30.5 11c10.667 0 21.167 -3.66699 31.5 -11s15.5 -15.666 15.5 -24.999
s-5.16699 -17.666 -15.5 -24.999s-20.833 -11 -31.5 -11c-10 0 -20.167 3.66699 -30.5 11s-15.5 15.666 -15.5 24.999z" />
    <glyph glyph-name="cent" unicode="&#xa2;" horiz-adv-x="471" 
d="M261 20c0 -18 -7.33301 -27 -22 -27c-13.333 0 -20 9 -20 27v104c-56.667 2.66699 -99 16.334 -127 41.001s-42 69 -42 133v42c0 63.333 14.167 107.5 42.5 132.5s70.5 38.833 126.5 41.5v101c0 18.667 7.33301 28 22 28c13.333 0 20 -9.33301 20 -28v-100h57
c38.667 0 64.334 -9.66699 77.001 -29s19 -45 19 -77c0 -20.667 -7.33301 -31 -22 -31c-13.333 0 -20 9.66699 -20 29c0 24 -4.5 41 -13.5 51s-24.833 15 -47.5 15h-50v-308h48c22.667 0 38.5 5 47.5 15s13.5 27 13.5 51c0 19.333 6.66699 29 20 29
c14.667 0 22 -10.333 22 -31c0 -14.667 -1 -27.334 -3 -38.001s-6 -21.667 -12 -33s-15.833 -20 -29.5 -26s-30.834 -9 -51.501 -9h-55v-103zM219 166v305.999c-45.333 -1.33301 -77.833 -11.166 -97.5 -29.499s-29.5 -52.5 -29.5 -102.5v-42
c0 -51.333 9.5 -85.833 28.5 -103.5s51.833 -27.167 98.5 -28.5z" />
    <glyph glyph-name="sterling" unicode="&#xa3;" horiz-adv-x="491" 
d="M82 0c-11.333 0 -17.001 7.66895 -17.001 23.002c0 3.33301 0.333008 6 1 8l38 437c3.33301 36.667 10.333 67.167 21 91.5s24.834 42.166 42.501 53.499s35.334 19.166 53.001 23.499s38.5 6.5 62.5 6.5c46 0 82.167 -9.83301 108.5 -29.5s39.5 -57.167 39.5 -112.5
c0 -18.667 -7.33301 -28 -22 -28c-13.333 0 -20 9.33301 -20 28c0 22.667 -2.66699 41.167 -8 55.5s-13.833 24.5 -25.5 30.5s-22.834 9.83301 -33.501 11.5s-25 2.5 -43 2.5c-40 0 -71 -8.33301 -93 -25s-35.333 -52.667 -40 -108l-9 -104h39c18 0 27 -7.33301 27 -22
c0 -13.333 -9 -20 -27 -20h-43l-24 -280h296c18.667 0 28 -7.33301 28 -22c0 -13.333 -9.33301 -20 -28 -20h-323z" />
    <glyph glyph-name="currency" unicode="&#xa4;" horiz-adv-x="493" 
d="M137 230c0 -30 10.667 -55.667 32 -77s47.333 -32 78 -32c30 0 55.667 10.667 77 32s32 47 32 77c0 30.667 -10.667 56.667 -32 78s-47 32 -77 32c-30.667 0 -56.667 -10.667 -78 -32s-32 -47.333 -32 -78zM131 145c-18.667 24.667 -27.998 53 -27.998 85
c0 32.667 9.33301 61 28 85l-48 49c-7.33301 7.33301 -11 14 -11 20c0 4.66699 2.16699 9.16699 6.5 13.5s8.83301 6.5 13.5 6.5c6 0 12.667 -3.66699 20 -11l49 -48c24.667 19.333 53.334 29 86.001 29c32 0 60.333 -9.66699 85 -29l48 48c7.33301 7.33301 14.333 11 21 11
c4 0 8.33301 -1.83301 13 -5.5s7 -8.16699 7 -13.5c0 -7.33301 -4 -14.333 -12 -21l-48 -49c19.333 -23.333 29 -51.666 29 -84.999c0 -32 -9.66699 -60.333 -29 -85l48 -48c8 -7.33301 12 -14 12 -20c0 -4.66699 -2.33301 -9.33398 -7 -14.001s-9.33398 -7 -14.001 -7
c-6.66699 0 -13.334 4 -20.001 12l-48 48c-24.667 -19.333 -53 -29 -85 -29c-32.667 0 -61.334 9.66699 -86.001 29l-49 -48c-6.66699 -8 -13.667 -12 -21 -12c-4 0 -8.16699 1.83301 -12.5 5.5s-6.5 8.5 -6.5 14.5c0 6.66699 3.66699 13.667 11 21z" />
    <glyph glyph-name="yen" unicode="&#xa5;" horiz-adv-x="529" 
d="M245 310l-206 294c-4.66699 6.66699 -7 13 -7 19c0 5.33301 2.16699 10 6.5 14s8.83301 6 13.5 6c6.66699 0 13.667 -5.33301 21 -16l192 -273l191 273c8.66699 10.667 16 16 22 16c4.66699 0 9.16699 -2 13.5 -6s6.5 -8.66699 6.5 -14c0 -6 -2.33301 -12.333 -7 -19
l-205 -294v-38h99c18.667 0 28 -7.33301 28 -22c0 -14 -9.33301 -21 -28 -21h-99v-46h99c18.667 0 28 -7.33301 28 -22c0 -14 -9.33301 -21 -28 -21h-99v-120c0 -18 -7 -27 -21 -27c-13.333 0 -20 9 -20 27v120h-105c-18 0 -27 7.66699 -27 23c0 13.333 9 20 27 20h105v46
h-105c-18 0 -27 7.66699 -27 23c0 13.333 9 20 27 20h105v38z" />
    <glyph glyph-name="brokenbar" unicode="&#xa6;" horiz-adv-x="207" 
d="M83 616c0 18 7 27 21 27c13.333 0 20 -9 20 -27v-215c0 -18.667 -7.33301 -28 -22 -28c-12.667 0 -19 9.33301 -19 28v215zM83 237c0 17.333 7 26 21 26c13.333 0 20 -8.66699 20 -26v-215c0 -19.333 -7.33301 -29 -22 -29c-12.667 0 -19 9.66699 -19 29v215z" />
    <glyph glyph-name="section" unicode="&#xa7;" horiz-adv-x="510" 
d="M435 289c0 -51.333 -17.668 -82.6689 -53.001 -94.002c35.333 -16.667 53 -48.667 53 -96c0 -66 -33.333 -99 -100 -99h-184c-22 0 -38.833 4.66699 -50.5 14s-18.834 19.5 -21.501 30.5s-4 24.833 -4 41.5s7.33301 25 22 25c5.33301 0 10 -2 14 -6s6 -9.66699 6 -17
c0 -19.333 2.83301 -31.833 8.5 -37.5s17.834 -8.5 36.501 -8.5h184c18 0 30.333 4.5 37 13.5s10 23.5 10 43.5c0 46 -14.333 71 -43 75l-175 25c-66.667 9.33301 -100 45 -100 107c0 50.667 17.667 81.667 53 93c-35.333 16.667 -53 48.667 -53 96c0 66 33.333 99 100 99
h185c16.667 0 30.334 -2.33301 41.001 -7s18.334 -11.667 23.001 -21s7.66699 -18.333 9 -27s2 -19 2 -31c0 -16.667 -7 -25 -21 -25s-21 7.66699 -21 23c0 19.333 -2.83301 31.833 -8.5 37.5s-17.834 8.5 -36.501 8.5h-184c-18 0 -30.333 -4.66699 -37 -14
s-10 -23.666 -10 -42.999c0 -46 14.333 -71 43 -75l175 -25c66.667 -9.33301 100 -44.666 100 -105.999zM116.999 305.997c0 -28.667 18.333 -50.001 55 -64.001s81.667 -21 135 -21c35.333 0 58.5 3.66699 69.5 11s16.5 26.333 16.5 57c0 28.667 -18.333 49.834 -55 63.501
s-81.667 20.5 -135 20.5c-35.333 0 -58.5 -3.66699 -69.5 -11s-16.5 -26 -16.5 -56z" />
    <glyph glyph-name="dieresis" unicode="&#xa8;" horiz-adv-x="367" 
d="M211 630c0 9.33301 5 17.666 15 24.999s20.333 11 31 11c10 0 20.167 -3.66699 30.5 -11s15.5 -15.666 15.5 -24.999s-5.16699 -17.666 -15.5 -24.999s-20.5 -11 -30.5 -11c-10.667 0 -21 3.66699 -31 11s-15 15.666 -15 24.999zM65 630c0 9.33301 5 17.666 15 24.999
s20.333 11 31 11c10 0 20.167 -3.66699 30.5 -11s15.5 -15.666 15.5 -24.999s-5.16699 -17.666 -15.5 -24.999s-20.5 -11 -30.5 -11c-10.667 0 -21 3.66699 -31 11s-15 15.666 -15 24.999z" />
    <glyph glyph-name="copyright" unicode="&#xa9;" horiz-adv-x="604" 
d="M347 219l-50 -0.00195312c-24.667 0 -45.834 6.66699 -63.501 20s-26.5 33 -26.5 59v39c0 26 8.83301 45.667 26.5 59s38.834 20 63.501 20h50c13.333 0 24 -3.5 32 -10.5s13 -14 15 -21s3 -14.5 3 -22.5c0 -7.33301 -5 -11 -15 -11c-9.33301 0 -14 3.33301 -14 10
c0 16 -7.66699 24 -23 24h-48c-16.667 0 -30.834 -4.16699 -42.501 -12.5s-17.5 -20.166 -17.5 -35.499v-39c0 -15.333 5.83301 -27.166 17.5 -35.499s25.834 -12.5 42.501 -12.5h48c15.333 0 23 7.66699 23 23c0 7.33301 4.66699 11 14 11c10 0 15 -4 15 -12
c0 -7.33301 -1 -14.5 -3 -21.5s-7 -14 -15 -21s-18.667 -10.5 -32 -10.5zM317 86.998h-29c-70.667 0 -123 11.667 -157 35s-51 70 -51 140v111c0 70 17 116.667 51 140s86.333 35 157 35h29c70 0 122 -11.667 156 -35s51 -70 51 -140v-111c0 -70 -17 -116.667 -51 -140
s-86 -35 -156 -35zM288 128.998h29c31.333 0 55.833 1.16699 73.5 3.5s34.167 8 49.5 17s26.166 22.5 32.499 40.5s9.5 42 9.5 72v111c0 30 -3.16699 54 -9.5 72s-17.166 31.5 -32.499 40.5s-31.833 14.667 -49.5 17s-42.167 3.5 -73.5 3.5h-29
c-32 0 -56.833 -1.16699 -74.5 -3.5s-34.167 -8 -49.5 -17s-26.166 -22.5 -32.499 -40.5s-9.5 -42 -9.5 -72v-111c0 -30 3.16699 -54 9.5 -72s17.166 -31.5 32.499 -40.5s31.833 -14.667 49.5 -17s42.5 -3.5 74.5 -3.5z" />
    <glyph glyph-name="ordfeminine" unicode="&#xaa;" horiz-adv-x="376" 
d="M89 164c-14 0 -21 6 -21 18c0 11.333 7 17 21 17h196c15.333 0 23 -6.33301 23 -19c0 -10.667 -7.66699 -16 -23 -16h-196zM252 354l-62 0.000976562c-24.667 0 -41.834 -2.83301 -51.501 -8.5s-14.5 -17.834 -14.5 -36.501c0 -7.33301 2.33301 -14 7 -20
s10.334 -9 17.001 -9h37c21.333 0 37.833 6.33301 49.5 19s17.5 31 17.5 55zM190 385.001h62v19c0 9.33301 -1.83301 16 -5.5 20s-10.167 6 -19.5 6h-79c-8.66699 0 -14.834 -2 -18.501 -6s-5.5 -10.667 -5.5 -20c0 -8 -5.33301 -12 -16 -12c-10 0 -15 4 -15 12
c0 16 4.83301 29.5 14.5 40.5s22.167 16.5 37.5 16.5h85c35.333 0 53 -21.333 53 -64v-139c0 -8 -5.33301 -12 -16 -12c-10 0 -15 4 -15 12v34c-5.33301 -14.667 -12.666 -25.5 -21.999 -32.5s-24.333 -10.5 -45 -10.5h-37c-16 0 -29.167 6.33301 -39.5 19
s-15.5 27 -15.5 43c0 28 7.83301 47.333 23.5 58s40.167 16 73.5 16z" />
    <glyph glyph-name="guillemotleft" unicode="&#xab;" horiz-adv-x="484" 
d="M256 178c8.66699 -8.66699 13 -18.001 13 -28.001s-5 -15 -15 -15c-9.33301 0 -16 2 -20 6l-182 169c-10.667 9.33301 -16 17 -16 23c0 4.66699 5.33301 11.667 16 21l182 169c3.33301 3.33301 10 5 20 5s15 -4.66699 15 -14s-4.33301 -18.666 -13 -27.999l-158 -153z
M410 177.999c8.66699 -8.66699 13 -18.001 13 -28.001s-5 -15 -15 -15c-9.33301 0 -16 2 -20 6l-182 169c-10.667 9.33301 -16 17 -16 23c0 4.66699 5.33301 11.667 16 21l182 169c3.33301 3.33301 10 5 20 5s15 -4.66699 15 -14s-4.33301 -18.666 -13 -27.999l-158 -153z
" />
    <glyph glyph-name="logicalnot" unicode="&#xac;" horiz-adv-x="515" 
d="M436 225v-84c0 -18.667 -7.66699 -28 -23 -28c-13.333 0 -20 9.33301 -20 28v68h-284c-17.333 0 -26 7.33301 -26 22c0 14 8.66699 21 26 21h298c19.333 0 29 -9 29 -27z" />
    <glyph glyph-name="uni00AD" unicode="&#xad;" horiz-adv-x="446" 
d="M99 209c-17.333 0 -26 7.33301 -26 22c0 14 8.66699 21 26 21h245c19.333 0 29 -7.66699 29 -23c0 -13.333 -9.66699 -20 -29 -20h-245z" />
    <glyph glyph-name="registered" unicode="&#xae;" horiz-adv-x="604" 
d="M301 334c26.667 0 45.5 1.66797 56.5 5.00098s16.5 10.666 16.5 21.999c0 12 -5.5 19.833 -16.5 23.5s-29.833 5.5 -56.5 5.5h-67v-56h67zM234 217.001c0 -6 -5.33496 -9 -16.002 -9c-10 0 -15 3 -15 9v194c0 6.66699 4.66699 10 14 10h84c69.333 0 104 -20 104 -60
c0 -14 -5 -26.5 -15 -37.5s-23.333 -17.5 -40 -19.5c10 -6 19.833 -16 29.5 -30s16.834 -26.5 21.501 -37.5s7 -17.5 7 -19.5c0 -6 -5.33301 -9 -16 -9c-3.33301 0 -6.66602 1 -9.99902 3s-5 4 -5 6s-2.5 8 -7.5 18s-13 22 -24 36s-22.5 24.667 -34.5 32h-77v-86z
M316.998 87.001h-29c-70.667 0 -123 11.667 -157 35s-51 70 -51 140v111c0 70 17 116.667 51 140s86.333 35 157 35h29c70 0 122 -11.667 156 -35s51 -70 51 -140v-111c0 -70 -17 -116.667 -51 -140s-86 -35 -156 -35zM287.998 129.001h29c31.333 0 55.833 1.16699 73.5 3.5
s34.167 8 49.5 17s26.166 22.5 32.499 40.5s9.5 42 9.5 72v111c0 30 -3.16699 54 -9.5 72s-17.166 31.5 -32.499 40.5s-31.833 14.667 -49.5 17s-42.167 3.5 -73.5 3.5h-29c-32 0 -56.833 -1.16699 -74.5 -3.5s-34.167 -8 -49.5 -17s-26.166 -22.5 -32.499 -40.5
s-9.5 -42 -9.5 -72v-111c0 -30 3.16699 -54 9.5 -72s17.166 -31.5 32.499 -40.5s31.833 -14.667 49.5 -17s42.5 -3.5 74.5 -3.5z" />
    <glyph glyph-name="macron" unicode="&#xaf;" horiz-adv-x="429" 
d="M91 678c-17.333 0 -26 7.33301 -26 22c0 14 8.66699 21 26 21h245c19.333 0 29 -7.66699 29 -23c0 -13.333 -9.66699 -20 -29 -20h-245z" />
    <glyph glyph-name="degree" unicode="&#xb0;" horiz-adv-x="394" 
d="M95 535c0 -28.667 10 -53 30 -73s44 -30 72 -30c28.667 0 53 10 73 30s30 44.333 30 73c0 28 -10 52 -30 72s-44.333 30 -73 30c-28 0 -52 -10 -72 -30s-30 -44 -30 -72zM54 535c0 39.333 14 73 42 101s61.667 42 101 42s73.166 -14 101.499 -42s42.5 -61.667 42.5 -101
s-14.167 -73.166 -42.5 -101.499s-62.166 -42.5 -101.499 -42.5s-73 14.167 -101 42.5s-42 62.166 -42 101.499z" />
    <glyph glyph-name="plusminus" unicode="&#xb1;" horiz-adv-x="573" 
d="M474 43c19.333 0 29 -7.66699 29 -23c0 -13.333 -9.66699 -20 -29 -20h-378c-17.333 0 -26 7.66699 -26 23c0 13.333 8.66699 20 26 20h378zM307 143c0 -18 -7 -27 -21 -27s-21 9 -21 27v127h-169c-17.333 0 -26 7.66699 -26 23c0 13.333 8.66699 20 26 20h169v127
c0 18.667 7.33301 28 22 28c13.333 0 20 -9.33301 20 -28v-127h167c19.333 0 29 -7.33301 29 -22c0 -14 -9.66699 -21 -29 -21h-167v-127z" />
    <glyph glyph-name="twosuperior" unicode="&#xb2;" horiz-adv-x="310" 
d="M266 682c0 -18.667 -9.83398 -36.1641 -29.501 -52.4971s-41.167 -29.833 -64.5 -40.5s-44.833 -24.5 -64.5 -41.5s-29.5 -34.833 -29.5 -53.5h166c5.33301 0 10.333 -1.83301 15 -5.5s7 -7.5 7 -11.5c0 -3.33301 -2.33301 -6.83301 -7 -10.5s-9.66699 -5.5 -15 -5.5
h-203v22c0 23.333 6.66699 44.166 20 62.499s29.333 33.166 48 44.499s37.334 21.666 56.001 30.999s34.667 19 48 29s20 20.667 20 32c0 23.333 -6 37.833 -18 43.5s-35 8.5 -69 8.5h-26c-28.667 0 -43 -10.333 -43 -31c0 -4.66699 -1.83301 -8.83398 -5.5 -12.501
s-7.83398 -5.5 -12.501 -5.5c-4 0 -8 1.83301 -12 5.5s-6 7.83398 -6 12.501c0 18 7.5 33.167 22.5 45.5s32.5 18.5 52.5 18.5h30c40.667 0 70.834 -5.33301 90.501 -16s29.5 -33.667 29.5 -69z" />
    <glyph glyph-name="threesuperior" unicode="&#xb3;" horiz-adv-x="280" 
d="M143 734l-12 0.00292969c-15.333 0 -30 -2.83301 -44 -8.5s-21 -13.834 -21 -24.501c0 -8.66699 -6.33301 -13 -19 -13c-11.333 0 -17 5 -17 15c0 14 8.83301 28.167 26.5 42.5s41.167 21.5 70.5 21.5h12c38 0 64.833 -6.33301 80.5 -19s23.5 -34 23.5 -64
c0 -16 -8.33301 -30.333 -25 -43s-31.667 -20.334 -45 -23.001c14 -2 29.167 -10.5 45.5 -25.5s24.5 -32.5 24.5 -52.5c0 -28 -7.83301 -48.167 -23.5 -60.5s-42.5 -18.5 -80.5 -18.5h-12c-29.333 0 -52.833 7.16699 -70.5 21.5s-26.5 28.5 -26.5 42.5
c0 10 5.66699 15 17 15c12.667 0 19 -4.33301 19 -13c0 -10.667 7 -18.834 21 -24.501s28.667 -8.5 44 -8.5h12c15.333 0 27.833 1.16699 37.5 3.5s16.5 6 20.5 11s6.66699 9.83301 8 14.5s2 10.667 2 18c0 16 -10.167 30 -30.5 42s-40.833 18 -61.5 18
c-12 0 -18 5.66699 -18 17c0 10.667 6 16 18 16c21.333 0 42 5 62 15s30 22.667 30 38c0 7.33301 -0.666992 13.333 -2 18s-4 9.5 -8 14.5s-10.833 8.66699 -20.5 11s-22.167 3.5 -37.5 3.5z" />
    <glyph glyph-name="acute" unicode="&#xb4;" horiz-adv-x="212" 
d="M179 657c0 -6.66699 -2.66699 -13 -8 -19l-96 -115c-8 -8.66699 -15 -13 -21 -13c-4.66699 0 -9.16699 2 -13.5 6s-6.5 8.66699 -6.5 14c0 7.33301 2.66699 14 8 20l96 115c8 8.66699 15 13 21 13c4.66699 0 9.16699 -2 13.5 -6s6.5 -9 6.5 -15z" />
    <glyph glyph-name="uni00B5" unicode="&#xb5;" horiz-adv-x="565" 
d="M283 42c52.667 0 93.498 16 122.498 48s43.5 78 43.5 138v210c0 20 6.66699 30 20 30c14.667 0 22 -10 22 -30v-414c0 -20.667 -6.66699 -31 -20 -31c-14.667 0 -22 10.333 -22 31v48c-37.333 -48 -92.666 -72 -165.999 -72s-128.666 24 -165.999 72v-244
c0 -20.667 -7.66699 -31 -23 -31c-12.667 0 -19 10.333 -19 31v610c0 20 6.66699 30 20 30c14.667 0 22 -10 22 -30v-210c0 -60 14.333 -106 43 -138s69.667 -48 123 -48z" />
    <glyph glyph-name="paragraph" unicode="&#xb6;" horiz-adv-x="447" 
d="M358 20c0 -18 -6.66797 -26.999 -20.001 -26.999c-14.667 0 -22 9 -22 27v574h-31v-574c0 -18 -6.66699 -27 -20 -27c-14.667 0 -22 9 -22 27v317h-42c-52 0 -92.5 12.667 -121.5 38s-43.5 62.333 -43.5 111c0 57.333 17.333 96.666 52 117.999s86.334 32 155.001 32h115
v-616z" />
    <glyph glyph-name="periodcentered" unicode="&#xb7;" horiz-adv-x="232" 
d="M70 387c0 9.33301 5 17.666 15 24.999s20.333 11 31 11c10 0 20.167 -3.66699 30.5 -11s15.5 -15.666 15.5 -24.999s-5.16699 -17.666 -15.5 -24.999s-20.5 -11 -30.5 -11c-10.667 0 -21 3.66699 -31 11s-15 15.666 -15 24.999z" />
    <glyph glyph-name="cedilla" unicode="&#xb8;" horiz-adv-x="242" 
d="M42 -120c0 8.66699 3.33398 13.001 10.001 13.001c2 0 10.667 -3 26 -9s28.666 -9 39.999 -9c31.333 0 47 10.333 47 31c0 8 -3.66699 15.833 -11 23.5s-15.166 14.167 -23.499 19.5s-16.166 13.833 -23.499 25.5s-11 25.167 -11 40.5h42c0 -12 3.66699 -22.333 11 -31
s15.166 -15.334 23.499 -20.001s16.166 -11.5 23.499 -20.5s11 -19.833 11 -32.5c0 -22 -8.66699 -40.167 -26 -54.5s-39 -21.5 -65 -21.5c-15.333 0 -31.5 3.5 -48.5 10.5s-25.5 18.5 -25.5 34.5z" />
    <glyph glyph-name="onesuperior" unicode="&#xb9;" horiz-adv-x="138" 
d="M52 715l-27 -27c-6 -6.66699 -12.667 -10 -20 -10c-10 0 -15 4.66699 -15 14c0 6 3.33301 12 10 18l49 50c6.66699 6.66699 13 10 19 10c12 0 18 -6.33301 18 -19v-271c0 -14.667 -5.66699 -22 -17 -22s-17 7.33301 -17 22v235z" />
    <glyph glyph-name="ordmasculine" unicode="&#xba;" horiz-adv-x="376" 
d="M183 280h9c24 0 40 3 48 9s12 20.667 12 44v44c0 23.333 -4 38 -12 44s-24 9 -48 9h-9c-24 0 -39.833 -3 -47.5 -9s-11.5 -20.667 -11.5 -44v-44c0 -23.333 3.83301 -38 11.5 -44s23.5 -9 47.5 -9zM192 249h-9c-34 0 -57.5 5.66699 -70.5 17s-19.5 33.666 -19.5 66.999
v44c0 32.667 6.5 54.834 19.5 66.501s36.5 17.5 70.5 17.5h9c34.667 0 58.5 -5.83301 71.5 -17.5s19.5 -33.834 19.5 -66.501v-44c0 -33.333 -6.5 -55.666 -19.5 -66.999s-36.833 -17 -71.5 -17zM89 164c-14 0 -21 6 -21 18c0 11.333 7 17 21 17h196
c15.333 0 23 -6.33301 23 -19c0 -10.667 -7.66699 -16 -23 -16h-196z" />
    <glyph glyph-name="guillemotright" unicode="&#xbb;" horiz-adv-x="484" 
d="M74 178l158.001 155.001l-158 153c-8.66699 9.33301 -13 18.666 -13 27.999s5 14 15 14c9.33301 0 15.666 -1.66699 18.999 -5l183 -169c10.667 -9.33301 16 -16.333 16 -21c0 -6 -5.33301 -13.667 -16 -23l-183 -169c-4 -4 -10.333 -6 -19 -6c-10 0 -15 5 -15 15
s4.33301 19.333 13 28zM228.001 178.001l158.001 155.001l-158 153c-8.66699 9.33301 -13 18.666 -13 27.999s5 14 15 14c9.33301 0 15.666 -1.66699 18.999 -5l183 -169c10.667 -9.33301 16 -16.333 16 -21c0 -6 -5.33301 -13.667 -16 -23l-183 -169
c-4 -4 -10.333 -6 -19 -6c-10 0 -15 5 -15 15s4.33301 19.333 13 28z" />
    <glyph glyph-name="onequarter" unicode="&#xbc;" horiz-adv-x="579" 
d="M517 100h-49v-82c0 -14.667 -5.66699 -22 -17 -22s-17 7.33301 -17 22v82h-132v45l120 160h46v-172h49c14 0 21 -5.33301 21 -16c0 -11.333 -7 -17 -21 -17zM434 133v138l-103 -138h103zM481 534c10 0 15 -5 15 -15c0 -5.33301 -3.66699 -12.333 -11 -21l-409 -409
c-7.33301 -7.33301 -14.333 -11 -21 -11c-10 0 -15 5 -15 15c0 6.66699 3.66699 13.667 11 21l409 409c8.66699 7.33301 15.667 11 21 11zM159 581l-27 -27c-6 -6.66699 -12.667 -10 -20 -10c-10 0 -15 4.66699 -15 14c0 6 3.33301 12 10 18l49 50
c6.66699 6.66699 13 10 19 10c12 0 18 -6.33301 18 -19v-271c0 -14.667 -5.66699 -22 -17 -22s-17 7.33301 -17 22v235z" />
    <glyph glyph-name="onehalf" unicode="&#xbd;" horiz-adv-x="602" 
d="M159 581l-27 -27c-6 -6.66699 -12.667 -10 -20 -10c-10 0 -15 4.66699 -15 14c0 6 3.33301 12 10 18l49 50c6.66699 6.66699 13 10 19 10c12 0 18 -6.33301 18 -19v-271c0 -14.667 -5.66699 -22 -17 -22s-17 7.33301 -17 22v235zM549 220
c0 -18.667 -9.83398 -36.1641 -29.501 -52.4971s-41.167 -29.833 -64.5 -40.5s-44.833 -24.5 -64.5 -41.5s-29.5 -34.833 -29.5 -53.5h166c5.33301 0 10.333 -1.83301 15 -5.5s7 -7.5 7 -11.5c0 -3.33301 -2.33301 -6.83301 -7 -10.5s-9.66699 -5.5 -15 -5.5h-203v22
c0 23.333 6.66699 44.166 20 62.499s29.333 33.166 48 44.499s37.334 21.666 56.001 30.999s34.667 19 48 29s20 20.667 20 32c0 23.333 -6 37.833 -18 43.5s-35 8.5 -69 8.5h-26c-28.667 0 -43 -10.333 -43 -31c0 -4.66699 -1.83301 -8.83398 -5.5 -12.501
s-7.83398 -5.5 -12.501 -5.5c-4 0 -8 1.83301 -12 5.5s-6 7.83398 -6 12.501c0 18 7.5 33.167 22.5 45.5s32.5 18.5 52.5 18.5h30c40.667 0 70.834 -5.33301 90.501 -16s29.5 -33.667 29.5 -69zM480.999 534.003c10 0 15 -5 15 -15c0 -5.33301 -3.66699 -12.333 -11 -21
l-409 -409c-7.33301 -7.33301 -14.333 -11 -21 -11c-10 0 -15 5 -15 15c0 6.66699 3.66699 13.667 11 21l409 409c8.66699 7.33301 15.667 11 21 11z" />
    <glyph glyph-name="threequarters" unicode="&#xbe;" horiz-adv-x="622" 
d="M179 603l-12 0.00292969c-15.333 0 -30 -2.83301 -44 -8.5s-21 -13.834 -21 -24.501c0 -8.66699 -6.33301 -13 -19 -13c-11.333 0 -17 5 -17 15c0 14 8.83301 28.167 26.5 42.5s41.167 21.5 70.5 21.5h12c38 0 64.833 -6.33301 80.5 -19s23.5 -34 23.5 -64
c0 -16 -8.33301 -30.333 -25 -43s-31.667 -20.334 -45 -23.001c14 -2 29.167 -10.5 45.5 -25.5s24.5 -32.5 24.5 -52.5c0 -28 -7.83301 -48.167 -23.5 -60.5s-42.5 -18.5 -80.5 -18.5h-12c-29.333 0 -52.833 7.16699 -70.5 21.5s-26.5 28.5 -26.5 42.5
c0 10 5.66699 15 17 15c12.667 0 19 -4.33301 19 -13c0 -10.667 7 -18.834 21 -24.501s28.667 -8.5 44 -8.5h12c15.333 0 27.833 1.16699 37.5 3.5s16.5 6 20.5 11s6.66699 9.83301 8 14.5s2 10.667 2 18c0 16 -10.167 30 -30.5 42s-40.833 18 -61.5 18
c-12 0 -18 5.66699 -18 17c0 10.667 6 16 18 16c21.333 0 42 5 62 15s30 22.667 30 38c0 7.33301 -0.666992 13.333 -2 18s-4 9.5 -8 14.5s-10.833 8.66699 -20.5 11s-22.167 3.5 -37.5 3.5zM531 534.003c10 0 15 -5 15 -15c0 -5.33301 -3.66699 -12.333 -11 -21l-409 -409
c-7.33301 -7.33301 -14.333 -11 -21 -11c-10 0 -15 5 -15 15c0 6.66699 3.66699 13.667 11 21l409 409c8.66699 7.33301 15.667 11 21 11zM558 100.003h-49v-82c0 -14.667 -5.66699 -22 -17 -22s-17 7.33301 -17 22v82h-132v45l120 160h46v-172h49c14 0 21 -5.33301 21 -16
c0 -11.333 -7 -17 -21 -17zM475 133.003v138l-103 -138h103z" />
    <glyph glyph-name="questiondown" unicode="&#xbf;" horiz-adv-x="520" 
d="M324 450c0 -9.33301 -5.16699 -17.666 -15.5 -24.999s-20.5 -11 -30.5 -11c-10.667 0 -21.167 3.66699 -31.5 11s-15.5 15.666 -15.5 24.999s5.16699 17.666 15.5 24.999s20.833 11 31.5 11c10 0 20.167 -3.66699 30.5 -11s15.5 -15.666 15.5 -24.999zM256 176
l0.000976562 109.003c0 18.667 7.33301 28 22 28c13.333 0 20 -9.33301 20 -28v-140l-153 -42c-18 -5.33301 -33.167 -17.833 -45.5 -37.5s-18.5 -43.167 -18.5 -70.5c0 -29.333 8.16699 -56.333 24.5 -81s42.166 -37 77.499 -37h94c32 0 56.667 1.16699 74 3.5
s33.833 7.66602 49.5 15.999s26.5 21.5 32.5 39.5s9 42 9 72c0 18.667 7 28 21 28c14.667 0 22 -9.33301 22 -28c0 -36.667 -4.66699 -66.834 -14 -90.501s-24 -41.334 -44 -53.001s-41.333 -19.5 -64 -23.5s-51.334 -6 -86.001 -6h-76
c-57.333 0 -98.666 15.667 -123.999 47s-38 69 -38 113s9.33301 77.667 28 101s50.667 41.333 96 54z" />
    <glyph glyph-name="Agrave" unicode="&#xc0;" horiz-adv-x="548" 
d="M171 799c0 4 2.16699 8.33301 6.5 13s9.16602 7 14.499 7c6.66699 0 13.334 -3.66699 20.001 -11l70 -69c7.33301 -8.66699 11 -16 11 -22c0 -4 -2 -8.16699 -6 -12.5s-8.66699 -6.5 -14 -6.5c-7.33301 0 -14.333 3.66699 -21 11l-69 69c-8 8 -12 15 -12 21zM44 -16
c-14 0 -21.001 6.66699 -21.001 20c0 4 1 8.66699 3 14l225 618h46l225 -618c2 -5.33301 3 -10 3 -14c0 -13.333 -7 -20 -21 -20c-9.33301 0 -16.666 6.66699 -21.999 20l-72 200h-272l-72 -200c-6 -13.333 -13.333 -20 -22 -20zM153.999 246h240l-121 329z" />
    <glyph glyph-name="Aacute" unicode="&#xc1;" horiz-adv-x="548" 
d="M357 799c0 -5.33301 -3.66699 -12.333 -11 -21l-70 -69c-6.66699 -7.33301 -13.334 -11 -20.001 -11c-5.33301 0 -10.166 2.16699 -14.499 6.5s-6.5 8.5 -6.5 12.5c0 6.66699 4 14 12 22l69 69c6.66699 7.33301 13.667 11 21 11c5.33301 0 10 -2.33301 14 -7s6 -9 6 -13z
M44 -16c-14 0 -21.001 6.66699 -21.001 20c0 4 1 8.66699 3 14l225 618h46l225 -618c2 -5.33301 3 -10 3 -14c0 -13.333 -7 -20 -21 -20c-9.33301 0 -16.666 6.66699 -21.999 20l-72 200h-272l-72 -200c-6 -13.333 -13.333 -20 -22 -20zM153.999 246h240l-121 329z" />
    <glyph glyph-name="Acircumflex" unicode="&#xc2;" horiz-adv-x="548" 
d="M275 773h-3l-92 -104c-10.667 -12 -18.667 -18 -24 -18c-12 0 -18 6 -18 18c0 6 1.33301 10.333 4 13l104 137h55l106 -137c2.66699 -3.33301 4 -7.66602 4 -12.999c0 -12 -6 -18 -18 -18c-2.66699 0 -5.16699 0.5 -7.5 1.5s-4 2 -5 3s-2.83301 3.16699 -5.5 6.5
s-4.66699 5.66602 -6 6.99902zM44 -16c-14 0 -21.001 6.66699 -21.001 20c0 4 1 8.66699 3 14l225 618h46l225 -618c2 -5.33301 3 -10 3 -14c0 -13.333 -7 -20 -21 -20c-9.33301 0 -16.666 6.66699 -21.999 20l-72 200h-272l-72 -200c-6 -13.333 -13.333 -20 -22 -20z
M153.999 246h240l-121 329z" />
    <glyph glyph-name="Atilde" unicode="&#xc3;" horiz-adv-x="548" 
d="M321 755c2.66699 -1.33301 5.00195 -2.00098 7.00195 -2.00098c2.66699 0 6.33398 1.66699 11.001 5l31 28c7.33301 5.33301 13.666 8 18.999 8s10.166 -1.66699 14.499 -5s6.5 -7.66602 6.5 -12.999c0 -8 -4 -15.667 -12 -23l-47 -39c-4.66699 -4.66699 -10 -7 -16 -7
c-2.66699 0 -6 0.666992 -10 2l-98 36c-2.66699 1.33301 -5.33398 2 -8.00098 2s-6.33398 -1.66699 -11.001 -5l-31 -28c-7.33301 -5.33301 -13.666 -8 -18.999 -8c-4.66699 0 -9.16699 1.83301 -13.5 5.5s-6.5 8.16699 -6.5 13.5c0 8.66699 4 16 12 22l47 39
c3.33301 4.66699 8.33301 7 15 7c2 0 5.66699 -0.666992 11 -2zM44.002 -16.001c-14 0 -21.001 6.66699 -21.001 20c0 4 1 8.66699 3 14l225 618h46l225 -618c2 -5.33301 3 -10 3 -14c0 -13.333 -7 -20 -21 -20c-9.33301 0 -16.666 6.66699 -21.999 20l-72 200h-272
l-72 -200c-6 -13.333 -13.333 -20 -22 -20zM154.001 245.999h240l-121 329z" />
    <glyph glyph-name="Adieresis" unicode="&#xc4;" horiz-adv-x="548" 
d="M301 742c0 9.33301 5 17.666 15 24.999s20.333 11 31 11c10 0 20.167 -3.66699 30.5 -11s15.5 -15.666 15.5 -24.999s-5.16699 -17.666 -15.5 -24.999s-20.5 -11 -30.5 -11c-10.667 0 -21 3.66699 -31 11s-15 15.666 -15 24.999zM155 742c0 9.33301 5 17.666 15 24.999
s20.333 11 31 11c10 0 20.167 -3.66699 30.5 -11s15.5 -15.666 15.5 -24.999s-5.16699 -17.666 -15.5 -24.999s-20.5 -11 -30.5 -11c-10.667 0 -21 3.66699 -31 11s-15 15.666 -15 24.999zM44 -16c-14 0 -21.001 6.66699 -21.001 20c0 4 1 8.66699 3 14l225 618h46l225 -618
c2 -5.33301 3 -10 3 -14c0 -13.333 -7 -20 -21 -20c-9.33301 0 -16.666 6.66699 -21.999 20l-72 200h-272l-72 -200c-6 -13.333 -13.333 -20 -22 -20zM153.999 246h240l-121 329z" />
    <glyph glyph-name="Aring" unicode="&#xc5;" horiz-adv-x="548" 
d="M225 716c0 -13.333 4.83301 -24.833 14.5 -34.5s21.167 -14.5 34.5 -14.5s24.833 4.83301 34.5 14.5s14.5 21.167 14.5 34.5s-5 24.833 -15 34.5s-21.333 14.5 -34 14.5c-13.333 0 -24.833 -4.83301 -34.5 -14.5s-14.5 -21.167 -14.5 -34.5zM198 716
c0 21.333 7.5 39.333 22.5 54s32.833 22 53.5 22s38.5 -7.33301 53.5 -22s22.5 -32.667 22.5 -54s-7.5 -39.333 -22.5 -54s-32.833 -22 -53.5 -22s-38.5 7.33301 -53.5 22s-22.5 32.667 -22.5 54zM44 -16c-14 0 -21.001 6.66699 -21.001 20c0 4 1 8.66699 3 14l225 618h46
l225 -618c2 -5.33301 3 -10 3 -14c0 -13.333 -7 -20 -21 -20c-9.33301 0 -16.666 6.66699 -21.999 20l-72 200h-272l-72 -200c-6 -13.333 -13.333 -20 -22 -20zM153.999 246h240l-121 329z" />
    <glyph glyph-name="AE" unicode="&#xc6;" horiz-adv-x="846" 
d="M435 337l0.000976562 -295h334c19.333 0 29 -7.66699 29 -23c0 -12.667 -9.66699 -19 -29 -19h-356c-12.667 -0 -19 10.333 -19 31v173h-219l-123 -199c-8.66699 -14 -18.334 -21 -29.001 -21c-10 0 -15 4.33301 -15 13c0 6.66699 2.33301 13.667 7 21l383 610
c3.33301 5.33301 8.33301 8 15 8h356c19.333 0 29 -7.66699 29 -23c0 -12.667 -9.66699 -19 -29 -19h-334v-215h215c20.667 0 31 -7.66699 31 -23c0 -12.667 -10.333 -19 -31 -19h-215zM394.001 246v304l-191 -304h191z" />
    <glyph glyph-name="Ccedilla" unicode="&#xc7;" horiz-adv-x="572" 
d="M220 -120c0 8.66699 3.33301 13.002 10 13.002c2 0 10.667 -3 26 -9s28.666 -9 39.999 -9c31.333 0 47 10.333 47 31c0 9.33301 -5 18.166 -15 26.499s-20.667 17.833 -32 28.5s-18.333 23.667 -21 39c-68.667 0.666992 -119.667 12.667 -153 36s-50 69.666 -50 138.999
v286c0 70 17 116.667 51 140s86.333 35 157 35h141c20.667 0 37.834 -3 51.501 -9s23.334 -14.667 29.001 -26s9.5 -22.333 11.5 -33s3 -23.667 3 -39c0 -20 -7 -30 -21 -30s-21 9.33301 -21 28c0 24 -4.33301 41.167 -13 51.5s-24.334 15.5 -47.001 15.5h-134
c-32 0 -56.833 -1.16699 -74.5 -3.5s-34.167 -8 -49.5 -17s-26.166 -22.5 -32.499 -40.5s-9.5 -42 -9.5 -72v-286c0 -30 3.16699 -54 9.5 -72s17.166 -31.5 32.499 -40.5s31.833 -14.667 49.5 -17s42.5 -3.5 74.5 -3.5h134c22.667 0 38.334 5 47.001 15s13 27.333 13 52
c0 18.667 7 28 21 28s21 -10.333 21 -31c0 -14.667 -1 -27.334 -3 -38.001s-5.83301 -21.667 -11.5 -33s-15.334 -20 -29.001 -26s-30.834 -9 -51.501 -9h-103c2.66699 -10 9.83398 -19.167 21.501 -27.5s22.167 -17.166 31.5 -26.499s14 -21 14 -35
c0 -22 -8.66699 -40.167 -26 -54.5s-39 -21.5 -65 -21.5c-15.333 0 -31.5 3.5 -48.5 10.5s-25.5 18.5 -25.5 34.5z" />
    <glyph glyph-name="Egrave" unicode="&#xc8;" horiz-adv-x="577" 
d="M199 799c0 4 2.16699 8.33301 6.5 13s9.16602 7 14.499 7c6.66699 0 13.334 -3.66699 20.001 -11l70 -69c7.33301 -8.66699 11 -16 11 -22c0 -4 -2 -8.16699 -6 -12.5s-8.66699 -6.5 -14 -6.5c-7.33301 0 -14.333 3.66699 -21 11l-69 69c-8 8 -12 15 -12 21zM126 337
v-295h373c19.333 0 29 -7.66699 29 -23c0 -12.667 -9.66699 -19 -29 -19h-396c-12.667 -0 -19 10.333 -19 31v574c0 20.667 6.33301 31 19 31h396c19.333 0 29 -7.66699 29 -23c0 -12.667 -9.66699 -19 -29 -19h-373v-215h255c20 0 30 -7.66699 30 -23
c0 -12.667 -10 -19 -30 -19h-255z" />
    <glyph glyph-name="Eacute" unicode="&#xc9;" horiz-adv-x="577" 
d="M372 799c0 -5.33301 -3.66699 -12.333 -11 -21l-70 -69c-6.66699 -7.33301 -13.334 -11 -20.001 -11c-5.33301 0 -10.166 2.16699 -14.499 6.5s-6.5 8.5 -6.5 12.5c0 6.66699 4 14 12 22l69 69c6.66699 7.33301 13.667 11 21 11c5.33301 0 10 -2.33301 14 -7s6 -9 6 -13z
M126 337v-295h373c19.333 0 29 -7.66699 29 -23c0 -12.667 -9.66699 -19 -29 -19h-396c-12.667 -0 -19 10.333 -19 31v574c0 20.667 6.33301 31 19 31h396c19.333 0 29 -7.66699 29 -23c0 -12.667 -9.66699 -19 -29 -19h-373v-215h255c20 0 30 -7.66699 30 -23
c0 -12.667 -10 -19 -30 -19h-255z" />
    <glyph glyph-name="Ecircumflex" unicode="&#xca;" horiz-adv-x="577" 
d="M302 773h-3l-92 -104c-10.667 -12 -18.667 -18 -24 -18c-12 0 -18 6 -18 18c0 6 1.33301 10.333 4 13l104 137h55l106 -137c2.66699 -3.33301 4 -7.66602 4 -12.999c0 -12 -6 -18 -18 -18c-2.66699 0 -5.16699 0.5 -7.5 1.5s-4 2 -5 3s-2.83301 3.16699 -5.5 6.5
s-4.66699 5.66602 -6 6.99902zM126 337v-295h373c19.333 0 29 -7.66699 29 -23c0 -12.667 -9.66699 -19 -29 -19h-396c-12.667 -0 -19 10.333 -19 31v574c0 20.667 6.33301 31 19 31h396c19.333 0 29 -7.66699 29 -23c0 -12.667 -9.66699 -19 -29 -19h-373v-215h255
c20 0 30 -7.66699 30 -23c0 -12.667 -10 -19 -30 -19h-255z" />
    <glyph glyph-name="Edieresis" unicode="&#xcb;" horiz-adv-x="577" 
d="M328 742c0 9.33301 5 17.666 15 24.999s20.333 11 31 11c10 0 20.167 -3.66699 30.5 -11s15.5 -15.666 15.5 -24.999s-5.16699 -17.666 -15.5 -24.999s-20.5 -11 -30.5 -11c-10.667 0 -21 3.66699 -31 11s-15 15.666 -15 24.999zM182 742c0 9.33301 5 17.666 15 24.999
s20.333 11 31 11c10 0 20.167 -3.66699 30.5 -11s15.5 -15.666 15.5 -24.999s-5.16699 -17.666 -15.5 -24.999s-20.5 -11 -30.5 -11c-10.667 0 -21 3.66699 -31 11s-15 15.666 -15 24.999zM126 337v-295h373c19.333 0 29 -7.66699 29 -23c0 -12.667 -9.66699 -19 -29 -19
h-396c-12.667 -0 -19 10.333 -19 31v574c0 20.667 6.33301 31 19 31h396c19.333 0 29 -7.66699 29 -23c0 -12.667 -9.66699 -19 -29 -19h-373v-215h255c20 0 30 -7.66699 30 -23c0 -12.667 -10 -19 -30 -19h-255z" />
    <glyph glyph-name="Igrave" unicode="&#xcc;" horiz-adv-x="210" 
d="M4 799c0 4 2.16699 8.33301 6.5 13s9.16602 7 14.499 7c6.66699 0 13.334 -3.66699 20.001 -11l70 -69c7.33301 -8.66699 11 -16 11 -22c0 -4 -2 -8.16699 -6 -12.5s-8.66699 -6.5 -14 -6.5c-7.33301 0 -14.333 3.66699 -21 11l-69 69c-8 8 -12 15 -12 21zM126 20
c0 -18 -7.33301 -27 -22 -27c-13.333 0 -20 9 -20 27v595c0 18.667 7 28 21 28s21 -9.33301 21 -28v-595z" />
    <glyph glyph-name="Iacute" unicode="&#xcd;" horiz-adv-x="210" 
d="M207 799c0 -5.33301 -3.66699 -12.333 -11 -21l-70 -69c-6.66699 -7.33301 -13.334 -11 -20.001 -11c-5.33301 0 -10.166 2.16699 -14.499 6.5s-6.5 8.5 -6.5 12.5c0 6.66699 4 14 12 22l69 69c6.66699 7.33301 13.667 11 21 11c5.33301 0 10 -2.33301 14 -7s6 -9 6 -13z
M126 20c0 -18 -7.33301 -27 -22 -27c-13.333 0 -20 9 -20 27v595c0 18.667 7 28 21 28s21 -9.33301 21 -28v-595z" />
    <glyph glyph-name="Icircumflex" unicode="&#xce;" horiz-adv-x="210" 
d="M107 773h-3l-92 -104c-10.667 -12 -18.667 -18 -24 -18c-12 0 -18 6 -18 18c0 6 1.33301 10.333 4 13l104 137h55l106 -137c2.66699 -3.33301 4 -7.66602 4 -12.999c0 -12 -6 -18 -18 -18c-2.66699 0 -5.16699 0.5 -7.5 1.5s-4 2 -5 3s-2.83301 3.16699 -5.5 6.5
s-4.66699 5.66602 -6 6.99902zM126 20c0 -18 -7.33301 -27 -22 -27c-13.333 0 -20 9 -20 27v595c0 18.667 7 28 21 28s21 -9.33301 21 -28v-595z" />
    <glyph glyph-name="Idieresis" unicode="&#xcf;" horiz-adv-x="210" 
d="M132 742c0 9.33301 5 17.666 15 24.999s20.333 11 31 11c10 0 20.167 -3.66699 30.5 -11s15.5 -15.666 15.5 -24.999s-5.16699 -17.666 -15.5 -24.999s-20.5 -11 -30.5 -11c-10.667 0 -21 3.66699 -31 11s-15 15.666 -15 24.999zM-14 742c0 9.33301 5 17.666 15 24.999
s20.333 11 31 11c10 0 20.167 -3.66699 30.5 -11s15.5 -15.666 15.5 -24.999s-5.16699 -17.666 -15.5 -24.999s-20.5 -11 -30.5 -11c-10.667 0 -21 3.66699 -31 11s-15 15.666 -15 24.999zM126 20c0 -18 -7.33301 -27 -22 -27c-13.333 0 -20 9 -20 27v595
c0 18.667 7 28 21 28s21 -9.33301 21 -28v-595z" />
    <glyph glyph-name="Eth" unicode="&#xd0;" horiz-adv-x="600" 
d="M76 303c-18 0 -27 7.66699 -27 23c0 13.333 9 20 27 20h8v259c0 20.667 6.33301 31 19 31h218c70 0 122 -11.667 156 -35s51 -70 51 -140v-286c0 -70 -17 -116.667 -51 -140s-86 -35 -156 -35h-218c-12.667 -0 -19 10.333 -19 31v272h-8zM486 175v286
c0 30 -3.16699 54 -9.5 72s-17.166 31.5 -32.499 40.5s-31.833 14.667 -49.5 17s-42.167 3.5 -73.5 3.5h-195v-248h106c19.333 0 29 -7.33301 29 -22c0 -14 -9.66699 -21 -29 -21h-106v-261h195c31.333 0 55.833 1.16699 73.5 3.5s34.167 8 49.5 17s26.166 22.5 32.499 40.5
s9.5 42 9.5 72z" />
    <glyph glyph-name="Ntilde" unicode="&#xd1;" horiz-adv-x="612" 
d="M352 755c2.66699 -1.33301 5.00195 -2.00098 7.00195 -2.00098c2.66699 0 6.33398 1.66699 11.001 5l31 28c7.33301 5.33301 13.666 8 18.999 8s10.166 -1.66699 14.499 -5s6.5 -7.66602 6.5 -12.999c0 -8 -4 -15.667 -12 -23l-47 -39c-4.66699 -4.66699 -10 -7 -16 -7
c-2.66699 0 -6 0.666992 -10 2l-98 36c-2.66699 1.33301 -5.33398 2 -8.00098 2s-6.33398 -1.66699 -11.001 -5l-31 -28c-7.33301 -5.33301 -13.666 -8 -18.999 -8c-4.66699 0 -9.16699 1.83301 -13.5 5.5s-6.5 8.16699 -6.5 13.5c0 8.66699 4 16 12 22l47 39
c3.33301 4.66699 8.33301 7 15 7c2 0 5.66699 -0.666992 11 -2zM508.002 -7.00098c-8 0 -13.333 2.33301 -16 7l-366 557v-534c0 -20 -7 -30 -21 -30s-21 10 -21 30v589c0 20.667 6.33301 31 19 31c10 0 18.667 -5.66699 26 -17l357 -542v528c0 20.667 6.66699 31 20 31
c14.667 0 22 -10.333 22 -31v-589c0 -20 -6.66699 -30 -20 -30z" />
    <glyph glyph-name="Ograve" unicode="&#xd2;" horiz-adv-x="574" 
d="M185 799c0 4 2.16699 8.33301 6.5 13s9.16602 7 14.499 7c6.66699 0 13.334 -3.66699 20.001 -11l70 -69c7.33301 -8.66699 11 -16 11 -22c0 -4 -2 -8.16699 -6 -12.5s-8.66699 -6.5 -14 -6.5c-7.33301 0 -14.333 3.66699 -21 11l-69 69c-8 8 -12 15 -12 21zM287 -9
c-64.667 0 -117.834 21 -159.501 63s-62.5 99.667 -62.5 173v182c0 73.333 20.833 131 62.5 173s94.834 63 159.501 63s117.834 -21 159.501 -63s62.5 -99.667 62.5 -173v-182c0 -73.333 -20.833 -131 -62.5 -173s-94.834 -63 -159.501 -63zM287 603
c-56 0 -100 -17.167 -132 -51.5s-48 -81.833 -48 -142.5v-182c0 -60.667 16 -108.167 48 -142.5s76 -51.5 132 -51.5s100 17.167 132 51.5s48 81.833 48 142.5v182c0 60.667 -16 108.167 -48 142.5s-76 51.5 -132 51.5z" />
    <glyph glyph-name="Oacute" unicode="&#xd3;" horiz-adv-x="574" 
d="M388 799c0 -5.33301 -3.66699 -12.333 -11 -21l-70 -69c-6.66699 -7.33301 -13.334 -11 -20.001 -11c-5.33301 0 -10.166 2.16699 -14.499 6.5s-6.5 8.5 -6.5 12.5c0 6.66699 4 14 12 22l69 69c6.66699 7.33301 13.667 11 21 11c5.33301 0 10 -2.33301 14 -7s6 -9 6 -13z
M287 -9c-64.667 0 -117.834 21 -159.501 63s-62.5 99.667 -62.5 173v182c0 73.333 20.833 131 62.5 173s94.834 63 159.501 63s117.834 -21 159.501 -63s62.5 -99.667 62.5 -173v-182c0 -73.333 -20.833 -131 -62.5 -173s-94.834 -63 -159.501 -63zM287 603
c-56 0 -100 -17.167 -132 -51.5s-48 -81.833 -48 -142.5v-182c0 -60.667 16 -108.167 48 -142.5s76 -51.5 132 -51.5s100 17.167 132 51.5s48 81.833 48 142.5v182c0 60.667 -16 108.167 -48 142.5s-76 51.5 -132 51.5z" />
    <glyph glyph-name="Ocircumflex" unicode="&#xd4;" horiz-adv-x="574" 
d="M288 773h-3l-92 -104c-10.667 -12 -18.667 -18 -24 -18c-12 0 -18 6 -18 18c0 6 1.33301 10.333 4 13l104 137h55l106 -137c2.66699 -3.33301 4 -7.66602 4 -12.999c0 -12 -6 -18 -18 -18c-2.66699 0 -5.16699 0.5 -7.5 1.5s-4 2 -5 3s-2.83301 3.16699 -5.5 6.5
s-4.66699 5.66602 -6 6.99902zM287 -9c-64.667 0 -117.834 21 -159.501 63s-62.5 99.667 -62.5 173v182c0 73.333 20.833 131 62.5 173s94.834 63 159.501 63s117.834 -21 159.501 -63s62.5 -99.667 62.5 -173v-182c0 -73.333 -20.833 -131 -62.5 -173
s-94.834 -63 -159.501 -63zM287 603c-56 0 -100 -17.167 -132 -51.5s-48 -81.833 -48 -142.5v-182c0 -60.667 16 -108.167 48 -142.5s76 -51.5 132 -51.5s100 17.167 132 51.5s48 81.833 48 142.5v182c0 60.667 -16 108.167 -48 142.5s-76 51.5 -132 51.5z" />
    <glyph glyph-name="Otilde" unicode="&#xd5;" horiz-adv-x="574" 
d="M334 755c2.66699 -1.33301 5.00195 -2.00098 7.00195 -2.00098c2.66699 0 6.33398 1.66699 11.001 5l31 28c7.33301 5.33301 13.666 8 18.999 8s10.166 -1.66699 14.499 -5s6.5 -7.66602 6.5 -12.999c0 -8 -4 -15.667 -12 -23l-47 -39c-4.66699 -4.66699 -10 -7 -16 -7
c-2.66699 0 -6 0.666992 -10 2l-98 36c-2.66699 1.33301 -5.33398 2 -8.00098 2s-6.33398 -1.66699 -11.001 -5l-31 -28c-7.33301 -5.33301 -13.666 -8 -18.999 -8c-4.66699 0 -9.16699 1.83301 -13.5 5.5s-6.5 8.16699 -6.5 13.5c0 8.66699 4 16 12 22l47 39
c3.33301 4.66699 8.33301 7 15 7c2 0 5.66699 -0.666992 11 -2zM287.002 -9.00098c-64.667 0 -117.834 21 -159.501 63s-62.5 99.667 -62.5 173v182c0 73.333 20.833 131 62.5 173s94.834 63 159.501 63s117.834 -21 159.501 -63s62.5 -99.667 62.5 -173v-182
c0 -73.333 -20.833 -131 -62.5 -173s-94.834 -63 -159.501 -63zM287.002 602.999c-56 0 -100 -17.167 -132 -51.5s-48 -81.833 -48 -142.5v-182c0 -60.667 16 -108.167 48 -142.5s76 -51.5 132 -51.5s100 17.167 132 51.5s48 81.833 48 142.5v182
c0 60.667 -16 108.167 -48 142.5s-76 51.5 -132 51.5z" />
    <glyph glyph-name="Odieresis" unicode="&#xd6;" horiz-adv-x="574" 
d="M314 742c0 9.33301 5 17.666 15 24.999s20.333 11 31 11c10 0 20.167 -3.66699 30.5 -11s15.5 -15.666 15.5 -24.999s-5.16699 -17.666 -15.5 -24.999s-20.5 -11 -30.5 -11c-10.667 0 -21 3.66699 -31 11s-15 15.666 -15 24.999zM168 742c0 9.33301 5 17.666 15 24.999
s20.333 11 31 11c10 0 20.167 -3.66699 30.5 -11s15.5 -15.666 15.5 -24.999s-5.16699 -17.666 -15.5 -24.999s-20.5 -11 -30.5 -11c-10.667 0 -21 3.66699 -31 11s-15 15.666 -15 24.999zM287 -9c-64.667 0 -117.834 21 -159.501 63s-62.5 99.667 -62.5 173v182
c0 73.333 20.833 131 62.5 173s94.834 63 159.501 63s117.834 -21 159.501 -63s62.5 -99.667 62.5 -173v-182c0 -73.333 -20.833 -131 -62.5 -173s-94.834 -63 -159.501 -63zM287 603c-56 0 -100 -17.167 -132 -51.5s-48 -81.833 -48 -142.5v-182
c0 -60.667 16 -108.167 48 -142.5s76 -51.5 132 -51.5s100 17.167 132 51.5s48 81.833 48 142.5v182c0 60.667 -16 108.167 -48 142.5s-76 51.5 -132 51.5z" />
    <glyph glyph-name="multiply" unicode="&#xd7;" horiz-adv-x="491" 
d="M71 384c0 4.66699 2.16797 9.16797 6.50098 13.501s8.83301 6.5 13.5 6.5c6 0 12.667 -3.66699 20 -11l135 -133l133 133c7.33301 7.33301 14.333 11 21 11c4 0 8.33301 -1.83301 13 -5.5s7 -8.16699 7 -13.5c0 -7.33301 -4 -14.333 -12 -21l-133 -134l133 -133
c8 -7.33301 12 -14 12 -20c0 -4.66699 -2.33301 -9.33398 -7 -14.001s-9.33398 -7 -14.001 -7c-6 0 -12.667 4 -20 12l-133 133l-135 -133c-7.33301 -8 -14.333 -12 -21 -12c-4 0 -8.16699 1.83301 -12.5 5.5s-6.5 8.5 -6.5 14.5c0 6.66699 3.66699 13.667 11 21l133 133
l-133 134c-7.33301 7.33301 -11 14 -11 20z" />
    <glyph glyph-name="Oslash" unicode="&#xd8;" horiz-adv-x="574" 
d="M287 603c-56 0 -99.999 -17.167 -131.999 -51.5s-48 -81.833 -48 -142.5v-182c0 -50.667 11 -92 33 -124l266 461c-30.667 26 -70.334 39 -119.001 39zM460.001 638c2 0 4.50098 -0.5 7.50098 -1.5s6 -3.16699 9 -6.5s4.5 -7.33301 4.5 -12c0 -4 -1.66699 -10 -5 -18
l-19 -30c34.667 -42 52 -95.667 52 -161v-182c0 -73.333 -20.833 -131 -62.5 -173s-94.834 -63 -159.501 -63c-54.667 0 -100.667 14.667 -138 44l-12 -21c-6 -10.667 -13.333 -16 -22 -16c-3.33301 0 -7.5 1.5 -12.5 4.5s-7.5 7.83301 -7.5 14.5c0 4.66699 1.66699 11 5 19
l17 29c-34.667 40.667 -52 94.667 -52 162v182c0 73.333 20.833 131 62.5 173s94.834 63 159.501 63c55.333 0 101.666 -15 138.999 -45l13 22c6 10.667 13 16 21 16zM435.002 531l-266 -460c30.667 -25.333 70 -38 118 -38c56 0 100 17.167 132 51.5s48 81.833 48 142.5
v182c0 50 -10.667 90.667 -32 122z" />
    <glyph glyph-name="Ugrave" unicode="&#xd9;" horiz-adv-x="598" 
d="M198 783c0 6 2.16699 11 6.5 15s8.83301 6 13.5 6c6 0 13 -4.33301 21 -13l96 -115c5.33301 -6 8 -12.667 8 -20c0 -5.33301 -2.16699 -10 -6.5 -14s-8.83301 -6 -13.5 -6c-6 0 -13 4.33301 -21 13l-96 115c-5.33301 6 -8 12.333 -8 19zM479 615
c0 18.667 7.33496 28 22.002 28c13.333 0 20 -9.33301 20 -28v-388c0 -73.333 -20.833 -131 -62.5 -173s-94.834 -63 -159.501 -63s-117.834 21 -159.501 63s-62.5 99.667 -62.5 173v388c0 18.667 7 28 21 28s21 -9.33301 21 -28v-388c0 -60.667 16 -108.167 48 -142.5
s76 -51.5 132 -51.5s100 17.167 132 51.5s48 81.833 48 142.5v388z" />
    <glyph glyph-name="Uacute" unicode="&#xda;" horiz-adv-x="598" 
d="M424 783c0 -6.66699 -2.66699 -13 -8 -19l-96 -115c-8 -8.66699 -15 -13 -21 -13c-4.66699 0 -9.16699 2 -13.5 6s-6.5 8.66699 -6.5 14c0 7.33301 2.66699 14 8 20l96 115c8 8.66699 15 13 21 13c4.66699 0 9.16699 -2 13.5 -6s6.5 -9 6.5 -15zM479 615
c0 18.667 7.33496 28 22.002 28c13.333 0 20 -9.33301 20 -28v-388c0 -73.333 -20.833 -131 -62.5 -173s-94.834 -63 -159.501 -63s-117.834 21 -159.501 63s-62.5 99.667 -62.5 173v388c0 18.667 7 28 21 28s21 -9.33301 21 -28v-388c0 -60.667 16 -108.167 48 -142.5
s76 -51.5 132 -51.5s100 17.167 132 51.5s48 81.833 48 142.5v388z" />
    <glyph glyph-name="Ucircumflex" unicode="&#xdb;" horiz-adv-x="598" 
d="M300 773h-3l-92 -104c-10.667 -12 -18.667 -18 -24 -18c-12 0 -18 6 -18 18c0 6 1.33301 10.333 4 13l104 137h55l106 -137c2.66699 -3.33301 4 -7.66602 4 -12.999c0 -12 -6 -18 -18 -18c-2.66699 0 -5.16699 0.5 -7.5 1.5s-4 2 -5 3s-2.83301 3.16699 -5.5 6.5
s-4.66699 5.66602 -6 6.99902zM479 615c0 18.667 7.33496 28 22.002 28c13.333 0 20 -9.33301 20 -28v-388c0 -73.333 -20.833 -131 -62.5 -173s-94.834 -63 -159.501 -63s-117.834 21 -159.501 63s-62.5 99.667 -62.5 173v388c0 18.667 7 28 21 28s21 -9.33301 21 -28v-388
c0 -60.667 16 -108.167 48 -142.5s76 -51.5 132 -51.5s100 17.167 132 51.5s48 81.833 48 142.5v388z" />
    <glyph glyph-name="Udieresis" unicode="&#xdc;" horiz-adv-x="598" 
d="M327 742c0 9.33301 5 17.666 15 24.999s20.333 11 31 11c10 0 20.167 -3.66699 30.5 -11s15.5 -15.666 15.5 -24.999s-5.16699 -17.666 -15.5 -24.999s-20.5 -11 -30.5 -11c-10.667 0 -21 3.66699 -31 11s-15 15.666 -15 24.999zM181 742c0 9.33301 5 17.666 15 24.999
s20.333 11 31 11c10 0 20.167 -3.66699 30.5 -11s15.5 -15.666 15.5 -24.999s-5.16699 -17.666 -15.5 -24.999s-20.5 -11 -30.5 -11c-10.667 0 -21 3.66699 -31 11s-15 15.666 -15 24.999zM479 615c0 18.667 7.33496 28 22.002 28c13.333 0 20 -9.33301 20 -28v-388
c0 -73.333 -20.833 -131 -62.5 -173s-94.834 -63 -159.501 -63s-117.834 21 -159.501 63s-62.5 99.667 -62.5 173v388c0 18.667 7 28 21 28s21 -9.33301 21 -28v-388c0 -60.667 16 -108.167 48 -142.5s76 -51.5 132 -51.5s100 17.167 132 51.5s48 81.833 48 142.5v388z" />
    <glyph glyph-name="Yacute" unicode="&#xdd;" horiz-adv-x="499" 
d="M374 783c0 -6.66699 -2.66699 -13 -8 -19l-96 -115c-8 -8.66699 -15 -13 -21 -13c-4.66699 0 -9.16699 2 -13.5 6s-6.5 8.66699 -6.5 14c0 7.33301 2.66699 14 8 20l96 115c8 8.66699 15 13 21 13c4.66699 0 9.16699 -2 13.5 -6s6.5 -9 6.5 -15zM229 310l-206 294
c-4.66699 6.66699 -7 13 -7 19c0 5.33301 2.16699 10 6.5 14s8.83301 6 13.5 6c6.66699 0 13.667 -5.33301 21 -16l192 -273l191 273c8.66699 10.667 16 16 22 16c4.66699 0 9.16699 -2 13.5 -6s6.5 -8.66699 6.5 -14c0 -6 -2.33301 -12.333 -7 -19l-205 -294v-290
c0 -18 -7 -27 -21 -27c-13.333 0 -20 9 -20 27v290z" />
    <glyph glyph-name="Thorn" unicode="&#xde;" horiz-adv-x="500" 
d="M126 461h173c52 0 92.667 -12.667 122 -38s44 -62.666 44 -111.999c0 -48.667 -14.833 -85.834 -44.5 -111.501s-70.5 -38.5 -122.5 -38.5h-172v-141c0 -18 -7.33301 -27 -22 -27c-13.333 0 -20 9 -20 27v553c0 18.667 7 28 21 28s21 -9.33301 21 -28v-112zM126 419
l-0.00195312 -216h130c60.667 0 103.334 6.83301 128.001 20.5s37.334 42.5 38.001 86.5c0 44 -12.5 73.167 -37.5 87.5s-67.5 21.5 -127.5 21.5h-131z" />
    <glyph glyph-name="germandbls" unicode="&#xdf;" horiz-adv-x="442" 
d="M161 360l-0.000976562 42.0049c40 0 72.333 10.333 97 31s37 52 37 94c0 20 -7.16699 36.167 -21.5 48.5s-34.166 18.5 -59.499 18.5c-18 0 -32.667 -1.33301 -44 -4s-22.666 -8.16699 -33.999 -16.5s-19.5 -21.833 -24.5 -40.5s-7.5 -42.667 -7.5 -72v-437
c0 -20.667 -7.66699 -31 -23 -31c-12.667 0 -19 10.333 -19 31v395c-20.667 0 -31 7.33301 -31 22c0 13.333 10.333 20 31 20c0 36.667 4.5 67.167 13.5 91.5s21.5 42.166 37.5 53.499s31.833 19.166 47.5 23.499s33.5 6.5 53.5 6.5c39.333 0 69.666 -11 90.999 -33
s32 -48 32 -78c0 -62.667 -26.667 -109.667 -80 -141c98.667 -25.333 148 -88.333 148 -189c0 -40.667 -4.33301 -75.834 -13 -105.501s-20.5 -52 -35.5 -67s-30.333 -25.833 -46 -32.5s-32.167 -10 -49.5 -10c-26.667 0 -51.667 9.16699 -75 27.5s-35 44.5 -35 78.5
c0 20.667 7 31 21 31s21 -9.66699 21 -29c0 -22.667 7.5 -39.334 22.5 -50.001s32.833 -16 53.5 -16c24.667 0 46.5 12.333 65.5 37s28.5 70 28.5 136c0 47.333 -17.5 86.666 -52.5 117.999s-84.833 47 -149.5 47z" />
    <glyph glyph-name="agrave" unicode="&#xe0;" horiz-adv-x="534" 
d="M160 654c0 6 2.16699 11 6.5 15s8.83301 6 13.5 6c6 0 13 -4.33301 21 -13l96 -115c5.33301 -6 8 -12.667 8 -20c0 -5.33301 -2.16699 -10 -6.5 -14s-8.83301 -6 -13.5 -6c-6 0 -13 4.33301 -21 13l-96 115c-5.33301 6 -8 12.333 -8 19zM268 248
c-32 0 -56.834 -1.16699 -74.501 -3.5s-34.167 -8 -49.5 -17s-26.166 -22.5 -32.499 -40.5s-9.5 -42 -9.5 -72c0 -18.667 6.16699 -35.5 18.5 -50.5s26.166 -22.5 41.499 -22.5h93c52.667 0 93.334 16 122.001 48s43 78 43 138v20h-152zM267.999 290l152.001 -0.000976562
v64c0 23.333 -4.33301 40 -13 50s-24.334 15 -47.001 15h-141c-78 0 -117 -21.667 -117 -65c0 -20 -7.33301 -30 -22 -30c-13.333 0 -20 10 -20 30c0 36 14.167 62.833 42.5 80.5s64.833 26.5 109.5 26.5h155c36.667 0 61.667 -9 75 -27s20 -50.333 20 -97v-314
c0 -20 -7 -30 -21 -30s-21 10 -21 30v49c-36 -48 -91 -72 -165 -72h-93c-30 0 -54.5 10.833 -73.5 32.5s-28.5 50.834 -28.5 87.501c0 28 3.33301 52.333 10 73s15.667 37.167 27 49.5s26 22 44 29s37 11.833 57 14.5s43.333 4 70 4z" />
    <glyph glyph-name="aacute" unicode="&#xe1;" horiz-adv-x="534" 
d="M386 657c0 -6.66699 -2.66699 -13 -8 -19l-96 -115c-8 -8.66699 -15 -13 -21 -13c-4.66699 0 -9.16699 2 -13.5 6s-6.5 8.66699 -6.5 14c0 7.33301 2.66699 14 8 20l96 115c8 8.66699 15 13 21 13c4.66699 0 9.16699 -2 13.5 -6s6.5 -9 6.5 -15zM268 248
c-32 0 -56.834 -1.16699 -74.501 -3.5s-34.167 -8 -49.5 -17s-26.166 -22.5 -32.499 -40.5s-9.5 -42 -9.5 -72c0 -18.667 6.16699 -35.5 18.5 -50.5s26.166 -22.5 41.499 -22.5h93c52.667 0 93.334 16 122.001 48s43 78 43 138v20h-152zM267.999 290l152.001 -0.000976562
v64c0 23.333 -4.33301 40 -13 50s-24.334 15 -47.001 15h-141c-78 0 -117 -21.667 -117 -65c0 -20 -7.33301 -30 -22 -30c-13.333 0 -20 10 -20 30c0 36 14.167 62.833 42.5 80.5s64.833 26.5 109.5 26.5h155c36.667 0 61.667 -9 75 -27s20 -50.333 20 -97v-314
c0 -20 -7 -30 -21 -30s-21 10 -21 30v49c-36 -48 -91 -72 -165 -72h-93c-30 0 -54.5 10.833 -73.5 32.5s-28.5 50.834 -28.5 87.501c0 28 3.33301 52.333 10 73s15.667 37.167 27 49.5s26 22 44 29s37 11.833 57 14.5s43.333 4 70 4z" />
    <glyph glyph-name="acircumflex" unicode="&#xe2;" horiz-adv-x="534" 
d="M262 644l-3.00098 -0.000976562l-92 -104c-1.33301 -1.33301 -3.16602 -3.33301 -5.49902 -6s-4 -4.5 -5 -5.5s-2.33301 -2.16699 -4 -3.5s-3.16699 -2.16602 -4.5 -2.49902s-3 -0.5 -5 -0.5c-12 0 -18 6 -18 18c0 6 1.33301 10.333 4 13l104 137h55l106 -137
c2.66699 -3.33301 4 -7.66602 4 -12.999c0 -12 -6 -18 -18 -18c-2.66699 0 -5.16699 0.5 -7.5 1.5s-4 2 -5 3s-2.83301 3.16699 -5.5 6.5s-4.66699 5.66602 -6 6.99902zM267.999 247.999c-32 0 -56.834 -1.16699 -74.501 -3.5s-34.167 -8 -49.5 -17
s-26.166 -22.5 -32.499 -40.5s-9.5 -42 -9.5 -72c0 -18.667 6.16699 -35.5 18.5 -50.5s26.166 -22.5 41.499 -22.5h93c52.667 0 93.334 16 122.001 48s43 78 43 138v20h-152zM267.998 289.999l152.001 -0.000976562v64c0 23.333 -4.33301 40 -13 50s-24.334 15 -47.001 15
h-141c-78 0 -117 -21.667 -117 -65c0 -20 -7.33301 -30 -22 -30c-13.333 0 -20 10 -20 30c0 36 14.167 62.833 42.5 80.5s64.833 26.5 109.5 26.5h155c36.667 0 61.667 -9 75 -27s20 -50.333 20 -97v-314c0 -20 -7 -30 -21 -30s-21 10 -21 30v49c-36 -48 -91 -72 -165 -72
h-93c-30 0 -54.5 10.833 -73.5 32.5s-28.5 50.834 -28.5 87.501c0 28 3.33301 52.333 10 73s15.667 37.167 27 49.5s26 22 44 29s37 11.833 57 14.5s43.333 4 70 4z" />
    <glyph glyph-name="atilde" unicode="&#xe3;" horiz-adv-x="534" 
d="M309 571c2.66699 -1.33301 5.00195 -2.00098 7.00195 -2.00098c2.66699 0 6.33398 1.66699 11.001 5l31 28c7.33301 5.33301 13.666 8 18.999 8s10.166 -1.66699 14.499 -5s6.5 -7.66602 6.5 -12.999c0 -8 -4 -15.667 -12 -23l-47 -39c-4.66699 -4.66699 -10 -7 -16 -7
c-2.66699 0 -6 0.666992 -10 2l-98 36c-2.66699 1.33301 -5.33398 2 -8.00098 2s-6.33398 -1.66699 -11.001 -5l-31 -28c-7.33301 -5.33301 -13.666 -8 -18.999 -8c-4.66699 0 -9.16699 1.83301 -13.5 5.5s-6.5 8.16699 -6.5 13.5c0 8.66699 4 16 12 22l47 39
c3.33301 4.66699 8.33301 7 15 7c2 0 5.66699 -0.666992 11 -2zM268.002 247.999c-32 0 -56.834 -1.16699 -74.501 -3.5s-34.167 -8 -49.5 -17s-26.166 -22.5 -32.499 -40.5s-9.5 -42 -9.5 -72c0 -18.667 6.16699 -35.5 18.5 -50.5s26.166 -22.5 41.499 -22.5h93
c52.667 0 93.334 16 122.001 48s43 78 43 138v20h-152zM268.001 289.999l152.001 -0.000976562v64c0 23.333 -4.33301 40 -13 50s-24.334 15 -47.001 15h-141c-78 0 -117 -21.667 -117 -65c0 -20 -7.33301 -30 -22 -30c-13.333 0 -20 10 -20 30
c0 36 14.167 62.833 42.5 80.5s64.833 26.5 109.5 26.5h155c36.667 0 61.667 -9 75 -27s20 -50.333 20 -97v-314c0 -20 -7 -30 -21 -30s-21 10 -21 30v49c-36 -48 -91 -72 -165 -72h-93c-30 0 -54.5 10.833 -73.5 32.5s-28.5 50.834 -28.5 87.501c0 28 3.33301 52.333 10 73
s15.667 37.167 27 49.5s26 22 44 29s37 11.833 57 14.5s43.333 4 70 4z" />
    <glyph glyph-name="adieresis" unicode="&#xe4;" horiz-adv-x="534" 
d="M288 558c0 9.33301 5 17.666 15 24.999s20.333 11 31 11c10 0 20.167 -3.66699 30.5 -11s15.5 -15.666 15.5 -24.999s-5.16699 -17.666 -15.5 -24.999s-20.5 -11 -30.5 -11c-10.667 0 -21 3.66699 -31 11s-15 15.666 -15 24.999zM142 558c0 9.33301 5 17.666 15 24.999
s20.333 11 31 11c10 0 20.167 -3.66699 30.5 -11s15.5 -15.666 15.5 -24.999s-5.16699 -17.666 -15.5 -24.999s-20.5 -11 -30.5 -11c-10.667 0 -21 3.66699 -31 11s-15 15.666 -15 24.999zM268 248c-32 0 -56.834 -1.16699 -74.501 -3.5s-34.167 -8 -49.5 -17
s-26.166 -22.5 -32.499 -40.5s-9.5 -42 -9.5 -72c0 -18.667 6.16699 -35.5 18.5 -50.5s26.166 -22.5 41.499 -22.5h93c52.667 0 93.334 16 122.001 48s43 78 43 138v20h-152zM267.999 290l152.001 -0.000976562v64c0 23.333 -4.33301 40 -13 50s-24.334 15 -47.001 15h-141
c-78 0 -117 -21.667 -117 -65c0 -20 -7.33301 -30 -22 -30c-13.333 0 -20 10 -20 30c0 36 14.167 62.833 42.5 80.5s64.833 26.5 109.5 26.5h155c36.667 0 61.667 -9 75 -27s20 -50.333 20 -97v-314c0 -20 -7 -30 -21 -30s-21 10 -21 30v49c-36 -48 -91 -72 -165 -72h-93
c-30 0 -54.5 10.833 -73.5 32.5s-28.5 50.834 -28.5 87.501c0 28 3.33301 52.333 10 73s15.667 37.167 27 49.5s26 22 44 29s37 11.833 57 14.5s43.333 4 70 4z" />
    <glyph glyph-name="aring" unicode="&#xe5;" horiz-adv-x="534" 
d="M213 598c0 -13.333 4.83301 -24.833 14.5 -34.5s21.167 -14.5 34.5 -14.5s24.833 4.83301 34.5 14.5s14.5 21.167 14.5 34.5s-5 24.833 -15 34.5s-21.333 14.5 -34 14.5c-13.333 0 -24.833 -4.83301 -34.5 -14.5s-14.5 -21.167 -14.5 -34.5zM186 598
c0 21.333 7.5 39.333 22.5 54s32.833 22 53.5 22s38.5 -7.33301 53.5 -22s22.5 -32.667 22.5 -54s-7.5 -39.333 -22.5 -54s-32.833 -22 -53.5 -22s-38.5 7.33301 -53.5 22s-22.5 32.667 -22.5 54zM268 248c-32 0 -56.834 -1.16699 -74.501 -3.5s-34.167 -8 -49.5 -17
s-26.166 -22.5 -32.499 -40.5s-9.5 -42 -9.5 -72c0 -18.667 6.16699 -35.5 18.5 -50.5s26.166 -22.5 41.499 -22.5h93c52.667 0 93.334 16 122.001 48s43 78 43 138v20h-152zM267.999 290l152.001 -0.000976562v64c0 23.333 -4.33301 40 -13 50s-24.334 15 -47.001 15h-141
c-78 0 -117 -21.667 -117 -65c0 -20 -7.33301 -30 -22 -30c-13.333 0 -20 10 -20 30c0 36 14.167 62.833 42.5 80.5s64.833 26.5 109.5 26.5h155c36.667 0 61.667 -9 75 -27s20 -50.333 20 -97v-314c0 -20 -7 -30 -21 -30s-21 10 -21 30v49c-36 -48 -91 -72 -165 -72h-93
c-30 0 -54.5 10.833 -73.5 32.5s-28.5 50.834 -28.5 87.501c0 28 3.33301 52.333 10 73s15.667 37.167 27 49.5s26 22 44 29s37 11.833 57 14.5s43.333 4 70 4z" />
    <glyph glyph-name="ae" unicode="&#xe6;" horiz-adv-x="924" 
d="M276 253c-64 0 -108.999 -9.16699 -134.999 -27.5s-39 -55.833 -39 -112.5c0 -18.667 6.16699 -35.167 18.5 -49.5s26.166 -21.5 41.499 -21.5h92c55.333 0 97.833 17 127.5 51s44.5 80.667 44.5 140v20h-150zM822.001 295c-0.666992 50.667 -12.833 84 -36.5 100
s-69.167 24 -136.5 24h-8c-68 0 -113.667 -7.83301 -137 -23.5s-35.333 -49.167 -36 -100.5h354zM460.002 410c10.667 10.667 20.335 18.8301 29.002 24.4971s26.334 11.5 53.001 17.5s59.667 9 99 9h8c76 0 130.833 -11.667 164.5 -35s50.5 -68.666 50.5 -135.999v-37h-396
v-81c0 -30 3 -53.667 9 -71s17.167 -30.333 33.5 -39s33.666 -14.167 51.999 -16.5s44.5 -3.5 78.5 -3.5h121c23.333 0 39.166 5.16699 47.499 15.5s12.5 27.5 12.5 51.5c0 18.667 7 28 21 28s21 -10.333 21 -31c0 -34 -6.5 -60.167 -19.5 -78.5s-38.167 -27.5 -75.5 -27.5
h-128c-36.667 0 -67.5 2.16699 -92.5 6.5s-44.5 11 -58.5 20s-24.167 17.333 -30.5 25s-12.833 17.834 -19.5 30.501l-5 -6c-16.667 -23.333 -43 -41.833 -79 -55.5s-70 -20.5 -102 -20.5h-92c-29.333 0 -53.666 10.667 -72.999 32s-29 50 -29 86
c0 66.667 18.167 112.834 54.5 138.501s90.166 38.5 161.499 38.5h150v62c0 22 -4.16699 37.833 -12.5 47.5s-23.833 14.5 -46.5 14.5h-139c-84 0 -126 -21.667 -126 -65c0 -20 -7.33301 -30 -22 -30c-13.333 0 -20 10 -20 30c0 26.667 8.66699 48.5 26 65.5
s37.166 28.167 59.499 33.5s47.5 8 75.5 8h153c16 0 29.5 -1.5 40.5 -4.5s19.5 -7.66699 25.5 -14s10 -11.333 12 -15s4.66699 -9.5 8 -17.5z" />
    <glyph glyph-name="ccedilla" unicode="&#xe7;" horiz-adv-x="564" 
d="M212 -120c0 8.66699 3.33301 13 10 13c2 0 10.667 -3 26 -9s28.666 -9 39.999 -9c31.333 0 47 10.333 47 31c0 9.33301 -5 18.166 -15 26.499s-20.667 17.833 -32 28.5s-18.333 23.667 -21 39c-69.333 0 -120.833 11.833 -154.5 35.5s-50.5 70.167 -50.5 139.5v111
c0 70 17 116.667 51 140s86.333 35 157 35h141c20.667 0 37.834 -3 51.501 -9s23.334 -14.833 29.001 -26.5s9.5 -22.667 11.5 -33s3 -23.166 3 -38.499c0 -20 -7 -30 -21 -30s-21 9.33301 -21 28c0 24 -4.33301 41.167 -13 51.5s-24.334 15.5 -47.001 15.5h-134
c-32 0 -56.833 -1.16699 -74.5 -3.5s-34.167 -8 -49.5 -17s-26.166 -22.5 -32.499 -40.5s-9.5 -42 -9.5 -72v-111c0 -30 3.16699 -54 9.5 -72s17.166 -31.5 32.499 -40.5s31.833 -14.667 49.5 -17s42.5 -3.5 74.5 -3.5h134c22.667 0 38.334 5 47.001 15s13 27.333 13 52
c0 18.667 7 28 21 28s21 -10.333 21 -31c0 -14.667 -1 -27.334 -3 -38.001s-5.83301 -21.667 -11.5 -33s-15.334 -20 -29.001 -26s-30.834 -9 -51.501 -9h-101c2.66699 -10 9.83398 -19.167 21.501 -27.5s22.167 -17.166 31.5 -26.499s14 -21 14 -35
c0 -22 -8.66699 -40.167 -26 -54.5s-39 -21.5 -65 -21.5c-15.333 0 -31.5 3.5 -48.5 10.5s-25.5 18.5 -25.5 34.5z" />
    <glyph glyph-name="egrave" unicode="&#xe8;" 
d="M181 657c0 6 2.16699 11 6.5 15s8.83301 6 13.5 6c6 0 13 -4.33301 21 -13l96 -115c5.33301 -6 8 -12.667 8 -20c0 -5.33301 -2.16699 -10 -6.5 -14s-8.83301 -6 -13.5 -6c-6 0 -13 4.33301 -21 13l-96 115c-5.33301 6 -8 12.333 -8 19zM506 286l0.00195312 -35.999h-402
v-75c0 -30 3.16699 -54 9.5 -72s17.166 -31.5 32.499 -40.5s31.833 -14.667 49.5 -17s42.5 -3.5 74.5 -3.5h134c22.667 0 38.334 5 47.001 15s13 27.333 13 52c0 18.667 7 28 21 28s21 -10.333 21 -31c0 -14.667 -1 -27.334 -3 -38.001s-5.83301 -21.667 -11.5 -33
s-15.334 -20 -29.001 -26s-30.834 -9 -51.501 -9h-141c-70.667 0 -123 11.667 -157 35s-51 70 -51 140v111c0 70 17 116.667 51 140s86.333 35 157 35h29c70 0 122 -11.667 156 -35s51 -70 51 -140zM299.002 419.001h-28.999c-61.333 0 -104.333 -7.66699 -129 -23
s-37 -50 -37 -104h360c0 54 -12.333 88.667 -37 104s-67.334 23 -128.001 23z" />
    <glyph glyph-name="eacute" unicode="&#xe9;" 
d="M410 657c0 -6.66699 -2.66699 -13 -8 -19l-96 -115c-8 -8.66699 -15 -13 -21 -13c-4.66699 0 -9.16699 2 -13.5 6s-6.5 8.66699 -6.5 14c0 7.33301 2.66699 14 8 20l96 115c8 8.66699 15 13 21 13c4.66699 0 9.16699 -2 13.5 -6s6.5 -9 6.5 -15zM506 286
l0.00195312 -35.999h-402v-75c0 -30 3.16699 -54 9.5 -72s17.166 -31.5 32.499 -40.5s31.833 -14.667 49.5 -17s42.5 -3.5 74.5 -3.5h134c22.667 0 38.334 5 47.001 15s13 27.333 13 52c0 18.667 7 28 21 28s21 -10.333 21 -31c0 -14.667 -1 -27.334 -3 -38.001
s-5.83301 -21.667 -11.5 -33s-15.334 -20 -29.001 -26s-30.834 -9 -51.501 -9h-141c-70.667 0 -123 11.667 -157 35s-51 70 -51 140v111c0 70 17 116.667 51 140s86.333 35 157 35h29c70 0 122 -11.667 156 -35s51 -70 51 -140zM299.002 419.001h-28.999
c-61.333 0 -104.333 -7.66699 -129 -23s-37 -50 -37 -104h360c0 54 -12.333 88.667 -37 104s-67.334 23 -128.001 23z" />
    <glyph glyph-name="ecircumflex" unicode="&#xea;" 
d="M285 644l-3.00098 -0.000976562l-92 -104c-1.33301 -1.33301 -3.16602 -3.33301 -5.49902 -6s-4 -4.5 -5 -5.5s-2.33301 -2.16699 -4 -3.5s-3.16699 -2.16602 -4.5 -2.49902s-3 -0.5 -5 -0.5c-12 0 -18 6 -18 18c0 6 1.33301 10.333 4 13l104 137h55l106 -137
c2.66699 -3.33301 4 -7.66602 4 -12.999c0 -12 -6 -18 -18 -18c-2.66699 0 -5.16699 0.5 -7.5 1.5s-4 2 -5 3s-2.83301 3.16699 -5.5 6.5s-4.66699 5.66602 -6 6.99902zM505.999 285.999l0.00195312 -35.999h-402v-75c0 -30 3.16699 -54 9.5 -72s17.166 -31.5 32.499 -40.5
s31.833 -14.667 49.5 -17s42.5 -3.5 74.5 -3.5h134c22.667 0 38.334 5 47.001 15s13 27.333 13 52c0 18.667 7 28 21 28s21 -10.333 21 -31c0 -14.667 -1 -27.334 -3 -38.001s-5.83301 -21.667 -11.5 -33s-15.334 -20 -29.001 -26s-30.834 -9 -51.501 -9h-141
c-70.667 0 -123 11.667 -157 35s-51 70 -51 140v111c0 70 17 116.667 51 140s86.333 35 157 35h29c70 0 122 -11.667 156 -35s51 -70 51 -140zM299.001 419h-28.999c-61.333 0 -104.333 -7.66699 -129 -23s-37 -50 -37 -104h360c0 54 -12.333 88.667 -37 104
s-67.334 23 -128.001 23z" />
    <glyph glyph-name="edieresis" unicode="&#xeb;" 
d="M312 558c0 9.33301 5 17.666 15 24.999s20.333 11 31 11c10 0 20.167 -3.66699 30.5 -11s15.5 -15.666 15.5 -24.999s-5.16699 -17.666 -15.5 -24.999s-20.5 -11 -30.5 -11c-10.667 0 -21 3.66699 -31 11s-15 15.666 -15 24.999zM166 558c0 9.33301 5 17.666 15 24.999
s20.333 11 31 11c10 0 20.167 -3.66699 30.5 -11s15.5 -15.666 15.5 -24.999s-5.16699 -17.666 -15.5 -24.999s-20.5 -11 -30.5 -11c-10.667 0 -21 3.66699 -31 11s-15 15.666 -15 24.999zM506 286l0.00195312 -35.999h-402v-75c0 -30 3.16699 -54 9.5 -72
s17.166 -31.5 32.499 -40.5s31.833 -14.667 49.5 -17s42.5 -3.5 74.5 -3.5h134c22.667 0 38.334 5 47.001 15s13 27.333 13 52c0 18.667 7 28 21 28s21 -10.333 21 -31c0 -14.667 -1 -27.334 -3 -38.001s-5.83301 -21.667 -11.5 -33s-15.334 -20 -29.001 -26
s-30.834 -9 -51.501 -9h-141c-70.667 0 -123 11.667 -157 35s-51 70 -51 140v111c0 70 17 116.667 51 140s86.333 35 157 35h29c70 0 122 -11.667 156 -35s51 -70 51 -140zM299.002 419.001h-28.999c-61.333 0 -104.333 -7.66699 -129 -23s-37 -50 -37 -104h360
c0 54 -12.333 88.667 -37 104s-67.334 23 -128.001 23z" />
    <glyph glyph-name="igrave" unicode="&#xec;" horiz-adv-x="190" 
d="M-29 658c0 6 2.16699 11 6.5 15s8.83301 6 13.5 6c6 0 13 -4.33301 21 -13l96 -115c5.33301 -6 8 -12.667 8 -20c0 -5.33301 -2.16699 -10 -6.5 -14s-8.83301 -6 -13.5 -6c-6 0 -13 4.33301 -21 13l-96 115c-5.33301 6 -8 12.333 -8 19zM116 20
c0 -18 -7.33301 -27 -22 -27c-13.333 0 -20 9 -20 27v420c0 18.667 7 28 21 28s21 -9.33301 21 -28v-420z" />
    <glyph glyph-name="iacute" unicode="&#xed;" horiz-adv-x="190" 
d="M219 657c0 -6.66699 -2.66699 -13 -8 -19l-96 -115c-8 -8.66699 -15 -13 -21 -13c-4.66699 0 -9.16699 2 -13.5 6s-6.5 8.66699 -6.5 14c0 7.33301 2.66699 14 8 20l96 115c8 8.66699 15 13 21 13c4.66699 0 9.16699 -2 13.5 -6s6.5 -9 6.5 -15zM116 20
c0 -18 -7.33301 -27 -22 -27c-13.333 0 -20 9 -20 27v420c0 18.667 7 28 21 28s21 -9.33301 21 -28v-420z" />
    <glyph glyph-name="icircumflex" unicode="&#xee;" horiz-adv-x="190" 
d="M96 651l-3.00098 -0.000976562l-92 -104c-1.33301 -1.33301 -3.16602 -3.33301 -5.49902 -6s-4 -4.5 -5 -5.5s-2.33301 -2.16699 -4 -3.5s-3.16699 -2.16602 -4.5 -2.49902s-3 -0.5 -5 -0.5c-12 0 -18 6 -18 18c0 6 1.33301 10.333 4 13l104 137h55l106 -137
c2.66699 -3.33301 4 -7.66602 4 -12.999c0 -12 -6 -18 -18 -18c-2.66699 0 -5.16699 0.5 -7.5 1.5s-4 2 -5 3s-2.83301 3.16699 -5.5 6.5s-4.66699 5.66602 -6 6.99902zM115.999 19.999c0 -18 -7.33301 -27 -22 -27c-13.333 0 -20 9 -20 27v420c0 18.667 7 28 21 28
s21 -9.33301 21 -28v-420z" />
    <glyph glyph-name="idieresis" unicode="&#xef;" horiz-adv-x="190" 
d="M122 565c0 9.33301 5 17.666 15 24.999s20.333 11 31 11c10 0 20.167 -3.66699 30.5 -11s15.5 -15.666 15.5 -24.999s-5.16699 -17.666 -15.5 -24.999s-20.5 -11 -30.5 -11c-10.667 0 -21 3.66699 -31 11s-15 15.666 -15 24.999zM-24 565c0 9.33301 5 17.666 15 24.999
s20.333 11 31 11c10 0 20.167 -3.66699 30.5 -11s15.5 -15.666 15.5 -24.999s-5.16699 -17.666 -15.5 -24.999s-20.5 -11 -30.5 -11c-10.667 0 -21 3.66699 -31 11s-15 15.666 -15 24.999zM116 20c0 -18 -7.33301 -27 -22 -27c-13.333 0 -20 9 -20 27v420
c0 18.667 7 28 21 28s21 -9.33301 21 -28v-420z" />
    <glyph glyph-name="eth" unicode="&#xf0;" horiz-adv-x="546" 
d="M148 593c-17.333 0 -26 6.66699 -26 20c0 15.333 8.66699 23 26 23c47.333 0 91 -9 131 -27l34 34c7.33301 7.33301 14.333 11 21 11c4.66699 0 9.16699 -1.83301 13.5 -5.5s6.5 -8.16699 6.5 -13.5c0 -6.66699 -3.66699 -14 -11 -22l-25 -24
c115.333 -70.667 173 -193.334 173 -368.001c0 -65.333 -18.667 -121.166 -56 -167.499s-87.666 -69.5 -150.999 -69.5c-69.333 0 -126.166 21 -170.499 63s-66.5 99.667 -66.5 173c0 74 22.167 131.833 66.5 173.5s101.166 62.5 170.499 62.5
c54.667 0 99.667 -17.667 135 -53c-28 70.667 -72 122 -132 154l-50 -49c-7.33301 -7.33301 -14 -11 -20 -11c-4.66699 0 -9.33398 2 -14.001 6s-7 8.66699 -7 14c0 4.66699 4 11.667 12 21l38 37c-32 12 -64.667 18 -98 18zM449 221
c0 53.333 -13.8311 98.833 -41.498 136.5s-68.834 56.5 -123.501 56.5c-58.667 0 -105.834 -18 -141.501 -54s-53.5 -82.667 -53.5 -140c0 -56.667 17.833 -103.167 53.5 -139.5s82.834 -54.5 141.501 -54.5c53.333 0 94.166 20.5 122.499 61.5s42.5 85.5 42.5 133.5z" />
    <glyph glyph-name="ntilde" unicode="&#xf1;" horiz-adv-x="587" 
d="M343 578c2.66699 -1.33301 5.00195 -2.00098 7.00195 -2.00098c2.66699 0 6.33398 1.66699 11.001 5l31 28c7.33301 5.33301 13.666 8 18.999 8s10.166 -1.66699 14.499 -5s6.5 -7.66602 6.5 -12.999c0 -8 -4 -15.667 -12 -23l-47 -39c-4.66699 -4.66699 -10 -7 -16 -7
c-2.66699 0 -6 0.666992 -10 2l-98 36c-2.66699 1.33301 -5.33398 2 -8.00098 2s-6.33398 -1.66699 -11.001 -5l-31 -28c-7.33301 -5.33301 -13.666 -8 -18.999 -8c-4.66699 0 -9.16699 1.83301 -13.5 5.5s-6.5 8.16699 -6.5 13.5c0 8.66699 4 16 12 22l47 39
c3.33301 4.66699 8.33301 7 15 7c2 0 5.66699 -0.666992 11 -2zM282.002 418.999c-53.333 0 -94.333 -16.167 -123 -48.5s-43 -78.5 -43 -138.5v-209c0 -20 -7 -30 -21 -30s-21 10 -21 30v414c0 20.667 6.33301 31 19 31c15.333 0 23 -10.333 23 -31v-48
c37.333 48 92.666 72 165.999 72h29c70 0 122 -11.667 156 -35s51 -70 51 -140v-263c0 -20 -6.66699 -30 -20 -30c-14.667 0 -22 10 -22 30v263c0 30 -3.16699 54 -9.5 72s-17.166 31.5 -32.499 40.5s-31.833 14.667 -49.5 17s-42.167 3.5 -73.5 3.5h-29z" />
    <glyph glyph-name="ograve" unicode="&#xf2;" horiz-adv-x="568" 
d="M183 657c0 6 2.16699 11 6.5 15s8.83301 6 13.5 6c6 0 13 -4.33301 21 -13l96 -115c5.33301 -6 8 -12.667 8 -20c0 -5.33301 -2.16699 -10 -6.5 -14s-8.83301 -6 -13.5 -6c-6 0 -13 4.33301 -21 13l-96 115c-5.33301 6 -8 12.333 -8 19zM299 0h-29
c-70.667 0 -123 11.667 -157 35s-51 70 -51 140v111c0 70 17 116.667 51 140s86.333 35 157 35h29c70 0 122 -11.667 156 -35s51 -70 51 -140v-111c0 -70 -17 -116.667 -51 -140s-86 -35 -156 -35zM270 42h29c31.333 0 55.833 1.16699 73.5 3.5s34.167 8 49.5 17
s26.166 22.5 32.499 40.5s9.5 42 9.5 72v111c0 30 -3.16699 54 -9.5 72s-17.166 31.5 -32.499 40.5s-31.833 14.667 -49.5 17s-42.167 3.5 -73.5 3.5h-29c-32 0 -56.833 -1.16699 -74.5 -3.5s-34.167 -8 -49.5 -17s-26.166 -22.5 -32.499 -40.5s-9.5 -42 -9.5 -72v-111
c0 -30 3.16699 -54 9.5 -72s17.166 -31.5 32.499 -40.5s31.833 -14.667 49.5 -17s42.5 -3.5 74.5 -3.5z" />
    <glyph glyph-name="oacute" unicode="&#xf3;" horiz-adv-x="568" 
d="M408 657c0 -6.66699 -2.66699 -13 -8 -19l-96 -115c-8 -8.66699 -15 -13 -21 -13c-4.66699 0 -9.16699 2 -13.5 6s-6.5 8.66699 -6.5 14c0 7.33301 2.66699 14 8 20l96 115c8 8.66699 15 13 21 13c4.66699 0 9.16699 -2 13.5 -6s6.5 -9 6.5 -15zM299 0h-29
c-70.667 0 -123 11.667 -157 35s-51 70 -51 140v111c0 70 17 116.667 51 140s86.333 35 157 35h29c70 0 122 -11.667 156 -35s51 -70 51 -140v-111c0 -70 -17 -116.667 -51 -140s-86 -35 -156 -35zM270 42h29c31.333 0 55.833 1.16699 73.5 3.5s34.167 8 49.5 17
s26.166 22.5 32.499 40.5s9.5 42 9.5 72v111c0 30 -3.16699 54 -9.5 72s-17.166 31.5 -32.499 40.5s-31.833 14.667 -49.5 17s-42.167 3.5 -73.5 3.5h-29c-32 0 -56.833 -1.16699 -74.5 -3.5s-34.167 -8 -49.5 -17s-26.166 -22.5 -32.499 -40.5s-9.5 -42 -9.5 -72v-111
c0 -30 3.16699 -54 9.5 -72s17.166 -31.5 32.499 -40.5s31.833 -14.667 49.5 -17s42.5 -3.5 74.5 -3.5z" />
    <glyph glyph-name="ocircumflex" unicode="&#xf4;" horiz-adv-x="568" 
d="M285 644l-3.00098 -0.000976562l-92 -104c-1.33301 -1.33301 -3.16602 -3.33301 -5.49902 -6s-4 -4.5 -5 -5.5s-2.33301 -2.16699 -4 -3.5s-3.16699 -2.16602 -4.5 -2.49902s-3 -0.5 -5 -0.5c-12 0 -18 6 -18 18c0 6 1.33301 10.333 4 13l104 137h55l106 -137
c2.66699 -3.33301 4 -7.66602 4 -12.999c0 -12 -6 -18 -18 -18c-2.66699 0 -5.16699 0.5 -7.5 1.5s-4 2 -5 3s-2.83301 3.16699 -5.5 6.5s-4.66699 5.66602 -6 6.99902zM298.999 -0.000976562h-29c-70.667 0 -123 11.667 -157 35s-51 70 -51 140v111c0 70 17 116.667 51 140
s86.333 35 157 35h29c70 0 122 -11.667 156 -35s51 -70 51 -140v-111c0 -70 -17 -116.667 -51 -140s-86 -35 -156 -35zM269.999 41.999h29c31.333 0 55.833 1.16699 73.5 3.5s34.167 8 49.5 17s26.166 22.5 32.499 40.5s9.5 42 9.5 72v111c0 30 -3.16699 54 -9.5 72
s-17.166 31.5 -32.499 40.5s-31.833 14.667 -49.5 17s-42.167 3.5 -73.5 3.5h-29c-32 0 -56.833 -1.16699 -74.5 -3.5s-34.167 -8 -49.5 -17s-26.166 -22.5 -32.499 -40.5s-9.5 -42 -9.5 -72v-111c0 -30 3.16699 -54 9.5 -72s17.166 -31.5 32.499 -40.5
s31.833 -14.667 49.5 -17s42.5 -3.5 74.5 -3.5z" />
    <glyph glyph-name="otilde" unicode="&#xf5;" horiz-adv-x="568" 
d="M331 571c2.66699 -1.33301 5.00195 -2.00098 7.00195 -2.00098c2.66699 0 6.33398 1.66699 11.001 5l31 28c7.33301 5.33301 13.666 8 18.999 8s10.166 -1.66699 14.499 -5s6.5 -7.66602 6.5 -12.999c0 -8 -4 -15.667 -12 -23l-47 -39c-4.66699 -4.66699 -10 -7 -16 -7
c-2.66699 0 -6 0.666992 -10 2l-98 36c-2.66699 1.33301 -5.33398 2 -8.00098 2s-6.33398 -1.66699 -11.001 -5l-31 -28c-7.33301 -5.33301 -13.666 -8 -18.999 -8c-4.66699 0 -9.16699 1.83301 -13.5 5.5s-6.5 8.16699 -6.5 13.5c0 8.66699 4 16 12 22l47 39
c3.33301 4.66699 8.33301 7 15 7c2 0 5.66699 -0.666992 11 -2zM299.002 -0.000976562h-29c-70.667 0 -123 11.667 -157 35s-51 70 -51 140v111c0 70 17 116.667 51 140s86.333 35 157 35h29c70 0 122 -11.667 156 -35s51 -70 51 -140v-111c0 -70 -17 -116.667 -51 -140
s-86 -35 -156 -35zM270.002 41.999h29c31.333 0 55.833 1.16699 73.5 3.5s34.167 8 49.5 17s26.166 22.5 32.499 40.5s9.5 42 9.5 72v111c0 30 -3.16699 54 -9.5 72s-17.166 31.5 -32.499 40.5s-31.833 14.667 -49.5 17s-42.167 3.5 -73.5 3.5h-29
c-32 0 -56.833 -1.16699 -74.5 -3.5s-34.167 -8 -49.5 -17s-26.166 -22.5 -32.499 -40.5s-9.5 -42 -9.5 -72v-111c0 -30 3.16699 -54 9.5 -72s17.166 -31.5 32.499 -40.5s31.833 -14.667 49.5 -17s42.5 -3.5 74.5 -3.5z" />
    <glyph glyph-name="odieresis" unicode="&#xf6;" horiz-adv-x="568" 
d="M312 558c0 9.33301 5 17.666 15 24.999s20.333 11 31 11c10 0 20.167 -3.66699 30.5 -11s15.5 -15.666 15.5 -24.999s-5.16699 -17.666 -15.5 -24.999s-20.5 -11 -30.5 -11c-10.667 0 -21 3.66699 -31 11s-15 15.666 -15 24.999zM166 558c0 9.33301 5 17.666 15 24.999
s20.333 11 31 11c10 0 20.167 -3.66699 30.5 -11s15.5 -15.666 15.5 -24.999s-5.16699 -17.666 -15.5 -24.999s-20.5 -11 -30.5 -11c-10.667 0 -21 3.66699 -31 11s-15 15.666 -15 24.999zM299 0h-29c-70.667 0 -123 11.667 -157 35s-51 70 -51 140v111
c0 70 17 116.667 51 140s86.333 35 157 35h29c70 0 122 -11.667 156 -35s51 -70 51 -140v-111c0 -70 -17 -116.667 -51 -140s-86 -35 -156 -35zM270 42h29c31.333 0 55.833 1.16699 73.5 3.5s34.167 8 49.5 17s26.166 22.5 32.499 40.5s9.5 42 9.5 72v111
c0 30 -3.16699 54 -9.5 72s-17.166 31.5 -32.499 40.5s-31.833 14.667 -49.5 17s-42.167 3.5 -73.5 3.5h-29c-32 0 -56.833 -1.16699 -74.5 -3.5s-34.167 -8 -49.5 -17s-26.166 -22.5 -32.499 -40.5s-9.5 -42 -9.5 -72v-111c0 -30 3.16699 -54 9.5 -72
s17.166 -31.5 32.499 -40.5s31.833 -14.667 49.5 -17s42.5 -3.5 74.5 -3.5z" />
    <glyph glyph-name="divide" unicode="&#xf7;" horiz-adv-x="440" 
d="M170 333c0 9.33301 5 17.666 15 24.999s20.333 11 31 11c10 0 20.167 -3.66699 30.5 -11s15.5 -15.666 15.5 -24.999s-5.16699 -17.666 -15.5 -24.999s-20.5 -11 -30.5 -11c-10.667 0 -21 3.66699 -31 11s-15 15.666 -15 24.999zM170 128c0 9.33301 5 17.666 15 24.999
s20.333 11 31 11c10 0 20.167 -3.66699 30.5 -11s15.5 -15.666 15.5 -24.999s-5.16699 -17.666 -15.5 -24.999s-20.5 -11 -30.5 -11c-10.667 0 -21 3.66699 -31 11s-15 15.666 -15 24.999zM96 209c-17.333 0 -26 7.33301 -26 22c0 14 8.66699 21 26 21h245
c19.333 0 29 -7.66699 29 -23c0 -13.333 -9.66699 -20 -29 -20h-245z" />
    <glyph glyph-name="oslash" unicode="&#xf8;" horiz-adv-x="568" 
d="M467 469c4.66699 0 9.33203 -2 13.999 -6s7 -8.66699 7 -14c0 -6 -3 -12.667 -9 -20l-12 -14c26 -27.333 39 -70.333 39 -129v-111c0 -70 -17 -116.667 -51 -140s-86 -35 -156 -35h-29c-59.333 0 -103.666 6.66699 -132.999 20l-14 -15
c-7.33301 -8.66699 -14.333 -13 -21 -13c-4.66699 0 -9.33398 2 -14.001 6s-7 8.66699 -7 14s3.33301 12 10 20l11 13c-26.667 28 -40 71.333 -40 130v111c0 70 17 116.667 51 140s86.333 35 157 35h29c60.667 0 105.334 -7.33301 134.001 -22l13 17
c7.33301 8.66699 14.333 13 21 13zM269.998 42l29.002 0.000976562c31.333 0 55.833 1.16699 73.5 3.5s34.167 8 49.5 17s26.166 22.5 32.499 40.5s9.5 42 9.5 72v111c0 45.333 -8 77.666 -24 96.999l-276 -330c21.333 -7.33301 56.666 -11 105.999 -11zM129 77.001
l275.998 330c-21.333 8 -56.666 12 -105.999 12h-29c-32 0 -56.833 -1.16699 -74.5 -3.5s-34.167 -8 -49.5 -17s-26.166 -22.5 -32.499 -40.5s-9.5 -42 -9.5 -72v-111c0 -46 8.33301 -78.667 25 -98z" />
    <glyph glyph-name="ugrave" unicode="&#xf9;" horiz-adv-x="588" 
d="M190 657c0 6 2.16699 11 6.5 15s8.83301 6 13.5 6c6 0 13 -4.33301 21 -13l96 -115c5.33301 -6 8 -12.667 8 -20c0 -5.33301 -2.16699 -10 -6.5 -14s-8.83301 -6 -13.5 -6c-6 0 -13 4.33301 -21 13l-96 115c-5.33301 6 -8 12.333 -8 19zM307 42
c52.667 0 93.334 16 122.001 48s43 78 43 138v210c0 20 7 30 21 30s21 -10 21 -30v-414c0 -20.667 -6.33301 -31 -19 -31c-15.333 0 -23 10.333 -23 31v48c-36 -48 -91 -72 -165 -72h-29c-70.667 0 -123 11.667 -157 35s-51 70 -51 140v263c0 20 6.66699 30 20 30
c14.667 0 22 -10 22 -30v-263c0 -30 3.16699 -54 9.5 -72s17.166 -31.5 32.499 -40.5s31.833 -14.667 49.5 -17s42.5 -3.5 74.5 -3.5h29z" />
    <glyph glyph-name="uacute" unicode="&#xfa;" horiz-adv-x="588" 
d="M417 657c0 -6.66699 -2.66699 -13 -8 -19l-96 -115c-8 -8.66699 -15 -13 -21 -13c-4.66699 0 -9.16699 2 -13.5 6s-6.5 8.66699 -6.5 14c0 7.33301 2.66699 14 8 20l96 115c8 8.66699 15 13 21 13c4.66699 0 9.16699 -2 13.5 -6s6.5 -9 6.5 -15zM307 42
c52.667 0 93.334 16 122.001 48s43 78 43 138v210c0 20 7 30 21 30s21 -10 21 -30v-414c0 -20.667 -6.33301 -31 -19 -31c-15.333 0 -23 10.333 -23 31v48c-36 -48 -91 -72 -165 -72h-29c-70.667 0 -123 11.667 -157 35s-51 70 -51 140v263c0 20 6.66699 30 20 30
c14.667 0 22 -10 22 -30v-263c0 -30 3.16699 -54 9.5 -72s17.166 -31.5 32.499 -40.5s31.833 -14.667 49.5 -17s42.5 -3.5 74.5 -3.5h29z" />
    <glyph glyph-name="ucircumflex" unicode="&#xfb;" horiz-adv-x="588" 
d="M292 651l-3.00098 -0.000976562l-92 -104c-1.33301 -1.33301 -3.16602 -3.33301 -5.49902 -6s-4 -4.5 -5 -5.5s-2.33301 -2.16699 -4 -3.5s-3.16699 -2.16602 -4.5 -2.49902s-3 -0.5 -5 -0.5c-12 0 -18 6 -18 18c0 6 1.33301 10.333 4 13l104 137h55l106 -137
c2.66699 -3.33301 4 -7.66602 4 -12.999c0 -12 -6 -18 -18 -18c-2.66699 0 -5.16699 0.5 -7.5 1.5s-4 2 -5 3s-2.83301 3.16699 -5.5 6.5s-4.66699 5.66602 -6 6.99902zM306.999 41.999c52.667 0 93.334 16 122.001 48s43 78 43 138v210c0 20 7 30 21 30s21 -10 21 -30v-414
c0 -20.667 -6.33301 -31 -19 -31c-15.333 0 -23 10.333 -23 31v48c-36 -48 -91 -72 -165 -72h-29c-70.667 0 -123 11.667 -157 35s-51 70 -51 140v263c0 20 6.66699 30 20 30c14.667 0 22 -10 22 -30v-263c0 -30 3.16699 -54 9.5 -72s17.166 -31.5 32.499 -40.5
s31.833 -14.667 49.5 -17s42.5 -3.5 74.5 -3.5h29z" />
    <glyph glyph-name="udieresis" unicode="&#xfc;" horiz-adv-x="588" 
d="M319 565c0 9.33301 5 17.666 15 24.999s20.333 11 31 11c10 0 20.167 -3.66699 30.5 -11s15.5 -15.666 15.5 -24.999s-5.16699 -17.666 -15.5 -24.999s-20.5 -11 -30.5 -11c-10.667 0 -21 3.66699 -31 11s-15 15.666 -15 24.999zM173 565c0 9.33301 5 17.666 15 24.999
s20.333 11 31 11c10 0 20.167 -3.66699 30.5 -11s15.5 -15.666 15.5 -24.999s-5.16699 -17.666 -15.5 -24.999s-20.5 -11 -30.5 -11c-10.667 0 -21 3.66699 -31 11s-15 15.666 -15 24.999zM307 42c52.667 0 93.334 16 122.001 48s43 78 43 138v210c0 20 7 30 21 30
s21 -10 21 -30v-414c0 -20.667 -6.33301 -31 -19 -31c-15.333 0 -23 10.333 -23 31v48c-36 -48 -91 -72 -165 -72h-29c-70.667 0 -123 11.667 -157 35s-51 70 -51 140v263c0 20 6.66699 30 20 30c14.667 0 22 -10 22 -30v-263c0 -30 3.16699 -54 9.5 -72
s17.166 -31.5 32.499 -40.5s31.833 -14.667 49.5 -17s42.5 -3.5 74.5 -3.5h29z" />
    <glyph glyph-name="yacute" unicode="&#xfd;" horiz-adv-x="589" 
d="M418 657c0 -6.66699 -2.66699 -13 -8 -19l-96 -115c-8 -8.66699 -15 -13 -21 -13c-4.66699 0 -9.16699 2 -13.5 6s-6.5 8.66699 -6.5 14c0 7.33301 2.66699 14 8 20l96 115c8 8.66699 15 13 21 13c4.66699 0 9.16699 -2 13.5 -6s6.5 -9 6.5 -15zM514 -92
c0 -42.667 -6 -72.166 -18 -88.499s-34.667 -24.5 -68 -24.5h-263c-20.667 0 -37.834 3 -51.501 9s-23.334 14.833 -29.001 26.5s-9.5 22.667 -11.5 33s-3 23.166 -3 38.499c0 20 7 30 21 30s21 -9.33301 21 -28c0 -24 4.33301 -41.167 13 -51.5s24.334 -15.5 47.001 -15.5
h249c20.667 0 34.334 3.83301 41.001 11.5s10 22.167 10 43.5v180c-36 -48 -91 -72 -165 -72h-29c-70.667 0 -123 11.667 -157 35s-51 70 -51 140v261c0 21.333 7 32 21 32s21 -10.667 21 -32v-261c0 -30 3.16699 -54 9.5 -72s17.166 -31.5 32.499 -40.5
s31.833 -14.667 49.5 -17s42.5 -3.5 74.5 -3.5h29c52.667 0 93.334 16 122.001 48s43 78 43 138v208c0 21.333 7.33301 32 22 32c13.333 0 20 -10.667 20 -32v-528z" />
    <glyph glyph-name="thorn" unicode="&#xfe;" horiz-adv-x="581" 
d="M477 286c0 30 -3.16699 54 -9.5 72s-17.166 31.5 -32.499 40.5s-31.833 14.667 -49.5 17s-42.167 3.5 -73.5 3.5h-29c-53.333 0 -94.333 -16.167 -123 -48.5s-43 -78.5 -43 -138.5v-190h195c31.333 0 55.833 1.16699 73.5 3.5s34.167 8 49.5 17s26.166 22.5 32.499 40.5
s9.5 42 9.5 72v111zM519 175c0 -70 -16.999 -116.667 -50.999 -140s-86 -35 -156 -35h-195v-152c0 -20 -7.66699 -30 -23 -30c-12.667 0 -19 10 -19 30v765c0 20 7 30 21 30s21 -10 21 -30v-224c37.333 48 92.666 72 165.999 72h29c70 0 122 -11.667 156 -35s51 -70 51 -140
v-111z" />
    <glyph glyph-name="ydieresis" unicode="&#xff;" horiz-adv-x="589" 
d="M320 565c0 9.33301 5 17.666 15 24.999s20.333 11 31 11c10 0 20.167 -3.66699 30.5 -11s15.5 -15.666 15.5 -24.999s-5.16699 -17.666 -15.5 -24.999s-20.5 -11 -30.5 -11c-10.667 0 -21 3.66699 -31 11s-15 15.666 -15 24.999zM174 565c0 9.33301 5 17.666 15 24.999
s20.333 11 31 11c10 0 20.167 -3.66699 30.5 -11s15.5 -15.666 15.5 -24.999s-5.16699 -17.666 -15.5 -24.999s-20.5 -11 -30.5 -11c-10.667 0 -21 3.66699 -31 11s-15 15.666 -15 24.999zM514 -92c0 -42.667 -6 -72.166 -18 -88.499s-34.667 -24.5 -68 -24.5h-263
c-20.667 0 -37.834 3 -51.501 9s-23.334 14.833 -29.001 26.5s-9.5 22.667 -11.5 33s-3 23.166 -3 38.499c0 20 7 30 21 30s21 -9.33301 21 -28c0 -24 4.33301 -41.167 13 -51.5s24.334 -15.5 47.001 -15.5h249c20.667 0 34.334 3.83301 41.001 11.5s10 22.167 10 43.5v180
c-36 -48 -91 -72 -165 -72h-29c-70.667 0 -123 11.667 -157 35s-51 70 -51 140v261c0 21.333 7 32 21 32s21 -10.667 21 -32v-261c0 -30 3.16699 -54 9.5 -72s17.166 -31.5 32.499 -40.5s31.833 -14.667 49.5 -17s42.5 -3.5 74.5 -3.5h29c52.667 0 93.334 16 122.001 48
s43 78 43 138v208c0 21.333 7.33301 32 22 32c13.333 0 20 -10.667 20 -32v-528z" />
    <glyph glyph-name="dotlessi" unicode="&#x131;" horiz-adv-x="190" 
d="M116 20c0 -18 -7.33301 -27 -22 -27c-13.333 0 -20 9 -20 27v420c0 18.667 7 28 21 28s21 -9.33301 21 -28v-420z" />
    <glyph glyph-name="OE" unicode="&#x152;" horiz-adv-x="706" 
d="M376 617c2 12.667 8 19 18 19h239c20 0 30 -6.66699 30 -20c0 -14.667 -10 -22 -30 -22h-216v-215h98c20 0 30 -7.66699 30 -23c0 -12.667 -10 -19 -30 -19h-98v-295h216c20 0 30 -7.66699 30 -23c0 -12.667 -10 -19 -30 -19h-239c-10 0 -16 6 -18 18
c-30 -18 -66 -27 -108 -27c-48.667 0 -94.667 21.833 -138 65.5s-65 100.5 -65 170.5v182c0 70 21.667 126.833 65 170.5s89.333 65.5 138 65.5c42.667 0 78.667 -9.33301 108 -28zM375 70v496c-24.667 24.667 -60.334 37 -107.001 37c-40.667 0 -77.834 -18 -111.501 -54
s-50.5 -82.667 -50.5 -140v-182c0 -57.333 16.833 -104 50.5 -140s70.834 -54 111.501 -54c46.667 0 82.334 12.333 107.001 37z" />
    <glyph glyph-name="oe" unicode="&#x153;" horiz-adv-x="727" 
d="M510 419c-39.333 0 -68.333 -7.83301 -87 -23.5s-28 -50.167 -28 -103.5h230c0 53.333 -9.33301 87.833 -28 103.5s-47.667 23.5 -87 23.5zM228 419c-51.333 0 -85 -10.5 -101 -31.5s-24 -54.833 -24 -101.5v-111c0 -46.667 8 -80.5 24 -101.5s49.667 -31.5 101 -31.5
c52 0 85.833 10.5 101.5 31.5s23.5 54.833 23.5 101.5v111c0 46.667 -7.83301 80.5 -23.5 101.5s-49.5 31.5 -101.5 31.5zM228 0c-60.667 0 -103.499 14 -128.499 42s-37.5 72.333 -37.5 133v111c0 60.667 12.5 105 37.5 133s67.833 42 128.5 42
c38 0 68.333 -5.66699 91 -17s41 -29 55 -53c22.667 46.667 68 70 136 70c48.667 0 87 -12 115 -36s42 -70.333 42 -139v-36h-272v-75c0 -28.667 4.16699 -52.5 12.5 -71.5s19.833 -32.667 34.5 -41s28.5 -13.833 41.5 -16.5s28.167 -4 45.5 -4c64 0 96 22.333 96 67
c0 18.667 6.66699 28 20 28c14.667 0 22 -10.333 22 -31c0 -22.667 -4 -41.5 -12 -56.5s-19.5 -25.833 -34.5 -32.5s-29.333 -11.167 -43 -13.5s-29.834 -3.5 -48.501 -3.5c-79.333 0 -130.333 24.667 -153 74c-13.333 -25.333 -31.333 -44 -54 -56s-54 -18 -94 -18z" />
    <glyph glyph-name="circumflex" unicode="&#x2c6;" horiz-adv-x="402" 
d="M202 632l-3.00098 -0.000976562l-92 -104c-1.33301 -1.33301 -3.16602 -3.33301 -5.49902 -6s-4 -4.5 -5 -5.5s-2.33301 -2.16699 -4 -3.5s-3.16699 -2.16602 -4.5 -2.49902s-3 -0.5 -5 -0.5c-12 0 -18 6 -18 18c0 6 1.33301 10.333 4 13l104 137h55l106 -137
c2.66699 -3.33301 4 -7.66602 4 -12.999c0 -12 -6 -18 -18 -18c-2.66699 0 -5.16699 0.5 -7.5 1.5s-4 2 -5 3s-2.83301 3.16699 -5.5 6.5s-4.66699 5.66602 -6 6.99902z" />
    <glyph glyph-name="ring" unicode="&#x2da;" horiz-adv-x="282" 
d="M92 598c0 -13.333 4.83301 -24.833 14.5 -34.5s21.167 -14.5 34.5 -14.5s24.833 4.83301 34.5 14.5s14.5 21.167 14.5 34.5s-5 24.833 -15 34.5s-21.333 14.5 -34 14.5c-13.333 0 -24.833 -4.83301 -34.5 -14.5s-14.5 -21.167 -14.5 -34.5zM65 598
c0 21.333 7.5 39.333 22.5 54s32.833 22 53.5 22s38.5 -7.33301 53.5 -22s22.5 -32.667 22.5 -54s-7.5 -39.333 -22.5 -54s-32.833 -22 -53.5 -22s-38.5 7.33301 -53.5 22s-22.5 32.667 -22.5 54z" />
    <glyph glyph-name="tilde" unicode="&#x2dc;" horiz-adv-x="401" 
d="M248 231c2.66699 -1.33301 5.00195 -2.00098 7.00195 -2.00098c2.66699 0 6.33398 1.66699 11.001 5l31 28c7.33301 5.33301 13.666 8 18.999 8s10.166 -1.66699 14.499 -5s6.5 -7.66602 6.5 -12.999c0 -8 -4 -15.667 -12 -23l-47 -39c-4.66699 -4.66699 -10 -7 -16 -7
c-2.66699 0 -6 0.666992 -10 2l-98 36c-2.66699 1.33301 -5.33398 2 -8.00098 2s-6.33398 -1.66699 -11.001 -5l-31 -28c-7.33301 -5.33301 -13.666 -8 -18.999 -8c-4.66699 0 -9.16699 1.83301 -13.5 5.5s-6.5 8.16699 -6.5 13.5c0 8.66699 4 16 12 22l47 39
c3.33301 4.66699 8.33301 7 15 7c2 0 5.66699 -0.666992 11 -2z" />
    <glyph glyph-name="uni0400" unicode="&#x400;" horiz-adv-x="577" 
d="M199 799c0 4 2.16699 8.33301 6.5 13s9.16602 7 14.499 7c6.66699 0 13.334 -3.66699 20.001 -11l70 -69c7.33301 -8.66699 11 -16 11 -22c0 -4 -2 -8.16699 -6 -12.5s-8.66699 -6.5 -14 -6.5c-7.33301 0 -14.333 3.66699 -21 11l-69 69c-8 8 -12 15 -12 21zM126 337
v-295h373c19.333 0 29 -7.66699 29 -23c0 -12.667 -9.66699 -19 -29 -19h-396c-12.667 -0 -19 10.333 -19 31v574c0 20.667 6.33301 31 19 31h396c19.333 0 29 -7.66699 29 -23c0 -12.667 -9.66699 -19 -29 -19h-373v-215h255c20 0 30 -7.66699 30 -23
c0 -12.667 -10 -19 -30 -19h-255z" />
    <glyph glyph-name="Iocyrillic" unicode="&#x401;" horiz-adv-x="577" 
d="M328 742c0 9.33301 5 17.666 15 24.999s20.333 11 31 11c10 0 20.167 -3.66699 30.5 -11s15.5 -15.666 15.5 -24.999s-5.16699 -17.666 -15.5 -24.999s-20.5 -11 -30.5 -11c-10.667 0 -21 3.66699 -31 11s-15 15.666 -15 24.999zM182 742c0 9.33301 5 17.666 15 24.999
s20.333 11 31 11c10 0 20.167 -3.66699 30.5 -11s15.5 -15.666 15.5 -24.999s-5.16699 -17.666 -15.5 -24.999s-20.5 -11 -30.5 -11c-10.667 0 -21 3.66699 -31 11s-15 15.666 -15 24.999zM126 337v-295h373c19.333 0 29 -7.66699 29 -23c0 -12.667 -9.66699 -19 -29 -19
h-396c-12.667 -0 -19 10.333 -19 31v574c0 20.667 6.33301 31 19 31h396c19.333 0 29 -7.66699 29 -23c0 -12.667 -9.66699 -19 -29 -19h-373v-215h255c20 0 30 -7.66699 30 -23c0 -12.667 -10 -19 -30 -19h-255z" />
    <glyph glyph-name="Djecyrillic" unicode="&#x402;" horiz-adv-x="682" 
d="M404 636c18.667 0 28 -7.33301 28 -22c0 -13.333 -9.33301 -20 -28 -20h-153v-205c37.333 48 92.666 72 165.999 72c70 0 122 -11.667 156 -35s51 -70 51 -140v-367c0 -51.333 -8.33301 -84.833 -25 -100.5s-42.334 -23.5 -77.001 -23.5c-20.667 0 -31 7 -31 21
s10.333 21 31 21c22.667 0 38.334 5 47.001 15s13 26.667 13 50v384c0 30 -3.16699 54 -9.5 72s-17.166 31.5 -32.499 40.5s-31.833 14.667 -49.5 17s-42.167 3.5 -73.5 3.5c-53.333 0 -94.333 -16.167 -123 -48.5s-43 -78.5 -43 -138.5v-209c0 -20 -7 -30 -21 -30
s-21 10 -21 30v571h-155c-18.667 0 -28 7 -28 21s9.33301 21 28 21h350z" />
    <glyph glyph-name="Gjecyrillic" unicode="&#x403;" horiz-adv-x="536" 
d="M391 799c0 -5.33301 -3.66699 -12.333 -11 -21l-70 -69c-6.66699 -7.33301 -13.334 -11 -20.001 -11c-5.33301 0 -10.166 2.16699 -14.499 6.5s-6.5 8.5 -6.5 12.5c0 6.66699 4 14 12 22l69 69c6.66699 7.33301 13.667 11 21 11c5.33301 0 10 -2.33301 14 -7s6 -9 6 -13z
M184 594c-22.667 0 -38.333 -5 -47 -15s-13 -26.667 -13 -50v-506c0 -20 -7.33301 -30 -22 -30c-13.333 0 -20 10 -20 30v489c0 46.667 6.66699 79 20 97s38.333 27 75 27h305c20 0 30 -7 30 -21s-10 -21 -30 -21h-298z" />
    <glyph glyph-name="Ie.ukran" unicode="&#x404;" horiz-adv-x="570" 
d="M421 636c20.667 0 37.834 -2.99902 51.501 -8.99902s23.334 -14.667 29.001 -26s9.5 -22.333 11.5 -33s3 -23.334 3 -38.001c0 -20.667 -7 -31 -21 -31s-21 9.33301 -21 28c0 24.667 -4.33301 42 -13 52s-24.334 15 -47.001 15h-134c-32 0 -56.833 -1.16699 -74.5 -3.5
s-34.167 -8 -49.5 -17s-26.166 -22.5 -32.499 -40.5s-9.5 -42 -9.5 -72v-107h254c20 0 30 -6.33301 30 -19c0 -15.333 -10 -23 -30 -23h-254v-137c0 -30 3.16699 -54 9.5 -72s17.166 -31.5 32.499 -40.5s31.833 -14.667 49.5 -17s42.5 -3.5 74.5 -3.5h134
c22.667 0 38.334 5.16699 47.001 15.5s13 27.5 13 51.5c0 18.667 7 28 21 28s21 -10 21 -30c0 -15.333 -1 -28.333 -3 -39s-5.83301 -21.667 -11.5 -33s-15.334 -20 -29.001 -26s-30.834 -9 -51.501 -9h-141c-70.667 0 -123 11.667 -157 35s-51 70 -51 140v286
c0 70 17 116.667 51 140s86.333 35 157 35h141z" />
    <glyph glyph-name="Dzecyrillic" unicode="&#x405;" horiz-adv-x="570" 
d="M104 484c0 -28 6.16699 -51.8271 18.5 -71.4941s27.5 -31.834 45.5 -36.501l217 -52c82 -20.667 123 -77.334 123 -170.001c0 -44 -12.5 -82 -37.5 -114s-66.167 -48 -123.5 -48h-76c-34.667 0 -63.5 2 -86.5 6s-44.5 12 -64.5 24s-34.667 30 -44 54s-14 54.333 -14 91
c0 18.667 7.66699 28 23 28c13.333 0 20 -9.33301 20 -28c0 -57.333 12 -93.833 36 -109.5s67.333 -23.5 130 -23.5h93c35.333 0 61.166 12.667 77.499 38s24.5 52.666 24.5 81.999c0 34 -6.83301 62 -20.5 84s-28.167 34.667 -43.5 38l-216 53
c-45.333 10.667 -77.333 28 -96 52s-28 58.333 -28 103c0 44 12.667 81.667 38 113s66.666 47 123.999 47h76c34.667 0 63.334 -2 86.001 -6s44 -11.833 64 -23.5s34.667 -29.334 44 -53.001s14 -53.834 14 -90.501c0 -18.667 -7.33301 -28 -22 -28
c-14 0 -21 9.33301 -21 28c0 30 -3 54 -9 72s-16.833 31.167 -32.5 39.5s-32.167 13.666 -49.5 15.999s-42 3.5 -74 3.5h-94c-35.333 0 -61.166 -12.5 -77.499 -37.5s-24.5 -51.833 -24.5 -80.5z" />
    <glyph glyph-name="Icyrillic" unicode="&#x406;" horiz-adv-x="210" 
d="M126 20c0 -18 -7.33301 -27 -22 -27c-13.333 0 -20 9 -20 27v595c0 18.667 7 28 21 28s21 -9.33301 21 -28v-595z" />
    <glyph glyph-name="Yicyrillic" unicode="&#x407;" horiz-adv-x="210" 
d="M132 742c0 9.33301 5 17.666 15 24.999s20.333 11 31 11c10 0 20.167 -3.66699 30.5 -11s15.5 -15.666 15.5 -24.999s-5.16699 -17.666 -15.5 -24.999s-20.5 -11 -30.5 -11c-10.667 0 -21 3.66699 -31 11s-15 15.666 -15 24.999zM-14 742c0 9.33301 5 17.666 15 24.999
s20.333 11 31 11c10 0 20.167 -3.66699 30.5 -11s15.5 -15.666 15.5 -24.999s-5.16699 -17.666 -15.5 -24.999s-20.5 -11 -30.5 -11c-10.667 0 -21 3.66699 -31 11s-15 15.666 -15 24.999zM126 20c0 -18 -7.33301 -27 -22 -27c-13.333 0 -20 9 -20 27v595
c0 18.667 7 28 21 28s21 -9.33301 21 -28v-595z" />
    <glyph glyph-name="Jecyrillic" unicode="&#x408;" horiz-adv-x="530" 
d="M241 34c32 0 56.835 1.16699 74.502 3.5s34.167 8 49.5 17s26.166 22.5 32.499 40.5s9.5 42 9.5 72v448c0 18.667 7 28 21 28s21 -9.33301 21 -28v-448c0 -36.667 -4.66699 -67 -14 -91s-24 -42 -44 -54s-41.333 -20 -64 -24s-51.334 -6 -86.001 -6s-63.5 2 -86.5 6
s-44.5 12 -64.5 24s-34.667 30 -44 54s-14 54.333 -14 91c0 18.667 7.66699 28 23 28c13.333 0 20 -9.33301 20 -28c0 -57.333 12 -93.833 36 -109.5s67.333 -23.5 130 -23.5z" />
    <glyph glyph-name="Ljecyrillic" unicode="&#x409;" horiz-adv-x="853" 
d="M468 35l140.999 -0.00195312c54 0 95 14.833 123 44.5s42 68.834 42 117.501s-14.167 87.834 -42.5 117.501s-69.166 44.5 -122.499 44.5h-141v-324zM467.999 400.998l141.001 -0.000976562c62 0 112 -18.667 150 -56s57 -86.666 57 -147.999
c0 -62 -19 -111.5 -57 -148.5s-88 -55.5 -150 -55.5h-162c-14 0 -21 10.333 -21 31v570h-213c-22.667 0 -38.334 -5 -47.001 -15s-13 -26.667 -13 -50v-405c0 -51.333 -8.33301 -84.833 -25 -100.5s-42.334 -23.5 -77.001 -23.5c-20.667 0 -31 7.33301 -31 22
c0 13.333 10.333 20 31 20c22.667 0 38.334 4.83301 47.001 14.5s13 26.167 13 49.5v406c0 46.667 6.66699 79 20 97s38.333 27 75 27h262v-235z" />
    <glyph glyph-name="Njecyrillic" unicode="&#x40a;" horiz-adv-x="912" 
d="M528 35l140.999 -0.00195312c54 0 95 14.833 123 44.5s42 68.834 42 117.501s-14.167 87.834 -42.5 117.501s-69.166 44.5 -122.499 44.5h-141v-324zM527.999 400.998l141 -0.000976562c62 0 112 -18.667 150 -56s57 -86.666 57 -147.999c0 -62 -19 -111.5 -57 -148.5
s-88 -55.5 -150 -55.5h-162c-14 0 -21 10.333 -21 31v335h-360v-336c0 -20 -7 -30 -21 -30s-21 10 -21 30v589c0 20.667 6.33301 31 19 31c15.333 0 23 -10.333 23 -31v-211h360v211c0 20.667 6.66699 31 20 31c14.667 0 22 -10.333 22 -31v-211z" />
    <glyph glyph-name="Tshecyrillic" unicode="&#x40b;" horiz-adv-x="682" 
d="M404 594h-153v-205c37.333 48 92.666 72 165.999 72c70 0 122 -11.667 156 -35s51 -70 51 -140v-263c0 -20 -6.66699 -30 -20 -30c-14.667 0 -22 10 -22 30v263c0 30 -3.16699 54 -9.5 72s-17.166 31.5 -32.499 40.5s-31.833 14.667 -49.5 17s-42.167 3.5 -73.5 3.5
c-53.333 0 -94.333 -16.167 -123 -48.5s-43 -78.5 -43 -138.5v-209c0 -20 -7 -30 -21 -30s-21 10 -21 30v571h-155c-18.667 0 -28 7 -28 21s9.33301 21 28 21h350c18.667 0 28 -7.33301 28 -22c0 -13.333 -9.33301 -20 -28 -20z" />
    <glyph glyph-name="Kjecyrillic" unicode="&#x40c;" horiz-adv-x="553" 
d="M373 741c0 -6.66699 -2.66699 -13 -8 -19l-96 -115c-8 -8.66699 -15 -13 -21 -13c-4.66699 0 -9.16699 2 -13.5 6s-6.5 8.66699 -6.5 14c0 7.33301 2.66699 14 8 20l96 115c8 8.66699 15 13 21 13c4.66699 0 9.16699 -2 13.5 -6s6.5 -9 6.5 -15zM126 275l0.00683594 -255
c0 -18 -7.33301 -27 -22 -27c-13.333 0 -20 9 -20 27v550c0 18.667 7 28 21 28s21 -9.33301 21 -28v-253h97c16.667 0 35.667 14.667 57 44s41 61.666 59 96.999s40.167 67.666 66.5 96.999s52.166 44 77.499 44c20.667 0 31 -7 31 -21s-10.333 -21 -31 -21
c-18 0 -36.333 -10.833 -55 -32.5s-34.834 -46.167 -48.501 -73.5s-30.334 -56.666 -50.001 -87.999s-38.167 -54 -55.5 -68c17.333 -14 36 -36.5 56 -67.5s37.167 -60.167 51.5 -87.5s30.666 -51.666 48.999 -72.999s35.833 -32 52.5 -32c20.667 0 31 -7 31 -21
s-10.333 -21 -31 -21s-41.334 9.66699 -62.001 29s-39.334 42.833 -56.001 70.5l-48.5 83c-15.667 27.667 -31.834 51.167 -48.501 70.5s-32.667 29 -48 29h-94z" />
    <glyph glyph-name="Iicyrillic_grave" unicode="&#x40d;" horiz-adv-x="612" 
d="M205 783c0 6 2.16699 11 6.5 15s8.83301 6 13.5 6c6 0 13 -4.33301 21 -13l96 -115c5.33301 -6 8 -12.667 8 -20c0 -5.33301 -2.16699 -10 -6.5 -14s-8.83301 -6 -13.5 -6c-6 0 -13 4.33301 -21 13l-96 115c-5.33301 6 -8 12.333 -8 19zM104 -7c-13.333 0 -20 10 -20 30
v589c0 20.667 7.33301 31 22 31c13.333 0 20 -10.333 20 -31v-528l357 542c7.33301 11.333 16 17 26 17c12.667 0 19 -10.333 19 -31v-589c0 -20 -7 -30 -21 -30s-21 10 -21 30v534l-366 -557c-2.66699 -4.66699 -8 -7 -16 -7z" />
    <glyph glyph-name="Ushortcyrillic" unicode="&#x40e;" horiz-adv-x="506" 
d="M407 770l-0.000976562 -22c0 -42.667 -6 -72 -18 -88s-34.667 -24 -68 -24h-117c-32.667 0 -55.167 8.16699 -67.5 24.5s-18.5 45.5 -18.5 87.5v22h42v-38c0 -20.667 3.5 -34.834 10.5 -42.501s20.833 -11.5 41.5 -11.5h102c20.667 0 34.334 3.83301 41.001 11.5
s10 21.834 10 42.501v38h42zM154.999 36c18.667 0 33.002 10.335 43.002 31.002l36 81l-190 459c-2 1.33301 -3 4.66602 -3 9.99902s1.83301 9.83301 5.5 13.5s8.16699 5.5 13.5 5.5c10 0 17.667 -6.33301 23 -19l177 -411l183 412c5.33301 12 13 18 23 18
c12.667 0 19 -6 19 -18c0 -3.33301 -1 -7 -3 -11l-249 -567c-13.333 -30.667 -39 -46 -77 -46c-20.667 0 -37.834 3 -51.501 9s-23.334 14.833 -29.001 26.5s-9.5 22.667 -11.5 33s-3 23.166 -3 38.499c0 20 7 30 21 30s21 -9.33301 21 -28
c0 -24 3.83301 -41.167 11.5 -51.5s21.167 -15.5 40.5 -15.5z" />
    <glyph glyph-name="Dzhecyrillic" unicode="&#x40f;" horiz-adv-x="602" 
d="M280 0h-196v571c0 20 6.66699 30 20 30c14.667 0 22 -10 22 -30v-529h350v529c0 20 7 30 21 30s21 -10 21 -30v-571h-196v-62c0 -20 -7 -30 -21 -30s-21 10 -21 30v62z" />
    <glyph glyph-name="Acyrillic" unicode="&#x410;" horiz-adv-x="548" 
d="M44 -16c-14 0 -21.001 6.66699 -21.001 20c0 4 1 8.66699 3 14l225 618h46l225 -618c2 -5.33301 3 -10 3 -14c0 -13.333 -7 -20 -21 -20c-9.33301 0 -16.666 6.66699 -21.999 20l-72 200h-272l-72 -200c-6 -13.333 -13.333 -20 -22 -20zM153.999 246h240l-121 329z" />
    <glyph glyph-name="Becyrillic" unicode="&#x411;" horiz-adv-x="534" 
d="M423 636c20 0 30.001 -7.00098 30.001 -21.001s-10 -21 -30 -21h-297v-133h153c60 0 109.5 -23.167 148.5 -69.5s58.5 -101.166 58.5 -164.499c0 -64 -19.333 -119 -58 -165s-88.334 -69 -149.001 -69h-176c-12.667 0 -19 10.333 -19 31v612h339zM279.001 418.999
l-153 0.00195312v-384h153c52 0 92.5 19.167 121.5 57.5s43.5 83.166 43.5 134.499s-14.5 96.166 -43.5 134.499s-69.5 57.5 -121.5 57.5z" />
    <glyph glyph-name="Vecyrillic" unicode="&#x412;" horiz-adv-x="584" 
d="M126 42h195c31.333 0 55.833 1.16699 73.5 3.5s34.167 8 49.5 17s26.166 22.5 32.499 40.5s9.5 42 9.5 72v29c0 30 -3.16699 54 -9.5 72s-17.166 31.5 -32.499 40.5s-31.833 14.667 -49.5 17s-42.167 3.5 -73.5 3.5h-195v-295zM84 31l-0.000976562 573.999
c0 20.667 6.33301 31 19 31h176c68.667 0 120.334 -10.667 155.001 -32s52 -60.666 52 -117.999c0 -56 -18.333 -95.667 -55 -119c32.667 -10 57 -27.667 73 -53s24 -62 24 -110v-29c0 -70 -17 -116.667 -51 -140s-86 -35 -156 -35h-218c-12.667 -0 -19 10.333 -19 31z
M278.999 378.999c60 0 102.5 7 127.5 21s37.5 42.667 37.5 86c0 44 -12.5 73 -37.5 87s-67.5 21 -127.5 21h-153v-215h153z" />
    <glyph glyph-name="Gecyrillic" unicode="&#x413;" horiz-adv-x="536" 
d="M184 594c-22.667 0 -38.333 -5 -47 -15s-13 -26.667 -13 -50v-506c0 -20 -7.33301 -30 -22 -30c-13.333 0 -20 10 -20 30v489c0 46.667 6.66699 79 20 97s38.333 27 75 27h305c20 0 30 -7 30 -21s-10 -21 -30 -21h-298z" />
    <glyph glyph-name="Decyrillic" unicode="&#x414;" horiz-adv-x="549" 
d="M52 -62c0 -20 -7 -30 -21 -30s-21 10 -21 30v52c0 34.667 15.333 52 46 52h13c20.667 34.667 42.667 116.667 66 246s35 245.333 35 348h280v-594h14c30.667 0 46 -17.333 46 -52v-52c0 -20 -7 -30 -21 -30s-21 10 -21 30v62h-416v-62zM408 594h-197.001
c0 -87.333 -11.167 -192.833 -33.5 -316.5s-43.166 -202.167 -62.499 -235.5h293v552z" />
    <glyph glyph-name="Iecyrillic" unicode="&#x415;" horiz-adv-x="577" 
d="M126 337v-295h373c19.333 0 29 -7.66699 29 -23c0 -12.667 -9.66699 -19 -29 -19h-396c-12.667 -0 -19 10.333 -19 31v574c0 20.667 6.33301 31 19 31h396c19.333 0 29 -7.66699 29 -23c0 -12.667 -9.66699 -19 -29 -19h-373v-215h255c20 0 30 -7.66699 30 -23
c0 -12.667 -10 -19 -30 -19h-255z" />
    <glyph glyph-name="Zhecyrillic" unicode="&#x416;" horiz-adv-x="754" 
d="M490 308c35.333 -10.667 63.835 -31.5 85.502 -62.5s36 -61.833 43 -92.5s15.667 -58 26 -82s23.5 -36 39.5 -36c20.667 0 31 -7 31 -21s-10.333 -21 -31 -21c-28 0 -50 9.66699 -66 29s-27.833 42.833 -35.5 70.5s-16 55.334 -25 83.001s-24.333 51.167 -46 70.5
s-50.5 29 -86.5 29h-27v-255c0 -18 -7.33301 -27 -22 -27c-13.333 0 -20 9 -20 27v255h-27c-36 0 -64.833 -9.66699 -86.5 -29s-37 -42.833 -46 -70.5s-17.333 -55.334 -25 -83.001s-19.5 -51.167 -35.5 -70.5s-38 -29 -66 -29c-20.667 0 -31 7 -31 21s10.333 21 31 21
c16 0 29.167 12 39.5 36s19 51.333 26 82s21.333 61.5 43 92.5s50.167 51.833 85.5 62.5c-18 18.667 -38.5 49.667 -61.5 93s-45.167 79.833 -66.5 109.5s-43.333 45.167 -66 46.5c-20.667 1.33301 -31 8.33301 -31 21c0 14 10.333 21 31 21
c25.333 0 51.166 -14.667 77.499 -44s48.5 -61.666 66.5 -96.999s37.667 -67.666 59 -96.999s40.333 -44 57 -44h26v253c0 18.667 7 28 21 28s21 -9.33301 21 -28v-253h26c16.667 0 35.667 14.667 57 44s41 61.666 59 96.999s40.167 67.666 66.5 96.999s52.166 44 77.499 44
c20.667 0 31 -7 31 -21c0 -12.667 -10.333 -19.667 -31 -21c-22.667 -1.33301 -44.667 -16.833 -66 -46.5s-43.5 -66.167 -66.5 -109.5s-43.5 -74.333 -61.5 -93z" />
    <glyph glyph-name="Zecyrillic" unicode="&#x417;" horiz-adv-x="563" 
d="M258 349l86 0.000976562c31.333 0 58 11.5 80 34.5s33 52.5 33 88.5c0 26.667 -11 53.667 -33 81s-50 41 -84 41h-183c-22.667 0 -38.334 -4.83301 -47.001 -14.5s-13 -26.167 -13 -49.5v-18c0 -20 -7.33301 -30 -22 -30c-13.333 0 -20 10 -20 30
c0 46.667 6.66699 79 20 97s38.333 27 75 27h197c42.667 0 78.667 -15.667 108 -47s44 -70.333 44 -117c0 -32 -7.16699 -60.667 -21.5 -86s-33.5 -45 -57.5 -59c24 -15.333 43.167 -36.5 57.5 -63.5s21.5 -56.833 21.5 -89.5c0 -46.667 -14.833 -87.334 -44.5 -122.001
s-65.5 -52 -107.5 -52h-197c-36.667 0 -61.667 9 -75 27s-20 50.333 -20 97c0 20 6.66699 30 20 30c14.667 0 22 -10 22 -30v-18c0 -23.333 4.33301 -39.833 13 -49.5s24.334 -14.5 47.001 -14.5h183c34 0 62 15 84 45s33 59 33 87c0 36.667 -11 68 -33 94
s-48.667 39 -80 39h-86c-20.667 0 -31 7 -31 21s10.333 21 31 21z" />
    <glyph glyph-name="Iicyrillic" unicode="&#x418;" horiz-adv-x="612" 
d="M104 -7c-13.333 0 -20 10 -20 30v589c0 20.667 7.33301 31 22 31c13.333 0 20 -10.333 20 -31v-528l357 542c7.33301 11.333 16 17 26 17c12.667 0 19 -10.333 19 -31v-589c0 -20 -7 -30 -21 -30s-21 10 -21 30v534l-366 -557c-2.66699 -4.66699 -8 -7 -16 -7z" />
    <glyph glyph-name="Iishortcyrillic" unicode="&#x419;" horiz-adv-x="612" 
d="M449 770l-0.000976562 -22c0 -42.667 -6 -72 -18 -88s-34.667 -24 -68 -24h-117c-32.667 0 -55.167 8.16699 -67.5 24.5s-18.5 45.5 -18.5 87.5v22h42v-38c0 -20.667 3.5 -34.834 10.5 -42.501s20.833 -11.5 41.5 -11.5h102c20.667 0 34.334 3.83301 41.001 11.5
s10 21.834 10 42.501v38h42zM103.999 -7c-13.333 0 -20 10 -20 30v589c0 20.667 7.33301 31 22 31c13.333 0 20 -10.333 20 -31v-528l357 542c7.33301 11.333 16 17 26 17c12.667 0 19 -10.333 19 -31v-589c0 -20 -7 -30 -21 -30s-21 10 -21 30v534l-366 -557
c-2.66699 -4.66699 -8 -7 -16 -7z" />
    <glyph glyph-name="Kacyrillic" unicode="&#x41a;" horiz-adv-x="553" 
d="M126 275l0.00683594 -255c0 -18 -7.33301 -27 -22 -27c-13.333 0 -20 9 -20 27v550c0 18.667 7 28 21 28s21 -9.33301 21 -28v-253h97c16.667 0 35.667 14.667 57 44s41 61.666 59 96.999s40.167 67.666 66.5 96.999s52.166 44 77.499 44c20.667 0 31 -7 31 -21
s-10.333 -21 -31 -21c-18 0 -36.333 -10.833 -55 -32.5s-34.834 -46.167 -48.501 -73.5s-30.334 -56.666 -50.001 -87.999s-38.167 -54 -55.5 -68c17.333 -14 36 -36.5 56 -67.5s37.167 -60.167 51.5 -87.5s30.666 -51.666 48.999 -72.999s35.833 -32 52.5 -32
c20.667 0 31 -7 31 -21s-10.333 -21 -31 -21s-41.334 9.66699 -62.001 29s-39.334 42.833 -56.001 70.5l-48.5 83c-15.667 27.667 -31.834 51.167 -48.501 70.5s-32.667 29 -48 29h-94z" />
    <glyph glyph-name="Elcyrillic" unicode="&#x41b;" horiz-adv-x="552" 
d="M468 24c0 -20.667 -7.33203 -31 -21.999 -31c-13.333 0 -20 10.333 -20 31v570h-213c-22.667 0 -38.334 -5 -47.001 -15s-13 -26.667 -13 -50v-405c0 -51.333 -8.33301 -84.833 -25 -100.5s-42.334 -23.5 -77.001 -23.5c-20.667 -0 -31 7.33301 -31 22
c0 13.333 10.333 20 31 20c22.667 0 38.334 4.83301 47.001 14.5s13 26.167 13 49.5v406c0 46.667 6.66699 79 20 97s38.333 27 75 27h262v-612z" />
    <glyph glyph-name="Emcyrillic" unicode="&#x41c;" horiz-adv-x="633" 
d="M316 279c-4.66699 0 -8.66699 2 -12 6l-178 272v-534c0 -20 -7 -30 -21 -30s-21 10 -21 30v589c0 20.667 6.33301 31 19 31c10 0 18.667 -5.66699 26 -17l187 -284l188 284c7.33301 11.333 15.666 17 24.999 17c13.333 0 20 -10.333 20 -31v-589
c0 -20 -7.33301 -30 -22 -30c-13.333 0 -20 10 -20 30v534l-178 -272c-3.33301 -4 -7.66602 -6 -12.999 -6z" />
    <glyph glyph-name="Encyrillic" unicode="&#x41d;" horiz-adv-x="612" 
d="M126 23c0 -20 -7 -30 -21 -30s-21 10 -21 30v589c0 20.667 6.33301 31 19 31c15.333 0 23 -10.333 23 -31v-248h360v248c0 20.667 6.66699 31 20 31c14.667 0 22 -10.333 22 -31v-589c0 -20 -6.66699 -30 -20 -30c-14.667 0 -22 10 -22 30v299h-360v-299z" />
    <glyph glyph-name="Ocyrillic" unicode="&#x41e;" horiz-adv-x="574" 
d="M287 -9c-64.667 0 -117.834 21 -159.501 63s-62.5 99.667 -62.5 173v182c0 73.333 20.833 131 62.5 173s94.834 63 159.501 63s117.834 -21 159.501 -63s62.5 -99.667 62.5 -173v-182c0 -73.333 -20.833 -131 -62.5 -173s-94.834 -63 -159.501 -63zM287 603
c-56 0 -100 -17.167 -132 -51.5s-48 -81.833 -48 -142.5v-182c0 -60.667 16 -108.167 48 -142.5s76 -51.5 132 -51.5s100 17.167 132 51.5s48 81.833 48 142.5v182c0 60.667 -16 108.167 -48 142.5s-76 51.5 -132 51.5z" />
    <glyph glyph-name="Pecyrillic" unicode="&#x41f;" horiz-adv-x="602" 
d="M84 636h434v-613c0 -20 -6.66699 -30 -20 -30c-14.667 0 -22 10 -22 30v571h-350v-571c0 -20 -7 -30 -21 -30s-21 10 -21 30v613z" />
    <glyph glyph-name="Ercyrillic" unicode="&#x420;" horiz-adv-x="520" 
d="M126 20c0 -18 -7.33398 -27.001 -22.001 -27.001c-13.333 0 -20 9 -20 27v585c0 20.667 6.33301 31 19 31h176c68.667 0 120.334 -10.667 155.001 -32s52 -60.666 52 -117.999c0 -48.667 -14.5 -85.667 -43.5 -111s-69.5 -38 -121.5 -38h-195v-317zM278.999 378.999
c60 0 102.5 7 127.5 21s37.5 42.667 37.5 86c0 44 -12.5 73 -37.5 87s-67.5 21 -127.5 21h-153v-215h153z" />
    <glyph glyph-name="Escyrillic" unicode="&#x421;" horiz-adv-x="572" 
d="M421 0l-141 0.000976562c-70.667 0 -123 11.667 -157 35s-51 70 -51 140v286c0 70 17 116.667 51 140s86.333 35 157 35h141c20.667 0 37.834 -3 51.501 -9s23.334 -14.667 29.001 -26s9.5 -22.333 11.5 -33s3 -23.667 3 -39c0 -20 -7 -30 -21 -30s-21 9.33301 -21 28
c0 24 -4.33301 41.167 -13 51.5s-24.334 15.5 -47.001 15.5h-134c-32 0 -56.833 -1.16699 -74.5 -3.5s-34.167 -8 -49.5 -17s-26.166 -22.5 -32.499 -40.5s-9.5 -42 -9.5 -72v-286c0 -30 3.16699 -54 9.5 -72s17.166 -31.5 32.499 -40.5s31.833 -14.667 49.5 -17
s42.5 -3.5 74.5 -3.5h134c22.667 0 38.334 5 47.001 15s13 27.333 13 52c0 18.667 7 28 21 28s21 -10.333 21 -31c0 -14.667 -1 -27.334 -3 -38.001s-5.83301 -21.667 -11.5 -33s-15.334 -20 -29.001 -26s-30.834 -9 -51.501 -9z" />
    <glyph glyph-name="Tecyrillic" unicode="&#x422;" horiz-adv-x="460" 
d="M405 636c18.667 0 28 -7.33301 28 -22c0 -13.333 -9.33301 -20 -28 -20h-154v-574c0 -18 -7.33301 -27 -22 -27c-13.333 0 -20 9 -20 27v574h-155c-18.667 0 -28 7 -28 21s9.33301 21 28 21h351z" />
    <glyph glyph-name="Ucyrillic" unicode="&#x423;" horiz-adv-x="506" 
d="M155 36c18.667 0 33.002 10.335 43.002 31.002l36 81l-190 459c-2 1.33301 -3 4.66602 -3 9.99902s1.83301 9.83301 5.5 13.5s8.16699 5.5 13.5 5.5c10 0 17.667 -6.33301 23 -19l177 -411l183 412c5.33301 12 13 18 23 18c12.667 0 19 -6 19 -18
c0 -3.33301 -1 -7 -3 -11l-249 -567c-13.333 -30.667 -39 -46 -77 -46c-20.667 0 -37.834 3 -51.501 9s-23.334 14.833 -29.001 26.5s-9.5 22.667 -11.5 33s-3 23.166 -3 38.499c0 20 7 30 21 30s21 -9.33301 21 -28c0 -24 3.83301 -41.167 11.5 -51.5
s21.167 -15.5 40.5 -15.5z" />
    <glyph glyph-name="Efcyrillic" unicode="&#x424;" horiz-adv-x="530" 
d="M288 20c0 -18 -7.33301 -27.002 -22 -27.002c-13.333 0 -20 9 -20 27v57c-60 4 -108.833 26.667 -146.5 68s-56.5 97 -56.5 167v12c0 70 18.833 125.667 56.5 167s86.5 64 146.5 68v56c0 18.667 7 28 21 28s21 -9.33301 21 -28v-56
c58.667 -5.33301 106.5 -28.666 143.5 -69.999s55.5 -96.333 55.5 -165v-12c0 -68.667 -18.5 -123.667 -55.5 -165s-84.833 -64.666 -143.5 -69.999v-57zM288 118.998c49.333 4.66699 87.833 24 115.5 58s41.5 79 41.5 135v12c0 56 -13.833 100.833 -41.5 134.5
s-66.167 53.167 -115.5 58.5v-398zM246 118.998v398c-50.667 -4 -90.167 -23 -118.5 -57s-42.5 -79.333 -42.5 -136v-12c0 -57.333 14.167 -102.833 42.5 -136.5s67.833 -52.5 118.5 -56.5z" />
    <glyph glyph-name="Khacyrillic" unicode="&#x425;" horiz-adv-x="537" 
d="M481 643c4.66699 0 9.33203 -2 13.999 -6s7 -8.66699 7 -14c0 -7.33301 -2.33301 -13.666 -7 -18.999l-201 -287l201 -285c4.66699 -7.33301 7 -14 7 -20c0 -5.33301 -2.16699 -9.83301 -6.5 -13.5s-9.16602 -5.5 -14.499 -5.5c-6.66699 0 -13.667 4.66699 -21 14
l-192 274l-191 -274c-7.33301 -9.33301 -14.666 -14 -21.999 -14c-4.66699 0 -9.16699 1.83301 -13.5 5.5s-6.5 8.16699 -6.5 13.5c0 6 2.33301 12.667 7 20l201 285l-201 287c-4.66699 5.33301 -7 11.666 -7 18.999c0 5.33301 2.16699 10 6.5 14s8.83301 6 13.5 6
c7.33301 0 14.666 -5.33301 21.999 -16l191 -273l192 273c7.33301 10.667 14.333 16 21 16z" />
    <glyph glyph-name="Tsecyrillic" unicode="&#x426;" horiz-adv-x="558" 
d="M518 -62c0 -20 -7 -30 -21 -30s-21 10 -21 30v62h-392v571c0 20 6.66699 30 20 30c14.667 0 22 -10 22 -30v-529h292v529c0 20 7 30 21 30s21 -10 21 -30v-529h12c30.667 0 46 -17.333 46 -52v-52z" />
    <glyph glyph-name="Checyrillic" unicode="&#x427;" horiz-adv-x="585" 
d="M293 217c53.333 0 94.333 16.167 123 48.5s43 78.5 43 138.5v209c0 20 7 30 21 30s21 -10 21 -30v-589c0 -20.667 -6.33301 -31 -19 -31c-15.333 0 -23 10.333 -23 31v223c-37.333 -48 -92.666 -72 -165.999 -72h-29c-70 0 -122 11.667 -156 35s-51 70 -51 140v263
c0 20 6.66699 30 20 30c14.667 0 22 -10 22 -30v-263c0 -30 3.16699 -54 9.5 -72s17.166 -31.5 32.499 -40.5s31.833 -14.667 49.5 -17s42.167 -3.5 73.5 -3.5h29z" />
    <glyph glyph-name="Shacyrillic" unicode="&#x428;" horiz-adv-x="674" 
d="M84 0v571c0 20 6.66699 30 20 30c14.667 0 22 -10 22 -30v-529h190v529c0 20 6.66699 30 20 30c14.667 0 22 -10 22 -30v-529h190v529c0 20 7 30 21 30s21 -10 21 -30v-571h-506z" />
    <glyph glyph-name="Shchacyrillic" unicode="&#x429;" horiz-adv-x="688" 
d="M316 571c0 20 6.66699 30 20 30c14.667 0 22 -10 22 -30v-529h190v529c0 20 7 30 21 30s21 -10 21 -30v-529h12c30.667 0 46 -17.333 46 -52v-52c0 -20 -7 -30 -21 -30s-21 10 -21 30v62h-522v571c0 20 6.66699 30 20 30c14.667 0 22 -10 22 -30v-529h190v529z" />
    <glyph glyph-name="Hardsigncyrillic" unicode="&#x42a;" horiz-adv-x="595" 
d="M155 594l-100.999 -0.000976562c-20.667 0 -31 7.66699 -31 23c0 12.667 10.333 19 31 19h143v-175h153c60 0 109.5 -23.167 148.5 -69.5s58.5 -101.166 58.5 -164.499c0 -64 -19.333 -119 -58 -165s-88.334 -69 -149.001 -69h-176c-12.667 0 -19 10.333 -19 31v570z
M350.001 418.999l-153 0.00195312v-384h153c52 0 92.5 19.167 121.5 57.5s43.5 83.166 43.5 134.499s-14.5 96.166 -43.5 134.499s-69.5 57.5 -121.5 57.5z" />
    <glyph glyph-name="Yericyrillic" unicode="&#x42b;" horiz-adv-x="663" 
d="M579 20c0 -18 -7.33301 -27 -22 -27c-13.333 0 -20 9 -20 27v595c0 18.667 7 28 21 28s21 -9.33301 21 -28v-595zM279 461c60 0 109.501 -23.168 148.501 -69.501s58.5 -101.166 58.5 -164.499c0 -64 -19.333 -119 -58 -165s-88.334 -69 -149.001 -69h-176
c-12.667 0 -19 10.333 -19 31v585c0 18 6.66699 27 20 27c14.667 0 22 -9 22 -27v-148h153zM279.001 418.999l-153 0.00195312v-384h153c52 0 92.5 19.167 121.5 57.5s43.5 83.166 43.5 134.499s-14.5 96.166 -43.5 134.499s-69.5 57.5 -121.5 57.5z" />
    <glyph glyph-name="Softsigncyrillic" unicode="&#x42c;" horiz-adv-x="524" 
d="M279 461c60 0 109.501 -23.168 148.501 -69.501s58.5 -101.166 58.5 -164.499c0 -64 -19.333 -119 -58 -165s-88.334 -69 -149.001 -69h-176c-12.667 0 -19 10.333 -19 31v585c0 18 6.66699 27 20 27c14.667 0 22 -9 22 -27v-148h153zM279.001 418.999l-153 0.00195312
v-384h153c52 0 92.5 19.167 121.5 57.5s43.5 83.166 43.5 134.499s-14.5 96.166 -43.5 134.499s-69.5 57.5 -121.5 57.5z" />
    <glyph glyph-name="Ereversedcyrillic" unicode="&#x42d;" horiz-adv-x="570" 
d="M149 636l141 -0.000976562c70.667 0 123 -11.667 157 -35s51 -70 51 -140v-286c0 -70 -17 -116.667 -51 -140s-86.333 -35 -157 -35h-141c-20.667 0 -37.834 3 -51.501 9s-23.334 14.667 -29.001 26s-9.5 22.333 -11.5 33s-3 23.667 -3 39c0 20 7 30 21 30
s21 -9.33301 21 -28c0 -24 4.33301 -41.167 13 -51.5s24.334 -15.5 47.001 -15.5h134c32 0 56.833 1.16699 74.5 3.5s34.167 8 49.5 17s26.166 22.5 32.499 40.5s9.5 42 9.5 72v137h-254c-20 0 -30 7.66699 -30 23c0 12.667 10 19 30 19h254v107c0 30 -3.16699 54 -9.5 72
s-17.166 31.5 -32.499 40.5s-31.833 14.667 -49.5 17s-42.5 3.5 -74.5 3.5h-134c-22.667 0 -38.334 -5 -47.001 -15s-13 -27.333 -13 -52c0 -18.667 -7 -28 -21 -28s-21 10.333 -21 31c0 14.667 1 27.334 3 38.001s5.83301 21.667 11.5 33s15.334 20 29.001 26
s30.834 9 51.501 9z" />
    <glyph glyph-name="IUcyrillic" unicode="&#x42e;" horiz-adv-x="700" 
d="M413 603c-56 0 -100 -17.167 -132 -51.5s-48 -81.833 -48 -142.5v-182c0 -60.667 16 -108.167 48 -142.5s76 -51.5 132 -51.5s100 17.167 132 51.5s48 81.833 48 142.5v182c0 60.667 -16 108.167 -48 142.5s-76 51.5 -132 51.5zM413 -9
c-64.667 0 -117.834 21 -159.501 63s-62.5 99.667 -62.5 173v75h-65v-282c0 -18 -7.33301 -27 -22 -27c-13.333 0 -20 9 -20 27v595c0 18.667 7 28 21 28s21 -9.33301 21 -28v-271h65v65c0 73.333 20.833 131 62.5 173s94.834 63 159.501 63s117.834 -21 159.501 -63
s62.5 -99.667 62.5 -173v-182c0 -73.333 -20.833 -131 -62.5 -173s-94.834 -63 -159.501 -63z" />
    <glyph glyph-name="IAcyrillic" unicode="&#x42f;" horiz-adv-x="564" 
d="M292 341l146 -0.000976562v253h-146c-56.667 0 -98.334 -9.83301 -125.001 -29.5s-40 -52.167 -40 -97.5s13.333 -77.666 40 -96.999s68.334 -29 125.001 -29zM204 307.999c-79.333 20.667 -119 73.667 -119 159c0 112.667 69 169 207 169h169
c12.667 0 19 -10.333 19 -31v-585c0 -18 -6.66699 -27 -20 -27c-14.667 0 -22 9 -22 27v279h-130c-65.333 0 -106 -28.333 -122 -85l-28 -104c-9.33301 -35.333 -25 -63.666 -47 -84.999s-46.667 -32 -74 -32c-20.667 0 -31 7 -31 21s10.333 21 31 21c18 0 34 7.66699 48 23
s23.333 30.666 28 45.999l31 114c9.33301 37.333 29.333 67.333 60 90z" />
    <glyph glyph-name="acyrillic" unicode="&#x430;" horiz-adv-x="534" 
d="M268 248c-32 0 -56.834 -1.16699 -74.501 -3.5s-34.167 -8 -49.5 -17s-26.166 -22.5 -32.499 -40.5s-9.5 -42 -9.5 -72c0 -18.667 6.16699 -35.5 18.5 -50.5s26.166 -22.5 41.499 -22.5h93c52.667 0 93.334 16 122.001 48s43 78 43 138v20h-152zM267.999 290
l152.001 -0.000976562v64c0 23.333 -4.33301 40 -13 50s-24.334 15 -47.001 15h-141c-78 0 -117 -21.667 -117 -65c0 -20 -7.33301 -30 -22 -30c-13.333 0 -20 10 -20 30c0 36 14.167 62.833 42.5 80.5s64.833 26.5 109.5 26.5h155c36.667 0 61.667 -9 75 -27
s20 -50.333 20 -97v-314c0 -20 -7 -30 -21 -30s-21 10 -21 30v49c-36 -48 -91 -72 -165 -72h-93c-30 0 -54.5 10.833 -73.5 32.5s-28.5 50.834 -28.5 87.501c0 28 3.33301 52.333 10 73s15.667 37.167 27 49.5s26 22 44 29s37 11.833 57 14.5s43.333 4 70 4z" />
    <glyph glyph-name="becyrillic" unicode="&#x431;" horiz-adv-x="577" 
d="M113 419l0.000976562 -244c0 -30 3.16699 -54 9.5 -72s17.166 -31.5 32.499 -40.5s31.833 -14.667 49.5 -17s42.167 -3.5 73.5 -3.5h30c31.333 0 55.833 1.16699 73.5 3.5s34.167 8 49.5 17s26.166 22.5 32.499 40.5s9.5 42 9.5 72v111c0 30 -3.16699 54 -9.5 72
s-17.166 31.5 -32.499 40.5s-31.833 14.667 -49.5 17s-42.167 3.5 -73.5 3.5h-195zM114.001 461l194.003 -0.00488281c70 0 122 -11.667 156 -35s51 -70 51 -140v-111c0 -70 -17 -116.667 -51 -140s-86 -35 -156 -35h-30c-70 0 -122 11.667 -156 35s-51 70 -51 140v282
c0 33.333 5.33301 61 16 83s24.5 39.333 41.5 52s42.667 22.334 77 29.001s68.166 10.834 101.499 12.501s78.333 2.5 135 2.5c20.667 0 31 -7.66699 31 -23c0 -12.667 -10.333 -19 -31 -19c-35.333 0 -63 -0.166992 -83 -0.5s-42.5 -1 -67.5 -2s-44.333 -2.83301 -58 -5.5
s-28.334 -6.16699 -44.001 -10.5s-27.334 -9.66602 -35.001 -15.999s-15 -14.166 -22 -23.499s-11.833 -20.166 -14.5 -32.499s-4 -26.5 -4 -42.5z" />
    <glyph glyph-name="vecyrillic" unicode="&#x432;" horiz-adv-x="583" 
d="M75 461l292 0.000976562c42 0 77.833 -10 107.5 -30s44.5 -51.333 44.5 -94c0 -30.667 -5.83301 -52.834 -17.5 -66.501s-27.5 -24.5 -47.5 -32.5c43.333 -25.333 65 -63.333 65 -114c0 -42.667 -14.833 -74 -44.5 -94s-65.5 -30 -107.5 -30h-292v461zM117 42.001h243
c78 0 117 23 117 69c0 70.667 -37.667 106 -113 106h-247v-175zM117 259.001h247c38 0 66.5 6.16699 85.5 18.5s28.5 36.5 28.5 72.5c0 46 -39.333 69 -118 69h-243v-160z" />
    <glyph glyph-name="gecyrillic" unicode="&#x433;" horiz-adv-x="458" 
d="M175 419c-22.667 0 -38.333 -5 -47 -15s-13 -26.667 -13 -50v-331c0 -20 -7.33301 -30 -22 -30c-13.333 0 -20 10 -20 30v314c0 46.667 6.66699 79 20 97s38.333 27 75 27h244c20 0 30 -7 30 -21s-10 -21 -30 -21h-237z" />
    <glyph glyph-name="decyrillic" unicode="&#x434;" horiz-adv-x="534" 
d="M52 -62c0 -20 -7 -30 -21 -30s-21 10 -21 30v52c0 34.667 15.333 52 46 52h13c67.333 113.333 101 253 101 419h246v-419h48c30.667 0 46 -17.333 46 -52v-52c0 -20 -7 -30 -21 -30s-21 10 -21 30v62h-416v-62zM374 419h-163c0 -139.333 -32 -265 -96 -377h259v377z" />
    <glyph glyph-name="iecyrillic" unicode="&#x435;" 
d="M506 286l0.00195312 -35.999h-402v-75c0 -30 3.16699 -54 9.5 -72s17.166 -31.5 32.499 -40.5s31.833 -14.667 49.5 -17s42.5 -3.5 74.5 -3.5h134c22.667 0 38.334 5 47.001 15s13 27.333 13 52c0 18.667 7 28 21 28s21 -10.333 21 -31c0 -14.667 -1 -27.334 -3 -38.001
s-5.83301 -21.667 -11.5 -33s-15.334 -20 -29.001 -26s-30.834 -9 -51.501 -9h-141c-70.667 0 -123 11.667 -157 35s-51 70 -51 140v111c0 70 17 116.667 51 140s86.333 35 157 35h29c70 0 122 -11.667 156 -35s51 -70 51 -140zM299.002 419.001h-28.999
c-61.333 0 -104.333 -7.66699 -129 -23s-37 -50 -37 -104h360c0 54 -12.333 88.667 -37 104s-67.334 23 -128.001 23z" />
    <glyph glyph-name="zhecyrillic" unicode="&#x436;" horiz-adv-x="692" 
d="M367 210v-190c0 -18 -7.33301 -27 -22 -27c-13.333 0 -20 9 -20 27v190c-44.667 0 -79.667 -7.5 -105 -22.5s-42.166 -33.167 -50.499 -54.5s-15 -42.5 -20 -63.5s-13.667 -39 -26 -54s-30.833 -22.5 -55.5 -22.5c-20.667 0 -31 7 -31 21s10.333 21 31 21
c15.333 0 27 8.16699 35 24.5s13.667 35.166 17 56.499s13.333 43.833 30 67.5s40 41.167 70 52.5c-10.667 12 -21.5 30 -32.5 54s-20.333 45.333 -28 64s-19.5 35.5 -35.5 50.5s-34.667 22.5 -56 22.5c-20.667 0 -31 7 -31 21s10.333 21 31 21c28 0 52.167 -7.5 72.5 -22.5
s35.666 -33.167 45.999 -54.5s19.5 -42.5 27.5 -63.5s16.833 -39 26.5 -54s21.167 -22.5 34.5 -22.5h50v188c0 18.667 7 28 21 28s21 -9.33301 21 -28v-188h50c13.333 0 24.833 7.5 34.5 22.5s18.5 33 26.5 54s17.167 42.167 27.5 63.5s25.666 39.5 45.999 54.5
s44.5 22.5 72.5 22.5c20.667 0 31 -7 31 -21s-10.333 -21 -31 -21c-21.333 0 -40 -7.5 -56 -22.5s-27.833 -31.833 -35.5 -50.5s-17 -40 -28 -64s-21.833 -42 -32.5 -54c30 -11.333 53.333 -28.833 70 -52.5s26.667 -46.167 30 -67.5s9 -40.166 17 -56.499
s19.667 -24.5 35 -24.5c20.667 0 31 -7 31 -21s-10.333 -21 -31 -21c-24.667 0 -43.167 7.5 -55.5 22.5s-21 33 -26 54s-11.667 42.167 -20 63.5s-25.166 39.5 -50.499 54.5s-60.333 22.5 -105 22.5z" />
    <glyph glyph-name="zecyrillic" unicode="&#x437;" 
d="M261 217c-20.667 0 -31 6.33398 -31 19.001c0 15.333 10.333 23 31 23h86c38 0 66.5 6.16699 85.5 18.5s28.5 36.5 28.5 72.5c0 46 -39.333 69 -118 69h-183c-22.667 0 -38.334 -4.83301 -47.001 -14.5s-13 -26.167 -13 -49.5v-18c0 -20 -7.33301 -30 -22 -30
c-13.333 0 -20 10 -20 30c0 46.667 6.66699 79 20 97s38.333 27 75 27h197c42.667 0 78.667 -10 108 -30s44 -51.333 44 -94c0 -30.667 -5.83301 -52.834 -17.5 -66.501s-27.5 -24.5 -47.5 -32.5c43.333 -25.333 65 -63.333 65 -114c0 -42.667 -14.667 -74 -44 -94
s-65.333 -30 -108 -30h-197c-36.667 0 -61.667 9 -75 27s-20 50.333 -20 97c0 20 6.66699 30 20 30c14.667 0 22 -10 22 -30v-18c0 -23.333 4.33301 -39.833 13 -49.5s24.334 -14.5 47.001 -14.5h183c78 0 117 23 117 69c0 70.667 -37.667 106 -113 106h-86z" />
    <glyph glyph-name="iicyrillic" unicode="&#x438;" horiz-adv-x="583" 
d="M509 461v-437c0 -20.667 -6.66699 -31 -20 -31c-14.667 0 -22 10.333 -22 31v379l-343 -403h-49v437c0 20.667 6.66699 31 20 31c14.667 0 22 -10.333 22 -31v-383l346 407h46z" />
    <glyph glyph-name="iishortcyrillic" unicode="&#x439;" horiz-adv-x="583" 
d="M442 636l-0.000976562 -22c0 -42.667 -6 -72 -18 -88s-34.667 -24 -68 -24h-117c-32.667 0 -55.167 8.16699 -67.5 24.5s-18.5 45.5 -18.5 87.5v22h42v-38c0 -20.667 3.5 -34.834 10.5 -42.501s20.833 -11.5 41.5 -11.5h102c20.667 0 34.334 3.83301 41.001 11.5
s10 21.834 10 42.501v38h42zM508.999 461v-437c0 -20.667 -6.66699 -31 -20 -31c-14.667 0 -22 10.333 -22 31v379l-343 -403h-49v437c0 20.667 6.66699 31 20 31c14.667 0 22 -10.333 22 -31v-383l346 407h46z" />
    <glyph glyph-name="kacyrillic" unicode="&#x43a;" horiz-adv-x="538" 
d="M177 210h-61.002v-190c0 -18 -7.33301 -27 -22 -27c-13.333 0 -20 9 -20 27v420c0 18.667 7 28 21 28s21 -9.33301 21 -28v-188h111c13.333 0 26.333 7.5 39 22.5s24.834 33 36.501 54s24.667 42.167 39 63.5s33 39.5 56 54.5s48.5 22.5 76.5 22.5c20.667 0 31 -7 31 -21
s-10.333 -21 -31 -21c-21.333 0 -41.333 -7.5 -60 -22.5s-33.667 -32.167 -45 -51.5s-24.666 -40.833 -39.999 -64.5s-29.333 -41.5 -42 -53.5c32 -11.333 58.333 -28.833 79 -52.5s34.5 -46 41.5 -67s16 -39.667 27 -56s24.167 -24.5 39.5 -24.5c20.667 0 31 -7 31 -21
s-10.333 -21 -31 -21c-24.667 0 -44.5 7.5 -59.5 22.5s-27 33 -36 54s-19.667 42.167 -32 63.5s-32.5 39.5 -60.5 54.5s-64.333 22.5 -109 22.5z" />
    <glyph glyph-name="elcyrillic" unicode="&#x43b;" horiz-adv-x="546" 
d="M472 24c0 -20.667 -7.33203 -31 -21.999 -31c-13.333 0 -20 10.333 -20 31v395h-213c-22.667 0 -38.334 -5 -47.001 -15s-13 -26.667 -13 -50v-230c0 -51.333 -8.33301 -84.833 -25 -100.5s-42.334 -23.5 -77.001 -23.5c-20.667 -0 -31 7.33301 -31 22
c0 13.333 10.333 20 31 20c22.667 0 38.334 4.83301 47.001 14.5s13 26.167 13 49.5v231c0 46.667 6.66699 79 20 97s38.333 27 75 27h262v-437z" />
    <glyph glyph-name="emcyrillic" unicode="&#x43c;" horiz-adv-x="613" 
d="M306 104c-4.66699 0 -8.66699 2 -12 6l-178 272v-359c0 -20 -7 -30 -21 -30s-21 10 -21 30v414c0 20.667 6.33301 31 19 31c10 0 18.667 -5.66699 26 -17l187 -284l188 284c7.33301 11.333 15.666 17 24.999 17c13.333 0 20 -10.333 20 -31v-414
c0 -20 -7.33301 -30 -22 -30c-13.333 0 -20 10 -20 30v359l-178 -272c-3.33301 -4 -7.66602 -6 -12.999 -6z" />
    <glyph glyph-name="encyrillic" unicode="&#x43d;" horiz-adv-x="582" 
d="M116 23c0 -20 -7 -30 -21 -30s-21 10 -21 30v414c0 20.667 6.33301 31 19 31c15.333 0 23 -10.333 23 -31v-172h350v172c0 20.667 6.66699 31 20 31c14.667 0 22 -10.333 22 -31v-414c0 -20 -6.66699 -30 -20 -30c-14.667 0 -22 10 -22 30v200h-350v-200z" />
    <glyph glyph-name="ocyrillic" unicode="&#x43e;" horiz-adv-x="568" 
d="M299 0h-29c-70.667 0 -123 11.667 -157 35s-51 70 -51 140v111c0 70 17 116.667 51 140s86.333 35 157 35h29c70 0 122 -11.667 156 -35s51 -70 51 -140v-111c0 -70 -17 -116.667 -51 -140s-86 -35 -156 -35zM270 42h29c31.333 0 55.833 1.16699 73.5 3.5
s34.167 8 49.5 17s26.166 22.5 32.499 40.5s9.5 42 9.5 72v111c0 30 -3.16699 54 -9.5 72s-17.166 31.5 -32.499 40.5s-31.833 14.667 -49.5 17s-42.167 3.5 -73.5 3.5h-29c-32 0 -56.833 -1.16699 -74.5 -3.5s-34.167 -8 -49.5 -17s-26.166 -22.5 -32.499 -40.5
s-9.5 -42 -9.5 -72v-111c0 -30 3.16699 -54 9.5 -72s17.166 -31.5 32.499 -40.5s31.833 -14.667 49.5 -17s42.5 -3.5 74.5 -3.5z" />
    <glyph glyph-name="pecyrillic" unicode="&#x43f;" horiz-adv-x="582" 
d="M74 461h434v-438c0 -20 -6.66699 -30 -20 -30c-14.667 0 -22 10 -22 30v396h-350v-396c0 -20 -7 -30 -21 -30s-21 10 -21 30v438z" />
    <glyph glyph-name="ercyrillic" unicode="&#x440;" horiz-adv-x="581" 
d="M477 286c0 30 -3.16699 54 -9.5 72s-17.166 31.5 -32.499 40.5s-31.833 14.667 -49.5 17s-42.167 3.5 -73.5 3.5h-29c-53.333 0 -94.333 -16.167 -123 -48.5s-43 -78.5 -43 -138.5v-190h195c31.333 0 55.833 1.16699 73.5 3.5s34.167 8 49.5 17s26.166 22.5 32.499 40.5
s9.5 42 9.5 72v111zM519 175c0 -70 -16.999 -116.667 -50.999 -140s-86 -35 -156 -35h-195v-152c0 -20 -7.66699 -30 -23 -30c-12.667 0 -19 10 -19 30v590c0 20 7 30 21 30s21 -10 21 -30v-49c37.333 48 92.666 72 165.999 72h29c70 0 122 -11.667 156 -35s51 -70 51 -140
v-111z" />
    <glyph glyph-name="escyrillic" unicode="&#x441;" horiz-adv-x="564" 
d="M411 0h-141c-70.667 0 -123 11.667 -157 35s-51 70 -51 140v111c0 70 17 116.667 51 140s86.333 35 157 35h141c20.667 0 37.834 -3 51.501 -9s23.334 -14.833 29.001 -26.5s9.5 -22.667 11.5 -33s3 -23.166 3 -38.499c0 -20 -7 -30 -21 -30s-21 9.33301 -21 28
c0 24 -4.33301 41.167 -13 51.5s-24.334 15.5 -47.001 15.5h-134c-32 0 -56.833 -1.16699 -74.5 -3.5s-34.167 -8 -49.5 -17s-26.166 -22.5 -32.499 -40.5s-9.5 -42 -9.5 -72v-111c0 -30 3.16699 -54 9.5 -72s17.166 -31.5 32.499 -40.5s31.833 -14.667 49.5 -17
s42.5 -3.5 74.5 -3.5h134c22.667 0 38.334 5 47.001 15s13 27.333 13 52c0 18.667 7 28 21 28s21 -10.333 21 -31c0 -14.667 -1 -27.334 -3 -38.001s-5.83301 -21.667 -11.5 -33s-15.334 -20 -29.001 -26s-30.834 -9 -51.501 -9z" />
    <glyph glyph-name="tecyrillic" unicode="&#x442;" horiz-adv-x="437" 
d="M394 461c18.667 0 28 -7.33301 28 -22c0 -13.333 -9.33301 -20 -28 -20h-154v-399c0 -18 -7.33301 -27 -22 -27c-13.333 0 -20 9 -20 27v399h-155c-18.667 0 -28 7 -28 21s9.33301 21 28 21h351z" />
    <glyph glyph-name="ucyrillic" unicode="&#x443;" horiz-adv-x="589" 
d="M514 -92c0 -42.667 -6 -72.166 -18 -88.499s-34.667 -24.5 -68 -24.5h-263c-20.667 0 -37.834 3 -51.501 9s-23.334 14.833 -29.001 26.5s-9.5 22.667 -11.5 33s-3 23.166 -3 38.499c0 20 7 30 21 30s21 -9.33301 21 -28c0 -24 4.33301 -41.167 13 -51.5
s24.334 -15.5 47.001 -15.5h249c20.667 0 34.334 3.83301 41.001 11.5s10 22.167 10 43.5v180c-36 -48 -91 -72 -165 -72h-29c-70.667 0 -123 11.667 -157 35s-51 70 -51 140v261c0 21.333 7 32 21 32s21 -10.667 21 -32v-261c0 -30 3.16699 -54 9.5 -72
s17.166 -31.5 32.499 -40.5s31.833 -14.667 49.5 -17s42.5 -3.5 74.5 -3.5h29c52.667 0 93.334 16 122.001 48s43 78 43 138v208c0 21.333 7.33301 32 22 32c13.333 0 20 -10.667 20 -32v-528z" />
    <glyph glyph-name="efcyrillic" unicode="&#x444;" horiz-adv-x="750" 
d="M647 195v70.999c0 16.667 -0.5 31 -1.5 43s-3.83301 25.5 -8.5 40.5s-11 27 -19 36s-19.667 16.833 -35 23.5s-33.666 10 -54.999 10c-47.333 0 -81.166 -18.5 -101.499 -55.5s-30.5 -81.167 -30.5 -132.5s10.167 -95.666 30.5 -132.999s54.166 -56 101.499 -56
c21.333 0 39.666 3.33301 54.999 10s27 14.5 35 23.5s14.333 21 19 36s7.5 28.5 8.5 40.5s1.5 26.333 1.5 43zM103 194.999c0 -16.667 0.5 -30.999 1.5 -42.999s3.83301 -25.5 8.5 -40.5s11 -27 19 -36s19.667 -16.833 35 -23.5s33.666 -10 54.999 -10
c47.333 0 81.166 18.667 101.499 56s30.5 81.666 30.5 132.999s-10.167 95.5 -30.5 132.5s-54.166 55.5 -101.499 55.5c-21.333 0 -39.666 -3.33301 -54.999 -10s-27 -14.5 -35 -23.5s-14.333 -21 -19 -36s-7.5 -28.5 -8.5 -40.5s-1.5 -26.333 -1.5 -43v-71zM396 -152
c0 -20 -7 -30 -21 -30s-21 10 -21 30v224c-20 -26 -39.333 -44.5 -58 -55.5s-43.334 -16.5 -74.001 -16.5c-107.333 0 -161 65 -161 195v71c0 130 53.667 195 161 195c30.667 0 55.334 -5.5 74.001 -16.5s38 -29.5 58 -55.5v224c0 20 7 30 21 30s21 -10 21 -30v-224
c20 26 39.333 44.5 58 55.5s43.334 16.5 74.001 16.5c107.333 0 161 -65 161 -195v-71c0 -130 -53.667 -195 -161 -195c-30.667 0 -55.334 5.5 -74.001 16.5s-38 29.5 -58 55.5v-224z" />
    <glyph glyph-name="khacyrillic" unicode="&#x445;" horiz-adv-x="488" 
d="M450 8c0 -5.33301 -2.16699 -9.83301 -6.5 -13.5s-8.83301 -5.5 -13.5 -5.5c-6.66699 0 -13.334 4 -20.001 12l-165 197l-166 -197c-7.33301 -8 -14.333 -12 -21 -12c-4.66699 0 -9.16699 1.83301 -13.5 5.5s-6.5 8.16699 -6.5 13.5s3 12.333 9 21l170 201l-170 203
c-6 7.33301 -9 14 -9 20c0 5.33301 2.16699 9.83301 6.5 13.5s8.83301 5.5 13.5 5.5c6.66699 0 13.667 -4 21 -12l166 -197l165 197c6.66699 8 13.334 12 20.001 12c4.66699 0 9.16699 -1.83301 13.5 -5.5s6.5 -8.16699 6.5 -13.5c0 -6 -3 -12.667 -9 -20l-170 -203
l170 -201c6 -8.66699 9 -15.667 9 -21z" />
    <glyph glyph-name="tsecyrillic" unicode="&#x446;" horiz-adv-x="541" 
d="M509 -62c0 -20 -7 -30 -21 -30s-21 10 -21 30v62h-392v438c0 20 6.66699 30 20 30c14.667 0 22 -10 22 -30v-396h292v396c0 20 7 30 21 30s21 -10 21 -30v-396h12c30.667 0 46 -17.333 46 -52v-52z" />
    <glyph glyph-name="checyrillic" unicode="&#x447;" horiz-adv-x="567" 
d="M285 175c53.333 0 94.333 16.167 123 48.5s43 78.5 43 138.5v76c0 20 7 30 21 30s21 -10 21 -30v-414c0 -20.667 -6.33301 -31 -19 -31c-15.333 0 -23 10.333 -23 31v181c-37.333 -48 -92.666 -72 -165.999 -72h-29c-70 0 -122 11.667 -156 35s-51 70 -51 140v130
c0 20 6.66699 30 20 30c14.667 0 22 -10 22 -30v-130c0 -30 3.16699 -54 9.5 -72s17.166 -31.5 32.499 -40.5s31.833 -14.667 49.5 -17s42.167 -3.5 73.5 -3.5h29z" />
    <glyph glyph-name="shacyrillic" unicode="&#x448;" horiz-adv-x="616" 
d="M75 0v438c0 20 6.66699 30 20 30c14.667 0 22 -10 22 -30v-396h170v396c0 20 6.66699 30 20 30c14.667 0 22 -10 22 -30v-396h170v396c0 20 7 30 21 30s21 -10 21 -30v-438h-466z" />
    <glyph glyph-name="shchacyrillic" unicode="&#x449;" horiz-adv-x="631" 
d="M287 438c0 20 6.66699 30 20 30c14.667 0 22 -10 22 -30v-396h170v396c0 20 7 30 21 30s21 -10 21 -30v-396h12c30.667 0 46 -17.333 46 -52v-52c0 -20 -7 -30 -21 -30s-21 10 -21 30v62h-482v438c0 20 6.66699 30 20 30c14.667 0 22 -10 22 -30v-396h170v396z" />
    <glyph glyph-name="hardsigncyrillic" unicode="&#x44a;" horiz-adv-x="556" 
d="M361 42c78.667 0 118 29.333 118 88c0 10.667 -1 20 -3 28s-6.5 17 -13.5 27s-19 17.833 -36 23.5s-38.833 8.5 -65.5 8.5h-164v-175h164zM155 0v419.001h-101c-20.667 0 -31 7.66699 -31 23c0 12.667 10.333 19 31 19h143v-202h171c42 0 77.833 -9.83301 107.5 -29.5
s44.5 -52.834 44.5 -99.501c0 -47.333 -14.833 -80.833 -44.5 -100.5s-65.5 -29.5 -107.5 -29.5h-213z" />
    <glyph glyph-name="yericyrillic" unicode="&#x44b;" horiz-adv-x="662" 
d="M588 20c0 -18 -7.33301 -27 -22 -27c-13.333 0 -20 9 -20 27v420c0 18.667 7 28 21 28s21 -9.33301 21 -28v-420zM322 42c78.667 0 118 29.333 118 88c0 10.667 -1 20 -3 28s-6.5 17 -13.5 27s-19 17.833 -36 23.5s-38.833 8.5 -65.5 8.5h-205v-175h205zM75 0v437.001
c0 20.667 6.66699 31 20 31c14.667 0 22 -10.333 22 -31v-178h212c42 0 77.833 -9.83301 107.5 -29.5s44.5 -52.834 44.5 -99.501c0 -47.333 -14.833 -80.833 -44.5 -100.5s-65.5 -29.5 -107.5 -29.5h-254z" />
    <glyph glyph-name="softsigncyrillic" unicode="&#x44c;" horiz-adv-x="516" 
d="M322 42c78.667 0 118 29.333 118 88c0 10.667 -1 20 -3 28s-6.5 17 -13.5 27s-19 17.833 -36 23.5s-38.833 8.5 -65.5 8.5h-205v-175h205zM75 0v437.001c0 20.667 6.66699 31 20 31c14.667 0 22 -10.333 22 -31v-178h212c42 0 77.833 -9.83301 107.5 -29.5
s44.5 -52.834 44.5 -99.501c0 -47.333 -14.833 -80.833 -44.5 -100.5s-65.5 -29.5 -107.5 -29.5h-254z" />
    <glyph glyph-name="ereversedcyrillic" unicode="&#x44d;" horiz-adv-x="563" 
d="M152 461h141c70.667 0 123 -11.667 157 -35s51 -70 51 -140v-111c0 -70 -17 -116.667 -51 -140s-86.333 -35 -157 -35h-141c-20.667 0 -37.834 3 -51.501 9s-23.334 14.833 -29.001 26.5s-9.5 22.667 -11.5 33s-3 23.166 -3 38.499c0 20 7 30 21 30s21 -9.33301 21 -28
c0 -24 4.33301 -41.167 13 -51.5s24.334 -15.5 47.001 -15.5h134c32 0 56.833 1.16699 74.5 3.5s34.167 8 49.5 17s26.166 22.5 32.499 40.5s9.5 42 9.5 72v42h-199c-20.667 0 -31 6.33301 -31 19c0 15.333 10.333 23 31 23h199v27c0 30 -3.16699 54 -9.5 72
s-17.166 31.5 -32.499 40.5s-31.833 14.667 -49.5 17s-42.5 3.5 -74.5 3.5h-134c-22.667 0 -38.334 -5 -47.001 -15s-13 -27.333 -13 -52c0 -18.667 -7 -28 -21 -28s-21 10.333 -21 31c0 14.667 1 27.334 3 38.001s5.83301 21.667 11.5 33s15.334 20 29.001 26
s30.834 9 51.501 9z" />
    <glyph glyph-name="iucyrillic" unicode="&#x44e;" horiz-adv-x="668" 
d="M116 20c0 -18 -7.33301 -27 -22 -27c-13.333 0 -20 9 -20 27v420c0 18.667 7 28 21 28s21 -9.33301 21 -28v-181h75v27c0 70 17 116.667 51 140s86.333 35 157 35c70 0 122 -11.667 156 -35s51 -70 51 -140v-111c0 -70 -17 -116.667 -51 -140s-86 -35 -156 -35
c-70.667 0 -123 11.667 -157 35s-51 70 -51 140v42h-75v-197zM399 42c31.333 0 55.833 1.16699 73.5 3.5s34.167 8 49.5 17s26.166 22.5 32.499 40.5s9.5 42 9.5 72v111c0 30 -3.16699 54 -9.5 72s-17.166 31.5 -32.499 40.5s-31.833 14.667 -49.5 17s-42.167 3.5 -73.5 3.5
c-32 0 -56.833 -1.16699 -74.5 -3.5s-34.167 -8 -49.5 -17s-26.166 -22.5 -32.499 -40.5s-9.5 -42 -9.5 -72v-111c0 -30 3.16699 -54 9.5 -72s17.166 -31.5 32.499 -40.5s31.833 -14.667 49.5 -17s42.5 -3.5 74.5 -3.5z" />
    <glyph glyph-name="iacyrillic" unicode="&#x44f;" horiz-adv-x="532" 
d="M82 328c0 24.667 3.33691 45.335 10.0039 62.002s15.167 29.667 25.5 39s25.166 16.333 44.499 21s38 7.66699 56 9s41.667 2 71 2h149c12.667 0 19 -10.333 19 -31v-410c0 -18 -6.66699 -27 -20 -27c-14.667 0 -22 9 -22 27v182h-120
c-36.667 0 -64.334 -7.66699 -83.001 -23s-32.334 -38.666 -41.001 -69.999c-10 -34.667 -25.833 -62.834 -47.5 -84.501s-46.167 -32.5 -73.5 -32.5c-20.667 0 -31 7 -31 21s10.333 21 31 21c18 0 34 7.66699 48 23s23.333 30.666 28 45.999l5 18
c9.33301 35.333 27.666 64 54.999 86c-37.333 5.33301 -64 17.166 -80 35.499s-24 46.833 -24 85.5zM258.004 244.001l157 0.000976562v175h-157c-51.333 0 -86.5 -5 -105.5 -15s-28.5 -34.333 -28.5 -73s9.5 -62.834 28.5 -72.501s54.167 -14.5 105.5 -14.5z" />
    <glyph glyph-name="uni0450" unicode="&#x450;" 
d="M181 657c0 6 2.16699 11 6.5 15s8.83301 6 13.5 6c6 0 13 -4.33301 21 -13l96 -115c5.33301 -6 8 -12.667 8 -20c0 -5.33301 -2.16699 -10 -6.5 -14s-8.83301 -6 -13.5 -6c-6 0 -13 4.33301 -21 13l-96 115c-5.33301 6 -8 12.333 -8 19zM506 286l0.00195312 -35.999h-402
v-75c0 -30 3.16699 -54 9.5 -72s17.166 -31.5 32.499 -40.5s31.833 -14.667 49.5 -17s42.5 -3.5 74.5 -3.5h134c22.667 0 38.334 5 47.001 15s13 27.333 13 52c0 18.667 7 28 21 28s21 -10.333 21 -31c0 -14.667 -1 -27.334 -3 -38.001s-5.83301 -21.667 -11.5 -33
s-15.334 -20 -29.001 -26s-30.834 -9 -51.501 -9h-141c-70.667 0 -123 11.667 -157 35s-51 70 -51 140v111c0 70 17 116.667 51 140s86.333 35 157 35h29c70 0 122 -11.667 156 -35s51 -70 51 -140zM299.002 419.001h-28.999c-61.333 0 -104.333 -7.66699 -129 -23
s-37 -50 -37 -104h360c0 54 -12.333 88.667 -37 104s-67.334 23 -128.001 23z" />
    <glyph glyph-name="iocyrillic" unicode="&#x451;" 
d="M312 558c0 9.33301 5 17.666 15 24.999s20.333 11 31 11c10 0 20.167 -3.66699 30.5 -11s15.5 -15.666 15.5 -24.999s-5.16699 -17.666 -15.5 -24.999s-20.5 -11 -30.5 -11c-10.667 0 -21 3.66699 -31 11s-15 15.666 -15 24.999zM166 558c0 9.33301 5 17.666 15 24.999
s20.333 11 31 11c10 0 20.167 -3.66699 30.5 -11s15.5 -15.666 15.5 -24.999s-5.16699 -17.666 -15.5 -24.999s-20.5 -11 -30.5 -11c-10.667 0 -21 3.66699 -31 11s-15 15.666 -15 24.999zM506 286l0.00195312 -35.999h-402v-75c0 -30 3.16699 -54 9.5 -72
s17.166 -31.5 32.499 -40.5s31.833 -14.667 49.5 -17s42.5 -3.5 74.5 -3.5h134c22.667 0 38.334 5 47.001 15s13 27.333 13 52c0 18.667 7 28 21 28s21 -10.333 21 -31c0 -14.667 -1 -27.334 -3 -38.001s-5.83301 -21.667 -11.5 -33s-15.334 -20 -29.001 -26
s-30.834 -9 -51.501 -9h-141c-70.667 0 -123 11.667 -157 35s-51 70 -51 140v111c0 70 17 116.667 51 140s86.333 35 157 35h29c70 0 122 -11.667 156 -35s51 -70 51 -140zM299.002 419.001h-28.999c-61.333 0 -104.333 -7.66699 -129 -23s-37 -50 -37 -104h360
c0 54 -12.333 88.667 -37 104s-67.334 23 -128.001 23z" />
    <glyph glyph-name="djecyrillic" unicode="&#x452;" horiz-adv-x="589" 
d="M518 -81c0 -51.333 -8.33301 -84.833 -25 -100.5s-42.334 -23.5 -77.001 -23.5c-20.667 0 -31 7 -31 21s10.333 21 31 21c22.667 0 38.334 5 47.001 15s13 26.667 13 50v384c0 30 -3.16699 54 -9.5 72s-17.166 31.5 -32.499 40.5s-31.833 14.667 -49.5 17
s-42.167 3.5 -73.5 3.5h-29c-53.333 0 -94.333 -16.167 -123 -48.5s-43 -78.5 -43 -138.5v-209c0 -20 -7 -30 -21 -30s-21 10 -21 30v487c-16.667 0 -25 7.33301 -25 22c0 14 8.33301 21 25 21v59c0 20.667 6.33301 31 19 31c15.333 0 23 -10.333 23 -31v-59h204
c19.333 0 29 -7.66699 29 -23c0 -13.333 -9.66699 -20 -29 -20h-204v-121c37.333 48 92.666 72 165.999 72h29c70 0 122 -11.667 156 -35s51 -70 51 -140v-367z" />
    <glyph glyph-name="gjecyrillic" unicode="&#x453;" horiz-adv-x="458" 
d="M376 657c0 -6.66699 -2.66699 -13 -8 -19l-96 -115c-8 -8.66699 -15 -13 -21 -13c-4.66699 0 -9.16699 2 -13.5 6s-6.5 8.66699 -6.5 14c0 7.33301 2.66699 14 8 20l96 115c8 8.66699 15 13 21 13c4.66699 0 9.16699 -2 13.5 -6s6.5 -9 6.5 -15zM175 419
c-22.667 0 -38.333 -5 -47 -15s-13 -26.667 -13 -50v-331c0 -20 -7.33301 -30 -22 -30c-13.333 0 -20 10 -20 30v314c0 46.667 6.66699 79 20 97s38.333 27 75 27h244c20 0 30 -7 30 -21s-10 -21 -30 -21h-237z" />
    <glyph glyph-name="ecyrillic" unicode="&#x454;" horiz-adv-x="563" 
d="M411 461c20.667 0 37.834 -3 51.501 -9s23.334 -14.667 29.001 -26s9.5 -22.333 11.5 -33s3 -23.334 3 -38.001c0 -20.667 -7 -31 -21 -31s-21 9.33301 -21 28c0 24.667 -4.33301 42 -13 52s-24.334 15 -47.001 15h-134c-32 0 -56.833 -1.16699 -74.5 -3.5
s-34.167 -8 -49.5 -17s-26.166 -22.5 -32.499 -40.5s-9.5 -42 -9.5 -72v-27h199c20.667 0 31 -7.66699 31 -23c0 -12.667 -10.333 -19 -31 -19h-199v-42c0 -30 3.16699 -54 9.5 -72s17.166 -31.5 32.499 -40.5s31.833 -14.667 49.5 -17s42.5 -3.5 74.5 -3.5h134
c22.667 0 38.334 5.16699 47.001 15.5s13 27.5 13 51.5c0 18.667 7 28 21 28s21 -10 21 -30c0 -15.333 -1 -28.166 -3 -38.499s-5.83301 -21.333 -11.5 -33s-15.334 -20.5 -29.001 -26.5s-30.834 -9 -51.501 -9h-141c-70.667 0 -123 11.667 -157 35s-51 70 -51 140v111
c0 70 17 116.667 51 140s86.333 35 157 35h141z" />
    <glyph glyph-name="dzecyrillic" unicode="&#x455;" 
d="M155 0c-20.667 0 -37.834 2.99805 -51.501 8.99805s-23.334 14.667 -29.001 26s-9.5 22.333 -11.5 33s-3 23.334 -3 38.001c0 20.667 7 31 21 31s21 -9.33301 21 -28c0 -24.667 4.33301 -42 13 -52s24.334 -15 47.001 -15h238c42.667 0 64 27 64 81
c0 28 -6 50.333 -18 67s-27.333 25 -46 25h-216c-82.667 0 -124 42.667 -124 128c0 38.667 9.5 68 28.5 88s50.833 30 95.5 30h225c20.667 0 37.834 -3 51.501 -9s23.334 -14.833 29.001 -26.5s9.5 -22.667 11.5 -33s3 -23.166 3 -38.499c0 -20 -7 -30 -21 -30
s-21 9.33301 -21 28c0 24 -4.33301 41.167 -13 51.5s-24.334 15.5 -47.001 15.5h-236c-42.667 0 -64 -25.333 -64 -76c0 -27.333 6 -48.5 18 -63.5s27.333 -22.5 46 -22.5h217c82 0 123 -44.667 123 -134c0 -82 -41 -123 -123 -123h-228z" />
    <glyph glyph-name="icyrillic" unicode="&#x456;" horiz-adv-x="190" 
d="M49 601c0 9.33301 5 17.666 15 24.999s20.333 11 31 11c10 0 20.167 -3.66699 30.5 -11s15.5 -15.666 15.5 -24.999s-5.16699 -17.666 -15.5 -24.999s-20.5 -11 -30.5 -11c-10.667 0 -21 3.66699 -31 11s-15 15.666 -15 24.999zM116 20c0 -18 -7.33301 -27 -22 -27
c-13.333 0 -20 9 -20 27v420c0 18.667 7 28 21 28s21 -9.33301 21 -28v-420z" />
    <glyph glyph-name="yicyrillic" unicode="&#x457;" horiz-adv-x="190" 
d="M122 565c0 9.33301 5 17.666 15 24.999s20.333 11 31 11c10 0 20.167 -3.66699 30.5 -11s15.5 -15.666 15.5 -24.999s-5.16699 -17.666 -15.5 -24.999s-20.5 -11 -30.5 -11c-10.667 0 -21 3.66699 -31 11s-15 15.666 -15 24.999zM-24 565c0 9.33301 5 17.666 15 24.999
s20.333 11 31 11c10 0 20.167 -3.66699 30.5 -11s15.5 -15.666 15.5 -24.999s-5.16699 -17.666 -15.5 -24.999s-20.5 -11 -30.5 -11c-10.667 0 -21 3.66699 -31 11s-15 15.666 -15 24.999zM116 20c0 -18 -7.33301 -27 -22 -27c-13.333 0 -20 9 -20 27v420
c0 18.667 7 28 21 28s21 -9.33301 21 -28v-420z" />
    <glyph glyph-name="jecyrillic" unicode="&#x458;" horiz-adv-x="192" 
d="M50 601c0 9.33301 5.16699 17.666 15.5 24.999s20.5 11 30.5 11c10.667 0 21 -3.66699 31 -11s15 -15.666 15 -24.999s-5 -17.666 -15 -24.999s-20.333 -11 -31 -11c-10 0 -20.167 3.66699 -30.5 11s-15.5 15.666 -15.5 24.999zM117 0
c0 -37.333 -4.66504 -68 -13.998 -92s-24 -41.833 -44 -53.5s-41.333 -19.5 -64 -23.5s-51.334 -6 -86.001 -6c-20.667 0 -31 7.33301 -31 22c0 13.333 10.333 20 31 20c32 0 56.833 1.16699 74.5 3.5s34.167 8 49.5 17s26.166 22.5 32.499 40.5s9.5 42 9.5 72v437
c0 20.667 7.33301 31 22 31c13.333 0 20 -10.333 20 -31v-437z" />
    <glyph glyph-name="ljecyrillic" unicode="&#x459;" horiz-adv-x="725" 
d="M435 217v-175h94c78.667 0 118 29.333 118 88c0 10.667 -1 20 -3 28s-6.5 17 -13.5 27s-19 17.833 -36 23.5s-38.833 8.5 -65.5 8.5h-94zM435 259l101.001 0.000976562c42 0 77.833 -9.83301 107.5 -29.5s44.5 -52.834 44.5 -99.501
c0 -47.333 -14.833 -80.833 -44.5 -100.5s-65.5 -29.5 -107.5 -29.5h-143v419h-170c-22.667 0 -38.334 -5 -47.001 -15s-13 -26.667 -13 -50v-230c0 -51.333 -8.33301 -84.833 -25 -100.5s-42.334 -23.5 -77.001 -23.5c-20.667 -0 -31 7.33301 -31 22
c0 13.333 10.333 20 31 20c22.667 0 38.334 4.83301 47.001 14.5s13 26.167 13 49.5v231c0 46.667 6.66699 79 20 97s38.333 27 75 27h219v-202z" />
    <glyph glyph-name="njecyrillic" unicode="&#x45a;" horiz-adv-x="769" 
d="M479 217v-175h94c78.667 0 118 29.333 118 88c0 10.667 -1 20 -3 28s-6.5 17 -13.5 27s-19 17.833 -36 23.5s-38.833 8.5 -65.5 8.5h-94zM479 259l101 0.000976562c42 0 77.833 -9.83301 107.5 -29.5s44.5 -52.834 44.5 -99.501c0 -47.333 -14.833 -80.833 -44.5 -100.5
s-65.5 -29.5 -107.5 -29.5h-143v217h-321v-194c0 -20 -7 -30 -21 -30s-21 10 -21 30v414c0 20.667 6.33301 31 19 31c15.333 0 23 -10.333 23 -31v-178h321v178c0 20.667 6.66699 31 20 31c14.667 0 22 -10.333 22 -31v-178z" />
    <glyph glyph-name="tshecyrillic" unicode="&#x45b;" horiz-adv-x="588" 
d="M518 23c0 -20 -6.66699 -30 -20 -30c-14.667 0 -22 10 -22 30v263c0 30 -3.16699 54 -9.5 72s-17.166 31.5 -32.499 40.5s-31.833 14.667 -49.5 17s-42.167 3.5 -73.5 3.5h-29c-53.333 0 -94.333 -16.167 -123 -48.5s-43 -78.5 -43 -138.5v-209c0 -20 -7 -30 -21 -30
s-21 10 -21 30v487c-16.667 0 -25 7.33301 -25 22c0 14 8.33301 21 25 21v59c0 20.667 6.33301 31 19 31c15.333 0 23 -10.333 23 -31v-59h204c19.333 0 29 -7.66699 29 -23c0 -13.333 -9.66699 -20 -29 -20h-204v-121c37.333 48 92.666 72 165.999 72h29
c70 0 122 -11.667 156 -35s51 -70 51 -140v-263z" />
    <glyph glyph-name="kjecyrillic" unicode="&#x45c;" horiz-adv-x="538" 
d="M365 657c0 -6.66699 -2.66699 -13 -8 -19l-96 -115c-8 -8.66699 -15 -13 -21 -13c-4.66699 0 -9.16699 2 -13.5 6s-6.5 8.66699 -6.5 14c0 7.33301 2.66699 14 8 20l96 115c8 8.66699 15 13 21 13c4.66699 0 9.16699 -2 13.5 -6s6.5 -9 6.5 -15zM177 210h-61.002v-190
c0 -18 -7.33301 -27 -22 -27c-13.333 0 -20 9 -20 27v420c0 18.667 7 28 21 28s21 -9.33301 21 -28v-188h111c13.333 0 26.333 7.5 39 22.5s24.834 33 36.501 54s24.667 42.167 39 63.5s33 39.5 56 54.5s48.5 22.5 76.5 22.5c20.667 0 31 -7 31 -21s-10.333 -21 -31 -21
c-21.333 0 -41.333 -7.5 -60 -22.5s-33.667 -32.167 -45 -51.5s-24.666 -40.833 -39.999 -64.5s-29.333 -41.5 -42 -53.5c32 -11.333 58.333 -28.833 79 -52.5s34.5 -46 41.5 -67s16 -39.667 27 -56s24.167 -24.5 39.5 -24.5c20.667 0 31 -7 31 -21s-10.333 -21 -31 -21
c-24.667 0 -44.5 7.5 -59.5 22.5s-27 33 -36 54s-19.667 42.167 -32 63.5s-32.5 39.5 -60.5 54.5s-64.333 22.5 -109 22.5z" />
    <glyph glyph-name="iicyrillic_grave" unicode="&#x45d;" horiz-adv-x="583" 
d="M197 657c0 6 2.16699 11 6.5 15s8.83301 6 13.5 6c6 0 13 -4.33301 21 -13l96 -115c5.33301 -6 8 -12.667 8 -20c0 -5.33301 -2.16699 -10 -6.5 -14s-8.83301 -6 -13.5 -6c-6 0 -13 4.33301 -21 13l-96 115c-5.33301 6 -8 12.333 -8 19zM509 461v-437
c0 -20.667 -6.66699 -31 -20 -31c-14.667 0 -22 10.333 -22 31v379l-343 -403h-49v437c0 20.667 6.66699 31 20 31c14.667 0 22 -10.333 22 -31v-383l346 407h46z" />
    <glyph glyph-name="ushortcyrillic" unicode="&#x45e;" horiz-adv-x="589" 
d="M441 636l-0.000976562 -22c0 -42.667 -6 -72 -18 -88s-34.667 -24 -68 -24h-117c-32.667 0 -55.167 8.16699 -67.5 24.5s-18.5 45.5 -18.5 87.5v22h42v-38c0 -20.667 3.5 -34.834 10.5 -42.501s20.833 -11.5 41.5 -11.5h102c20.667 0 34.334 3.83301 41.001 11.5
s10 21.834 10 42.501v38h42zM513.999 -92c0 -42.667 -6 -72.166 -18 -88.499s-34.667 -24.5 -68 -24.5h-263c-20.667 0 -37.834 3 -51.501 9s-23.334 14.833 -29.001 26.5s-9.5 22.667 -11.5 33s-3 23.166 -3 38.499c0 20 7 30 21 30s21 -9.33301 21 -28
c0 -24 4.33301 -41.167 13 -51.5s24.334 -15.5 47.001 -15.5h249c20.667 0 34.334 3.83301 41.001 11.5s10 22.167 10 43.5v180c-36 -48 -91 -72 -165 -72h-29c-70.667 0 -123 11.667 -157 35s-51 70 -51 140v261c0 21.333 7 32 21 32s21 -10.667 21 -32v-261
c0 -30 3.16699 -54 9.5 -72s17.166 -31.5 32.499 -40.5s31.833 -14.667 49.5 -17s42.5 -3.5 74.5 -3.5h29c52.667 0 93.334 16 122.001 48s43 78 43 138v208c0 21.333 7.33301 32 22 32c13.333 0 20 -10.667 20 -32v-528z" />
    <glyph glyph-name="dzhecyrillic" unicode="&#x45f;" horiz-adv-x="584" 
d="M271 0h-196v438c0 20 6.66699 30 20 30c14.667 0 22 -10 22 -30v-396h350v396c0 20 7 30 21 30s21 -10 21 -30v-438h-196v-62c0 -20 -7 -30 -21 -30s-21 10 -21 30v62z" />
    <glyph glyph-name="Yatcyrillic" unicode="&#x462;" horiz-adv-x="631" 
d="M205 612c0 20.667 6.66699 30.999 20 30.999c14.667 0 22 -10.333 22 -31v-109h150c18.667 0 28 -7.33301 28 -22c0 -13.333 -9.33301 -20 -28 -20h-150v-60h141c62 0 112 -18.667 150 -56s57 -86.666 57 -147.999c0 -62 -19 -111.5 -57 -148.5s-88 -55.5 -150 -55.5
h-162c-14 0 -21 10.333 -21 31v437h-147c-18.667 0 -28 7 -28 21s9.33301 21 28 21h147v109zM247 34.999l140.999 -0.00195312c54 0 95 14.833 123 44.5s42 68.834 42 117.501s-14.167 87.834 -42.5 117.501s-69.166 44.5 -122.499 44.5h-141v-324z" />
    <glyph glyph-name="yatcyrillic" unicode="&#x463;" horiz-adv-x="630" 
d="M207 0c-12.667 0 -18.999 10.332 -18.999 30.999v388h-142c-18.667 0 -28 7 -28 21s9.33301 21 28 21h142v155c0 18 6.66699 27 20 27c14.667 0 22 -9 22 -27v-155h142c18.667 0 28 -7.33301 28 -22c0 -13.333 -9.33301 -20 -28 -20h-142v-120h195
c52 0 92.5 -12.667 121.5 -38s43.5 -62.333 43.5 -111c0 -57.333 -17.333 -96.666 -52 -117.999s-86.334 -32 -155.001 -32h-176zM383.001 41.999c60 0 102.5 7 127.5 21s37.5 43 37.5 87c0 43.333 -12.5 72 -37.5 86s-67.5 21 -127.5 21h-153v-215h153z" />
    <glyph glyph-name="Fitacyrillic" unicode="&#x472;" horiz-adv-x="574" 
d="M467 303c-20.667 -15.333 -42.334 -23.001 -65.001 -23.001c-24 0 -63.667 6.66699 -119 20s-88.666 20 -99.999 20c-10 0 -21.333 -2.66699 -34 -8s-23 -10.666 -31 -15.999l-11 -9v-60c0 -60.667 16 -108.167 48 -142.5s76 -51.5 132 -51.5s100 17.167 132 51.5
s48 81.833 48 142.5v76zM467 408.999c0 60.667 -15.999 108.167 -47.999 142.5s-76 51.5 -132 51.5s-100 -17.167 -132 -51.5s-48 -81.833 -48 -142.5v-70c19.333 15.333 40.333 23 63 23c24 0 63.667 -6.66699 119 -20s88.666 -20 99.999 -20c10 0 21.5 2.83301 34.5 8.5
s23.5 11.5 31.5 17.5l12 8v53zM509.001 226.999c0 -73.333 -20.833 -131 -62.5 -173s-94.834 -63 -159.501 -63s-117.834 21 -159.501 63s-62.5 99.667 -62.5 173v182c0 73.333 20.833 131 62.5 173s94.834 63 159.501 63s117.834 -21 159.501 -63s62.5 -99.667 62.5 -173
v-182z" />
    <glyph glyph-name="fitacyrillic" unicode="&#x473;" horiz-adv-x="554" 
d="M450 214c-20.667 -15.333 -42.3311 -23 -64.998 -23c-24 0 -61.333 6.66699 -112 20s-81.667 20 -93 20c-10 0 -21.333 -2.83301 -34 -8.5s-22.667 -11.167 -30 -16.5l-12 -8v-23c0 -30 3.16699 -54 9.5 -72s17.166 -31.5 32.499 -40.5s31.833 -14.667 49.5 -17
s42.5 -3.5 74.5 -3.5h15c31.333 0 55.833 1.16699 73.5 3.5s34.167 8 49.5 17s26.166 22.5 32.499 40.5s9.5 42 9.5 72v39zM450.003 286c0 30 -3.16895 54 -9.50195 72s-17.166 31.5 -32.499 40.5s-31.833 14.667 -49.5 17s-42.167 3.5 -73.5 3.5h-15
c-32 0 -56.833 -1.16699 -74.5 -3.5s-34.167 -8 -49.5 -17s-26.166 -22.5 -32.499 -40.5s-9.5 -42 -9.5 -72v-36c19.333 15.333 40.333 23 63 23c24 0 61.333 -6.66699 112 -20s81.667 -20 93 -20c10 0 21.5 2.83301 34.5 8.5s23.5 11.167 31.5 16.5l12 9v19zM285.001 0h-15
c-70.667 0 -123 11.667 -157 35s-51 70 -51 140v111c0 70 17 116.667 51 140s86.333 35 157 35h15c70 0 122 -11.667 156 -35s51 -70 51 -140v-111c0 -70 -17 -116.667 -51 -140s-86 -35 -156 -35z" />
    <glyph glyph-name="Gheupturncyrillic" unicode="&#x490;" horiz-adv-x="539" 
d="M512 594h-327.999c-22.667 0 -38.334 -5 -47.001 -15s-13 -26.667 -13 -50v-506c0 -20 -7.33301 -30 -22 -30c-13.333 0 -20 10 -20 30v489c0 46.667 6.66699 79 20 97s38.333 27 75 27h293v82c0 20 7.33301 30 22 30c13.333 0 20 -10 20 -30v-124z" />
    <glyph glyph-name="gheupturncyrillic" unicode="&#x491;" horiz-adv-x="461" 
d="M175 419c-22.667 0 -38.333 -5 -47 -15s-13 -26.667 -13 -50v-331c0 -20 -7.33301 -30 -22 -30c-13.333 0 -20 10 -20 30v314c0 46.667 6.66699 79 20 97s38.333 27 75 27h232v82c0 20 7.33301 30 22 30c13.333 0 20 -10 20 -30v-124h-267z" />
    <glyph glyph-name="endash" unicode="&#x2013;" horiz-adv-x="514" 
d="M99 209c-17.333 0 -26 7.33301 -26 22c0 14 8.66699 21 26 21h313c19.333 0 29 -7.66699 29 -23c0 -13.333 -9.66699 -20 -29 -20h-313z" />
    <glyph glyph-name="emdash" unicode="&#x2014;" horiz-adv-x="631" 
d="M99 209c-17.333 0 -26 7.33301 -26 22c0 14 8.66699 21 26 21h430c19.333 0 29 -7.66699 29 -23c0 -13.333 -9.66699 -20 -29 -20h-430z" />
    <glyph glyph-name="quoteleft" unicode="&#x2018;" horiz-adv-x="193" 
d="M120 555c0 -13.333 -10 -20 -30 -20c-18 0 -27 6.66699 -27 20c0 28.667 8.5 56 25.5 82s30.833 39 41.5 39s16 -4 16 -12c0 -2.66699 -4.33301 -14 -13 -34s-13 -45 -13 -75z" />
    <glyph glyph-name="quoteright" unicode="&#x2019;" horiz-adv-x="192" 
d="M88 655c0 14 10.001 21.002 30.001 21.002c17.333 0 26 -7 26 -21c0 -28.667 -8.33301 -55.834 -25 -81.501s-30.334 -38.5 -41.001 -38.5c-11.333 0 -17 4 -17 12c0 2 4.5 13.167 13.5 33.5s13.5 45.166 13.5 74.499z" />
    <glyph glyph-name="quotesinglbase" unicode="&#x201a;" horiz-adv-x="203" 
d="M74 41c0 14 10.001 21.002 30.001 21.002c17.333 0 26 -7 26 -21c0 -28.667 -8.33301 -55.834 -25 -81.501s-30.334 -38.5 -41.001 -38.5c-11.333 0 -17 4 -17 12c0 2 4.5 13.167 13.5 33.5s13.5 45.166 13.5 74.499z" />
    <glyph glyph-name="quotedblleft" unicode="&#x201c;" horiz-adv-x="316" 
d="M120 555c0 -13.333 -10 -20 -30 -20c-18 0 -27 6.66699 -27 20c0 28.667 8.5 56 25.5 82s30.833 39 41.5 39s16 -4 16 -12c0 -2.66699 -4.33301 -14 -13 -34s-13 -45 -13 -75zM243 555c0 -13.333 -10 -20 -30 -20c-18 0 -27 6.66699 -27 20c0 28.667 8.5 56 25.5 82
s30.833 39 41.5 39s16 -4 16 -12c0 -2.66699 -4.33301 -14 -13 -34s-13 -45 -13 -75z" />
    <glyph glyph-name="quotedblright" unicode="&#x201d;" horiz-adv-x="315" 
d="M88 655c0 14 10.001 21.002 30.001 21.002c17.333 0 26 -7 26 -21c0 -28.667 -8.33301 -55.834 -25 -81.501s-30.334 -38.5 -41.001 -38.5c-11.333 0 -17 4 -17 12c0 2 4.5 13.167 13.5 33.5s13.5 45.166 13.5 74.499zM211.001 655.002c0 14 10.001 21.002 30.001 21.002
c17.333 0 26 -7 26 -21c0 -28.667 -8.33301 -55.834 -25 -81.501s-30.334 -38.5 -41.001 -38.5c-11.333 0 -17 4 -17 12c0 2 4.5 13.167 13.5 33.5s13.5 45.166 13.5 74.499z" />
    <glyph glyph-name="quotedblbase" unicode="&#x201e;" horiz-adv-x="326" 
d="M74 41c0 14 10.001 21.002 30.001 21.002c17.333 0 26 -7 26 -21c0 -28.667 -8.33301 -55.834 -25 -81.501s-30.334 -38.5 -41.001 -38.5c-11.333 0 -17 4 -17 12c0 2 4.5 13.167 13.5 33.5s13.5 45.166 13.5 74.499zM197.001 41.002c0 14 10.001 21.002 30.001 21.002
c17.333 0 26 -7 26 -21c0 -28.667 -8.33301 -55.834 -25 -81.501s-30.334 -38.5 -41.001 -38.5c-11.333 0 -17 4 -17 12c0 2 4.5 13.167 13.5 33.5s13.5 45.166 13.5 74.499z" />
    <glyph glyph-name="bullet" unicode="&#x2022;" horiz-adv-x="382" 
d="M56 258c0 37.333 13.167 69.166 39.5 95.499s58.166 39.5 95.499 39.5s69.166 -13.167 95.499 -39.5s39.5 -58.166 39.5 -95.499s-13.167 -69.166 -39.5 -95.499s-58.166 -39.5 -95.499 -39.5s-69.166 13.167 -95.499 39.5s-39.5 58.166 -39.5 95.499z" />
    <glyph glyph-name="guilsinglleft" unicode="&#x2039;" horiz-adv-x="330" 
d="M256 178c8.66699 -8.66699 13 -18.001 13 -28.001s-5 -15 -15 -15c-9.33301 0 -16 2 -20 6l-182 169c-10.667 9.33301 -16 17 -16 23c0 4.66699 5.33301 11.667 16 21l182 169c3.33301 3.33301 10 5 20 5s15 -4.66699 15 -14s-4.33301 -18.666 -13 -27.999l-158 -153z
" />
    <glyph glyph-name="guilsinglright" unicode="&#x203a;" horiz-adv-x="330" 
d="M74 178l158.001 155.001l-158 153c-8.66699 9.33301 -13 18.666 -13 27.999s5 14 15 14c9.33301 0 15.666 -1.66699 18.999 -5l183 -169c10.667 -9.33301 16 -16.333 16 -21c0 -6 -5.33301 -13.667 -16 -23l-183 -169c-4 -4 -10.333 -6 -19 -6c-10 0 -15 5 -15 15
s4.33301 19.333 13 28z" />
    <glyph glyph-name="fraction" unicode="&#x2044;" horiz-adv-x="226" 
d="M325 534c10 0 15 -5 15 -15c0 -5.33301 -3.66699 -12.333 -11 -21l-409 -409c-7.33301 -7.33301 -14.333 -11 -21 -11c-10 0 -15 5 -15 15c0 6.66699 3.66699 13.667 11 21l409 409c8.66699 7.33301 15.667 11 21 11z" />
    <glyph glyph-name="foursuperior" unicode="&#x2074;" horiz-adv-x="284" 
d="M240 562h-49v-82c0 -14.667 -5.66699 -22 -17 -22s-17 7.33301 -17 22v82h-132v45l120 160h46v-172h49c14 0 21 -5.33301 21 -16c0 -11.333 -7 -17 -21 -17zM157 595v138l-103 -138h103z" />
    <glyph glyph-name="Euro" unicode="&#x20ac;" horiz-adv-x="551" 
d="M393 636c20.667 0 37.834 -2.99902 51.501 -8.99902s23.334 -14.667 29.001 -26s9.5 -22.333 11.5 -33s3 -23.667 3 -39c0 -20 -7 -30 -21 -30s-21 9.33301 -21 28c0 24 -4.33301 41.167 -13 51.5s-24.334 15.5 -47.001 15.5h-56
c-57.333 0 -101.833 -15.833 -133.5 -47.5s-47.5 -77.5 -47.5 -137.5v-10h199c19.333 0 29 -7.33301 29 -22c0 -14 -9.66699 -21 -29 -21h-199v-75h199c19.333 0 29 -7.66699 29 -23c0 -13.333 -9.66699 -20 -29 -20h-199v-11c0 -60 15.833 -105.833 47.5 -137.5
s76.167 -47.5 133.5 -47.5h56c22.667 0 38.334 5 47.001 15s13 27.333 13 52c0 18.667 7 28 21 28s21 -10.333 21 -31c0 -14.667 -1 -27.334 -3 -38.001s-5.83301 -21.667 -11.5 -33s-15.334 -20 -29.001 -26s-30.834 -9 -51.501 -9h-63c-66 0 -119.667 19.667 -161 59
s-62 95.333 -62 168v11h-36c-18 0 -27 7.33301 -27 22c0 14 9 21 27 21h36v75h-36c-18 0 -27 7.66699 -27 23c0 13.333 9 20 27 20h36v10c0 72.667 20.667 128.667 62 168s95 59 161 59h63z" />
    <glyph glyph-name="numero" unicode="&#x2116;" horiz-adv-x="866" 
d="M694 389h9c24 0 40 3 48 9s12 20.667 12 44v44c0 23.333 -4 38 -12 44s-24 9 -48 9h-9c-24 0 -39.833 -3 -47.5 -9s-11.5 -20.667 -11.5 -44v-44c0 -23.333 3.83301 -38 11.5 -44s23.5 -9 47.5 -9zM703 358h-9c-34 0 -57.5 5.66699 -70.5 17s-19.5 33.666 -19.5 66.999
v44c0 32.667 6.5 54.834 19.5 66.501s36.5 17.5 70.5 17.5h9c34.667 0 58.5 -5.83301 71.5 -17.5s19.5 -33.834 19.5 -66.501v-44c0 -33.333 -6.5 -55.666 -19.5 -66.999s-36.833 -17 -71.5 -17zM600 273c-14 0 -21 6 -21 18c0 11.333 7 17 21 17h196
c15.333 0 23 -6.33301 23 -19c0 -10.667 -7.66699 -16 -23 -16h-196zM513 -7c-8 0 -13.333 2.33301 -16 7l-366 557v-534c0 -20 -7 -30 -21 -30s-21 10 -21 30v589c0 20.667 6.33301 31 19 31c10 0 18.667 -5.66699 26 -17l357 -542v528c0 20.667 6.66699 31 20 31
c14.667 0 22 -10.333 22 -31v-589c0 -20 -6.66699 -30 -20 -30z" />
    <glyph glyph-name=".null" horiz-adv-x="0" 
 />
    <glyph glyph-name="nonmarkingreturn" horiz-adv-x="0" 
 />
    <glyph glyph-name="gravecomb" horiz-adv-x="0" 
d="M-370 611c0 4 2.16699 8.33301 6.5 13s9.16602 7 14.499 7c6.66699 0 13.334 -3.66699 20.001 -11l70 -69c7.33301 -8.66699 11 -16 11 -22c0 -4 -2 -8.16699 -6 -12.5s-8.66699 -6.5 -14 -6.5c-7.33301 0 -14.333 3.66699 -21 11l-69 69c-8 8 -12 15 -12 21z" />
    <glyph glyph-name="acutecomb" horiz-adv-x="0" 
d="M-248 611c0 -5.33301 -3.66699 -12.333 -11 -21l-70 -69c-6.66699 -7.33301 -13.334 -11 -20.001 -11c-5.33301 0 -10.166 2.16699 -14.499 6.5s-6.5 8.5 -6.5 12.5c0 6.66699 4 14 12 22l69 69c6.66699 7.33301 13.667 11 21 11c5.33301 0 10 -2.33301 14 -7s6 -9 6 -13
z" />
    <glyph glyph-name="uni0302" horiz-adv-x="0" 
d="M-301 632h-3l-92 -104c-10.667 -12 -18.667 -18 -24 -18c-12 0 -18 6 -18 18c0 6 1.33301 10.333 4 13l104 137h55l106 -137c2.66699 -3.33301 4 -7.66602 4 -12.999c0 -12 -6 -18 -18 -18c-2.66699 0 -5.16699 0.5 -7.5 1.5s-4 2 -5 3s-2.83301 3.16699 -5.5 6.5
s-4.66699 5.66602 -6 6.99902z" />
    <glyph glyph-name="uni030A" horiz-adv-x="0" 
d="M-356 586c0 -13.333 4.83301 -24.833 14.5 -34.5s21.167 -14.5 34.5 -14.5s24.833 4.83301 34.5 14.5s14.5 21.167 14.5 34.5s-5 24.833 -15 34.5s-21.333 14.5 -34 14.5c-13.333 0 -24.833 -4.83301 -34.5 -14.5s-14.5 -21.167 -14.5 -34.5zM-383 586
c0 21.333 7.5 39.333 22.5 54s32.833 22 53.5 22s38.5 -7.33301 53.5 -22s22.5 -32.667 22.5 -54s-7.5 -39.333 -22.5 -54s-32.833 -22 -53.5 -22s-38.5 7.33301 -53.5 22s-22.5 32.667 -22.5 54z" />
    <glyph glyph-name="Gamma" horiz-adv-x="536" 
d="M184 594c-22.667 0 -38.333 -5 -47 -15s-13 -26.667 -13 -50v-506c0 -20 -7.33301 -30 -22 -30c-13.333 0 -20 10 -20 30v489c0 46.667 6.66699 79 20 97s38.333 27 75 27h305c20 0 30 -7 30 -21s-10 -21 -30 -21h-298z" />
    <glyph glyph-name="mu" horiz-adv-x="565" 
d="M283 42c52.667 0 93.498 16 122.498 48s43.5 78 43.5 138v210c0 20 6.66699 30 20 30c14.667 0 22 -10 22 -30v-414c0 -20.667 -6.66699 -31 -20 -31c-14.667 0 -22 10.333 -22 31v48c-37.333 -48 -92.666 -72 -165.999 -72s-128.666 24 -165.999 72v-244
c0 -20.667 -7.66699 -31 -23 -31c-12.667 0 -19 10.333 -19 31v610c0 20 6.66699 30 20 30c14.667 0 22 -10 22 -30v-210c0 -60 14.333 -106 43 -138s69.667 -48 123 -48z" />
    <glyph glyph-name="omicron" horiz-adv-x="568" 
d="M299 0h-29c-70.667 0 -123 11.667 -157 35s-51 70 -51 140v111c0 70 17 116.667 51 140s86.333 35 157 35h29c70 0 122 -11.667 156 -35s51 -70 51 -140v-111c0 -70 -17 -116.667 -51 -140s-86 -35 -156 -35zM270 42h29c31.333 0 55.833 1.16699 73.5 3.5
s34.167 8 49.5 17s26.166 22.5 32.499 40.5s9.5 42 9.5 72v111c0 30 -3.16699 54 -9.5 72s-17.166 31.5 -32.499 40.5s-31.833 14.667 -49.5 17s-42.167 3.5 -73.5 3.5h-29c-32 0 -56.833 -1.16699 -74.5 -3.5s-34.167 -8 -49.5 -17s-26.166 -22.5 -32.499 -40.5
s-9.5 -42 -9.5 -72v-111c0 -30 3.16699 -54 9.5 -72s17.166 -31.5 32.499 -40.5s31.833 -14.667 49.5 -17s42.5 -3.5 74.5 -3.5z" />
    </font>
</defs>
</svg>
